<svg xmlns="http://www.w3.org/2000/svg" width="104" height="60" viewBox="0 0 104 60"><title>lane / result-lane-2</title><g fill="none" fill-rule="nonzero" opacity=".95"><path fill="#FFF" d="M21.76 57.88v-56h-8.72C9.84 5 5.6 7.88 0 9.48l2.08 7.2c3.12-.56 6.8-1.52 9.36-2.88v44.08h10.32zm28.16.96c11.84 0 20.88-6.4 20.88-17.44 0-6.4-3.92-11.12-10.08-12.48v-.4c5.6-2.24 8.32-6.72 8.32-12 0-8.56-7.36-15.6-18.48-15.6-8.32 0-13.84 3.76-17.68 7.28l5.6 7.12c2.72-2.64 6.4-5.2 11.68-5.2 5.44 0 8.4 3.36 8.4 7.12 0 4.4-3.6 7.6-9.04 7.6h-4.96v8.64h4.96c7.68 0 10.72 3.44 10.72 7.84 0 5.76-4.64 8.24-10.48 8.24-6.72 0-10.4-2.96-13.04-5.36l-6.32 6.72c3.2 3.68 9.52 7.92 19.52 7.92zM83.891 12.059c3.982 0 5.633-3.27 5.633-5.762 0-2.72-1.748-5.762-5.633-5.762-3.982 0-5.633 3.237-5.633 5.762 0 2.72 1.684 5.762 5.633 5.762zm1.068 11.913L99.3 2.153 96.84.535 82.5 22.385l2.46 1.587zM83.891 9.08c-1.49 0-2.557-1.133-2.557-2.784 0-1.522 1.036-2.752 2.557-2.752 1.457 0 2.493 1.133 2.493 2.752 0 1.521-1.004 2.784-2.493 2.784zm14.017 14.89c3.981 0 5.632-3.269 5.632-5.761 0-2.72-1.748-5.763-5.632-5.763-3.982 0-5.633 3.238-5.633 5.763 0 2.719 1.683 5.762 5.633 5.762zm0-2.978c-1.49 0-2.558-1.133-2.558-2.783 0-1.522 1.036-2.752 2.558-2.752 1.456 0 2.492 1.133 2.492 2.752 0 1.521-1.003 2.783-2.492 2.783z"/><path fill="#FF4539" d="M93.157 55.844v-16.55l5.179 5.22 3.521-3.52-11.169-11.168L79.48 40.994l3.52 3.52 5.22-5.22v16.55z"/></g></svg>