<svg xmlns="http://www.w3.org/2000/svg" width="188" height="60" viewBox="0 0 188 60"><title>lane / result-lane-1</title><g fill="none" fill-rule="nonzero" opacity=".95"><path fill="#FFF" d="M40.04 57.88v-12H49v-9.04h-8.96V1.88H27.56L.12 37.96v7.92h29.6v12h10.32zM29.72 36.84H13l-.08-.24 16.56-22.32.24.08v22.48zm48.56 22c17.36 0 22.08-16.08 22.08-28.96 0-13.84-5.12-28.96-22.08-28.96C60.84.92 56.04 17 56.04 29.88c0 13.84 5.2 28.96 22.24 28.96zm0-9.6c-9.255 0-11.783-9.542-11.84-19.114V29.8c0-8.96 2.24-19.36 11.84-19.36 9.28 0 11.68 9.84 11.68 19.36 0 9.12-2.16 19.44-11.68 19.44zm53.04 9.6c17.36 0 22.08-16.08 22.08-28.96 0-13.84-5.12-28.96-22.08-28.96-17.44 0-22.24 16.08-22.24 28.96 0 13.84 5.2 28.96 22.24 28.96zm0-9.6c-9.36 0-11.84-9.76-11.84-19.44 0-8.96 2.24-19.36 11.84-19.36 9.28 0 11.68 9.84 11.68 19.36 0 9.12-2.16 19.44-11.68 19.44zM166.891 12.059c3.982 0 5.633-3.27 5.633-5.762 0-2.72-1.748-5.762-5.633-5.762-3.982 0-5.633 3.237-5.633 5.762 0 2.72 1.684 5.762 5.633 5.762zm1.068 11.913L182.3 2.153 179.84.535l-14.34 21.85 2.46 1.587zM166.891 9.08c-1.49 0-2.557-1.133-2.557-2.784 0-1.522 1.036-2.752 2.557-2.752 1.457 0 2.493 1.133 2.493 2.752 0 1.521-1.004 2.784-2.493 2.784zm14.017 14.89c3.981 0 5.632-3.269 5.632-5.761 0-2.72-1.748-5.763-5.632-5.763-3.982 0-5.633 3.238-5.633 5.763 0 2.719 1.683 5.762 5.633 5.762zm0-2.978c-1.49 0-2.558-1.133-2.558-2.783 0-1.522 1.036-2.752 2.558-2.752 1.456 0 2.492 1.133 2.492 2.752 0 1.521-1.003 2.783-2.492 2.783z"/><path fill="#FF4539" d="M176.157 55.844v-16.55l5.179 5.22 3.521-3.52-11.169-11.168-11.208 11.168 3.52 3.52 5.22-5.22v16.55z"/></g></svg>