<svg xmlns="http://www.w3.org/2000/svg" xmlns:xlink="http://www.w3.org/1999/xlink" width="297" height="296" viewBox="0 0 297 296"><title>awards / aiga</title><defs><path id="a" d="M0 .512h283.324v76.692H0z"/></defs><g fill="none" fill-rule="evenodd"><path fill="#0D0D0D" d="M1 296h296V0H1z"/><g transform="translate(0 108)"><mask id="b" fill="#fff"><use xlink:href="#a"/></mask><path fill="#FFF" d="M201.542 29.403c.024.858.649.816.931.056.21-.515 7.04-21.008 7.214-21.638.341-1.233.8-2.953-2.284-3.77-6.335-1.656-14.996-2.076-18.388-2.076-17.897 0-31.665 8.494-36.338 12.132-8.07 6.361-14.444 15.467-17.06 25.159-4.975 18.43 5.668 38.678 34.7 37.917 11.332-.304 22.985-4.798 23.972-5.144.983-.361 1.76-.876 2.083-1.773.34-.896 4.447-13.712 5.23-16.395.764-2.703-2.06-2.437-3.167-2.437h-26.857c-.586 0-.915.378-.175.588.789.193 15.052 4.059 16.676 4.497 1.623.438.936 2.017.859 2.473-.113.479-2.765 11.6-3.11 12.514-.348.931-.555 1.39-2.158 1.864-1.065.343-4.69 1.048-9.672.931-15.773-.419-25.712-10.59-27.413-23.045-2.056-15.141 8.19-34.11 25.848-42.32 10.513-4.892 24.76-3.653 27.735-2.683 2.16.686 2.16 1.864 2.195 3.767.042.777-.838 18.945-.82 19.383M102.164 3.082c-.439 0-.439.32.036.476.307.115 8.874 3.047 9.768 3.349 1.64.589 1.775 2.003 1.45 3.41-.25 1.104-14.231 58.662-14.61 59.879-.535 1.716-2.422 2.4-3.189 2.707-.744.284-8.068 2.914-8.77 3.236-.557.249-.25.458.379.458h33.36c.666 0 .84-.458.192-.683-.61-.231-8.337-2.99-9.905-3.636-1.499-.556-1.428-1.66-1.179-2.956.19-1.011 13.79-58.244 14.136-59.368.456-1.355 1.085-2.299 2.847-3.082 1.047-.46 3.162-1.146 3.846-1.37.635-.175 6.335-1.864 6.868-2.003.52-.13.137-.417-.242-.417h-34.987M259.776 42.62c2.444 0 3.114-.878 3.114-2.363 0-1.01.29-19.274.29-21.333 0-2.02-1.149-2.095-2.5-.568-.685.74-19.058 20.472-20.054 21.593-1.01 1.106-1.105 2.59 1.603 2.61 0 .003 15.133.061 17.547.061m-61.395 33.442c.225-.133 4.732-1.752 7.03-3.538 1.189-.745 65.49-70.735 66.61-71.824.347-.283.733-.227.863.077.267.533-.684 66.984-.672 68.046.062 1.148.156 2.535 2.01 3.41 1.714.82 8.102 3.584 8.937 3.906.345.112.122.458-.415.458h-35.993s-.537-.115-.139-.286c.423-.249 12.005-3.92 12.861-4.19 1.775-.627 2.253-1.011 2.327-3.75.077-2.69.785-18.322.785-19.293 0-.955.305-2.896-2.27-3.074-1.18-.094-5.152-.434-9.256-.546-4.943-.137-10.089-.02-10.946 0-2.782.053-3.448.228-5.012 1.422-1.242.956-18.54 22.325-19.209 23.256-.684.988-.52 2.057 1.298 2.606 1.907.575 12.835 2.82 15.37 3.314.363.098.289.536-.227.536h-33.896c-.365.005-.308-.394-.056-.53M62.587 42.62c2.44 0 3.107-.878 3.107-2.363 0-1.01.285-19.274.285-21.333 0-2.02-1.159-2.095-2.498-.568-.687.74-19.075 20.472-20.068 21.593-1.01 1.106-1.087 2.59 1.603 2.61 0 .003 15.128.061 17.57.061M0 76.538l1.164-.48c.25-.132 4.75-1.75 7.058-3.537C9.383 71.775 73.69 1.786 74.794.697c.343-.284.722-.228.894.077.247.532-.726 66.984-.687 68.045.095 1.148.19 2.536 2.006 3.411 1.736.82 8.125 3.583 8.965 3.906.305.113.092.459-.459.459H49.517s-.513-.116-.112-.288c.396-.248 11.996-3.92 12.852-4.188 1.793-.628 2.252-1.012 2.329-3.751.057-2.69.8-18.321.8-19.292 0-.956.306-2.897-2.269-3.074-1.203-.095-5.17-.435-9.292-.548-4.918-.136-10.053-.02-10.91 0-2.803.054-3.47.229-5.054 1.423-1.242.956-18.522 22.324-19.185 23.256-.691.988-.498 2.057 1.315 2.607 1.866.573 12.835 2.82 15.333 3.313.365.098.287.536-.207.536H1.224L0 76.539" mask="url(#b)"/></g></g></svg>