<svg xmlns="http://www.w3.org/2000/svg" xmlns:xlink="http://www.w3.org/1999/xlink" width="331" height="174" viewBox="0 0 331 174"><title>awards / davey</title><defs><path id="a" d="M0 0h42v139H0z"/><path id="c" d="M.425.439h188.246V131.48H.425z"/><path id="e" d="M0 .144h93.698v94.867H0z"/></defs><g fill="none" fill-rule="evenodd"><g transform="translate(289)"><mask id="b" fill="#fff"><use xlink:href="#a"/></mask><path fill="#000" d="M22.352 138.956c-2.315.137-4.615-.07-6.912-.294a65.959 65.959 0 0 1-3.903-.497c-.865-.137-1.716-.366-2.571-.562a22.72 22.72 0 0 1-4.223-1.409c-1.186-.532-2.269-1.242-3.18-2.172-.647-.66-1.094-1.446-.944-2.455.028-.188-.087-.4-.144-.6-.098-.345-.288-.687-.291-1.032-.049-4.335-.068-8.67-.1-13.005-.013-1.85-.046-3.699-.059-5.548-.016-2.358-.032-4.716-.022-7.074.003-.611-.052-1.304.203-1.814.348-.692.335-1.424.54-2.122.23-.784.704-1.38 1.312-1.886.9-.748 1.94-1.236 3.038-1.597 5.112-1.68 8.83-8.905 8.792-14.002-.01-1.513-.358-2.984-.836-4.415-.493-1.48-.985-2.96-1.53-4.42-.606-1.629-1.283-3.23-1.906-4.853a198.65 198.65 0 0 1-1.724-4.654 177.993 177.993 0 0 1-1.69-4.96 56.461 56.461 0 0 1-.915-3.235c-.315-1.222-.647-2.443-.87-3.683a56.625 56.625 0 0 1-.596-4.35 68.62 68.62 0 0 1-.326-4.667 63.235 63.235 0 0 1 .015-4.94c.061-1.332.255-2.66.43-3.983.115-.877.254-1.755.466-2.612.226-.913.517-1.812.838-2.695.5-1.374 1.028-2.739 1.587-4.09.816-1.973 1.713-3.913 2.49-5.902.46-1.171.789-2.399 1.114-3.618.263-.989.512-1.984.51-3.03-.005-1.786.067-3.573.048-5.359-.013-1.277-.124-2.554-.188-3.831a2.647 2.647 0 0 1 .005-.426c.048-.43.212-.599.633-.68C20.675.713 30.03-.173 39.433.029c.592.013 1.21.036 1.735.314 1.481.781.601 4.13.264 5.393-.233.877-.584 1.721-.86 2.588-.594 1.87-1.41 3.638-2.493 5.266-1.081 1.626-2.292 3.15-3.85 4.346a346.23 346.23 0 0 1-4.384 3.318c-.8.595-1.63 1.15-2.444 1.728-.162.115-.307.256-.464.38-.672.53-1.379 1.022-2.012 1.597-1.826 1.661-3.833 3.117-5.479 4.982-1.462 1.656-2.823 3.385-3.872 5.344-.534.998-1.085 1.992-1.534 3.03a15.3 15.3 0 0 0-.826 2.56c-.327 1.391-.656 2.79-.826 4.207-.166 1.382-.175 2.79-.178 4.186-.004 1.302.028 2.61.16 3.904.12 1.197.354 2.387.608 3.565.471 2.19 1.22 4.295 1.97 6.401a106.678 106.678 0 0 0 2.912 7.303c1.447 3.285 2.988 6.52 4.847 9.593 1.598 2.642 3.163 5.305 4.777 7.937.732 1.193 1.461 2.408 2.349 3.48 2.031 2.458 3.39 4.78 6.43 5.987 2.034.807 3.827 1.88 3.825 4.28-.003 2.714-.012 5.429-.032 8.143a6486.32 6486.32 0 0 1-.12 14.33c-.026 2.76-.064 5.521-.102 8.281-.012.891-.528 1.526-1.12 2.095-.955.917-2.09 1.561-3.33 1.98-1.36.46-2.73.933-4.13 1.236-2.114.458-4.245.862-6.414.994-.83.05-1.659.12-2.488.18" mask="url(#b)"/></g><g transform="translate(84.955 41.52)"><mask id="d" fill="#fff"><use xlink:href="#c"/></mask><path fill="#0D0D0D" d="M112.498 23.744c3.485.794 7.392-1.638 7.757-4.404.098-.742-.154-1.846-.663-2.246-.376-.296-1.697.033-2.13.513-1.673 1.847-3.158 3.865-4.964 6.137M59.571 40.103c-.462 2.233-.912 4.469-1.39 6.699-.193.902-.387 1.81-.68 2.683-1.022 3.044-2.524 5.794-5.996 6.341-3.742.59-6.758-1.125-9.088-3.932-1.612-1.94-2.782-4.26-4.432-6.161-2.026-2.334-2.78-2.26-4.776-.027-7.204 8.057-16.26 9-25.955 6.516-5.84-1.497-8.05-6.282-6.183-12.617 3.043-10.33 9.152-17.854 19.726-21.098 2.563-.787 5.07-1.774 7.658-2.464 2.966-.79 5.392.117 6.495 2.084.904 1.614.526 2.843-1.062 3.62-.805.394-1.728.632-2.622.74-5.409.656-9.923 3.026-13.597 7.055-2.946 3.23-3.672 6.555-2.025 9.216 1.587 2.564 6.038 4.107 9.515 2.75 2.287-.893 4.589-2.3 6.28-4.066 2.526-2.638 4.564-5.762 6.719-8.745.888-1.23 1.662-2.636 3.423-1.925 1.778.719 1.352 2.301 1.133 3.792-.768 5.24.811 9.965 3.59 14.249 1.614 2.486 4.35 2.035 6.172-.713 2.714-4.094 2.706-12.221-.027-16.364-1.776-2.693-3.584-5.366-5.345-8.069-1.986-3.049-1.863-7.535.245-10.462 1.581-2.195 3.478-2.78 6.3-1.947 3.119.92 5.206 3.148 7.055 5.667 5.001 6.815 9.995 13.637 15.3 20.878 1.614-2.55 3.088-4.667 4.345-6.907 3.993-7.114 7.85-14.306 11.877-21.4 1.598-2.815 3.65-5.191 7.368-5.052 1.869.07 3.195 1.012 2.897 2.786-.45 2.673-1.314 5.308-2.287 7.848-.682 1.78-.943 3.362.036 5.065 1.685 2.932 4.487 3.445 6.827.996 2.175-2.277 4.102-4.795 6.16-7.186.547-.635 1.157-1.219 1.773-1.788 4.328-3.996 7.407-1.55 9.613 1.566 3.045 4.3 2.513 12.092-1.174 15.759-3.017 3-6.677 5.146-11.262 5.537.519 3.41 2.83 5.475 5.171 7.38 3.447 2.803 7.563 4.103 11.945 4.223 4.907.135 9.126-3.294 11.216-9.079.75-2.076 1.085-4.329 1.412-6.53.597-4.023 2.057-5.58 5.238-5.307 2.641.228 5.365 3.704 5.436 6.63.074 3.076.225 6.168.63 9.214.57 4.28 3.05 6.679 7.144 7.328 3.5.556 7.493-1.547 9.234-4.78 2.755-5.122 3.462-10.818 4.665-16.386.635-2.942 1.407-5.895 4.109-7.748 2.707-1.858 5.66-1.43 8.36-.312 2.054.85 2.104 3.153 1.794 5.09-.914 5.7-1.976 11.377-2.989 17.06-1.582 8.88-3.092 17.772-4.777 26.631-1.958 10.297-3.633 20.69-7.541 30.48-5.272 13.208-13.753 23.727-25.943 31.198-3.82 2.341-7.41 5-12.02 5.312-1.72.117-3.574.05-5.193-.478-3.37-1.098-4-5.194-1.164-7.334 1.575-1.189 3.363-2.157 5.172-2.955 16.479-7.267 26.201-20.237 30.338-37.46 1.866-7.764 2.458-15.84 3.587-23.779.095-.667-.096-1.38-.187-2.067-.359-2.69-1.054-3.216-3.614-2.76-6.218 1.107-10.652-.867-14.065-6.261-3.327-5.257-3.438-5.23-8.56-1.556-2.911 2.088-5.74 4.576-9.004 5.834-12.582 4.849-25.104-1.186-30.313-14.017-1.878-4.627-4.127-9.108-6.373-13.57-.521-1.035-1.947-2.555-2.56-2.387-1.093.3-2.182 1.564-2.754 2.692-3.134 6.177-5.99 12.499-9.182 18.644-2.013 3.877-4.771 7.197-9.06 8.79-3.074 1.142-4.687.855-6.51-1.922-1.764-2.685-3.069-5.677-4.56-8.542-.382-.734-.708-1.498-1.06-2.25-.21.018-.419.034-.628.05" mask="url(#d)"/></g><mask id="f" fill="#fff"><use xlink:href="#e"/></mask><path fill="#0D0D0D" d="M30.305 12.438c1.258 3.246 2.945 6.053 3.395 9.048 1.472 9.794 2.473 19.658 3.694 29.491 1.137 9.155 2.19 18.325 3.543 27.449.701 4.73 3.2 6.197 7.741 4.628 3.234-1.117 6.377-2.656 9.333-4.395 8.118-4.776 15.525-10.495 21.436-17.924 6.39-8.03 6.724-17.208 1.048-25.146-2.818-3.942-6.486-6.984-10.672-9.339-8.861-4.986-18.266-8.662-28.094-11.216-3.83-.994-7.719-1.761-11.424-2.596m-6.627-.42c-3.74 0-7.568.019-11.395-.008-2.37-.016-4.782.164-7.096-.22C1.63 11.2-.066 9.379.002 6.907c.07-2.573 2.6-4.953 5.678-5.48C17.43-.58 29.096-.423 40.5 3.284c10.256 3.336 20.613 6.505 30.55 10.653 15.056 6.284 23.547 20.309 22.574 36.518-.817 13.616-7.203 24.237-18.55 31.803-8.84 5.894-18.378 10.173-28.856 12.1-5.494 1.011-10.998.956-16.36-.924-1.84-.644-2.426-1.906-1.061-2.986 5.072-4.014 3.566-9.218 2.822-14.25-2.058-13.905-4.243-27.791-6.33-41.692-.617-4.106-1.238-8.222-1.559-12.356-.253-3.266-.05-6.568-.05-10.132" mask="url(#f)"/><path fill="#0D0D0D" d="M104.09 116.36l-5.784 17.145c-2.553.802-3.716-.128-4.324-2.57-.67-2.693-1.796-5.27-2.916-8.446-1.298 3.683-2.343 6.84-3.558 9.928-.225.573-1.13 1.202-1.732 1.214-.73.014-1.94-.427-2.137-.968-1.949-5.367-3.73-10.796-5.572-16.243 3.794-.578 3.794-.577 4.85 2.805.834 2.675 1.673 5.348 2.702 8.634 1.128-3.346 2.276-6.054 2.923-8.879.568-2.483 1.701-3.386 4.255-2.604l3.8 11.55c1.024-3.328 1.86-6.032 2.688-8.739.98-3.207.976-3.209 4.804-2.827M176.766 130.579c2.891-.296 5.723.41 7.447-2.452 1.32-2.192 1.203-4.395-.279-6.356-1.807-2.391-4.475-2.072-7.168-1.94v10.748zm-3.794-14.477c3.043.172 5.944.161 8.794.538 4.5.595 7.317 4.066 7.278 8.59-.038 4.471-2.988 7.975-7.467 8.42-2.783.275-5.615.05-8.605.05v-17.598zM148.5 124.856c1.834-.145 3.474-.03 4.938-.493.749-.237 1.583-1.489 1.632-2.327.04-.697-.896-1.908-1.606-2.1-1.55-.419-3.23-.333-4.963-.462v5.382zm6.907 2.696l3.789 5.769c-3.676.852-3.823.782-5.885-2.336-1.092-1.651-1.916-3.786-4.841-2.63v5.192h-3.812c0-5.506-.028-10.87.055-16.232.007-.43.785-1.21 1.206-1.212 2.818-.006 5.645.042 8.45.293 2.608.234 4.13 1.923 4.564 4.502.427 2.53-.423 4.592-2.583 6.02-.252.166-.502.337-.943.634zM58.9 120.798c-.9 2.222-1.54 3.796-2.254 5.558h4.55l-2.295-5.558m9.216 12.576c-2.676.781-4.361.408-5.036-2.284-.14-.553-1.13-1.105-1.817-1.259-.962-.214-2.02.046-3.014-.075-2.079-.254-3.522.154-4.097 2.514-.58 2.371-2.527 1.219-4.404 1.35 1.859-4.365 3.596-8.447 5.337-12.526.454-1.066.965-2.11 1.361-3.196.448-1.228 1.138-1.756 2.561-1.794 1.498-.04 2.021.669 2.508 1.82 2.15 5.1 4.345 10.182 6.601 15.45M123.883 126.367c-.769-1.908-1.42-3.524-2.24-5.554l-2.32 5.554h4.56zm6.994 7.133c-2.684.65-4.5.338-5.066-2.45-.094-.463-.752-1.132-1.182-1.157a50.127 50.127 0 00-6.1.008c-.423.027-1.054.717-1.158 1.194-.565 2.596-2.195 3.1-4.863 2.377.935-2.201 1.859-4.37 2.777-6.54 1.117-2.638 2.443-5.214 3.286-7.936.828-2.675 2.385-3.345 4.978-2.623l7.328 17.127zM214.309 118.516l-1.587 2.316c-1.533-.486-2.89-1.158-4.293-1.269-.83-.065-1.731.76-2.6 1.183.602.661 1.084 1.559 1.834 1.93 1.23.607 2.633.873 3.964 1.282 2.302.708 3.499 2.37 3.438 4.618-.06 2.205-1.231 3.975-3.487 4.687-3.771 1.192-7.121.298-10.287-2.165l1.826-2.343c1.841.59 3.54 1.353 5.314 1.604.83.118 1.805-.757 2.715-1.182-.65-.722-1.169-1.694-1.982-2.108-1.286-.656-2.771-.93-4.168-1.38-1.904-.614-2.896-1.892-3.064-3.876-.19-2.237.728-3.937 2.626-4.984 2.356-1.301 7.842-.923 9.75 1.687"/></g></svg>