<svg width="171" height="64" viewBox="0 0 171 64" fill="none" xmlns="http://www.w3.org/2000/svg" class="static-logo">
<path class="st-1" d="M1 33.4647L4.85831 33.872" stroke="#000000" stroke-width="0.586883"></path>
<path class="st-1" d="M16.5584 33.339L4.8577 33.8535L1.29297 32.0529" stroke="#000000" stroke-width="0.586883"></path>
<path class="st-1" d="M1.14746 37.6907L20.1035 59.7266L21.2777 62.8991" stroke="#000000" stroke-width="0.586883"></path>
<path class="st-1" d="M37.7793 32.5237L28.9094 35.2889L16.5586 33.3597L36.6469 31.7949" stroke="#000000" stroke-width="0.586883"></path>
<path class="st-1" d="M38.3672 52.3942L33.0201 55.3952L28.9102 35.2885" stroke="#000000" stroke-width="0.586883"></path>
<path class="st-1" d="M33.0195 55.3965L28.5531 61.6557L20.1025 59.7265" stroke="#000000" stroke-width="0.586883"></path>
<path class="st-1" d="M28.9302 61.8044L28.5527 61.6329" stroke="#000000" stroke-width="0.586883"></path>

<path class="st-1" d="M1 33.4666L1.14677 37.6895L6.09546 52.0729L8.69562 54.3665L21.277 62.8979L28.9307 61.8047L36.857 55.2882L38.3668 52.3944L40.2121 45.2134L37.7797 32.5235L36.6474 31.7946L25.8063 28.0648L10.3522 26.6715L4.37601 27.8933L1.31454 32.0519L1 33.4666Z" stroke="#000000" stroke-width="0.586883"></path>
<path class="st-0" d="M16.6901 22.2664H4.42285V0H16.6901C19.5821 0 21.5479 1.9469 21.5479 4.85778V17.3897C21.529 20.2817 19.5632 22.2664 16.6901 22.2664ZM17.7675 5.0468C17.7675 3.93159 17.106 3.27003 16.0286 3.27003H8.20322V18.9396H16.0286C17.106 18.9396 17.7675 18.297 17.7675 17.1818V5.0468Z" fill="#000000"></path>
<path class="st-0" d="M43.9214 22.2666H39.952L38.213 17.0497H29.4615L27.6847 22.2666H23.8477L31.5785 0.000244141H36.1716L43.9214 22.2666ZM30.4633 13.7608H37.1924L33.8278 4.00745L30.4633 13.7608Z" fill="#000000"></path>
<path class="st-0" d="M42.8047 0.000244141H46.7741L52.766 17.56L58.7957 0.000244141H62.6705L54.9397 22.2666H50.5734L42.8047 0.000244141Z" fill="#000000"></path>
<path class="st-0" d="M66.167 0.000244141H81.0616V3.27027H69.9284V9.47008H79.4739V12.7401H69.9284V18.9399H81.0616V22.2477H66.167V0.000244141Z" fill="#000000"></path>
<path class="st-0" d="M96.401 22.2648H92.6206V14.0992L84.5117 0.017334H89.0103L94.5864 10.281L100.238 0.017334H104.491L96.401 14.0992V22.2648Z" fill="#000000"></path>
<path class="st-0" d="M109.305 49.9004H105.336L103.597 44.6835H94.8453L93.0685 49.9004H89.2314L96.9623 27.634H101.555L109.305 49.9004ZM95.8282 41.4135H102.557L99.1927 31.6601L95.8282 41.4135Z" fill="#000000"></path>
<path class="st-0" d="M62.8784 49.9004H58.909L57.1701 44.6835H48.4185L46.6417 49.9004H42.8047L50.5355 27.634H55.1287L62.8784 49.9004ZM49.4014 41.4135H56.1305L52.7659 31.6601L49.4014 41.4135Z" fill="#000000"></path>
<path class="st-0" d="M62.2939 27.634H66.1688L70.2327 44.6457L74.41 27.634H78.0581L82.1787 44.6457L86.2614 27.634H90.004L84.3335 49.9004H80.0806L76.149 34.5332L72.2174 49.9004H67.9645L62.2939 27.634Z" fill="#000000"></path>
<path class="st-0" d="M124.965 41.886L128.651 49.9004H124.53L121.071 41.9805H115.93V49.9004H112.149V27.634H123.774C126.666 27.634 128.632 29.5809 128.632 32.4918V37.1038C128.632 39.6367 127.176 41.4135 124.965 41.886ZM124.87 32.6997C124.87 31.5845 124.209 30.923 123.131 30.923H115.93V38.7105H123.131C124.209 38.7105 124.87 38.0489 124.87 36.9337V32.6997Z" fill="#000000"></path>
<path class="st-0" d="M145.209 49.9004H132.941V27.634H145.209C148.101 27.634 150.066 29.5809 150.066 32.4918V45.0237C150.066 47.9346 148.101 49.9004 145.209 49.9004ZM146.286 32.6997C146.286 31.5845 145.625 30.923 144.547 30.923H136.722V46.5926H144.547C145.625 46.5926 146.286 45.9499 146.286 44.8347V32.6997Z" fill="#000000"></path>
<path class="st-0" d="M170.44 41.9801V45.0422C170.44 47.9719 168.475 49.8999 165.62 49.8999H158.494C155.603 49.8999 153.637 47.953 153.637 45.0422V43.0764H157.417V44.8531C157.417 45.9683 158.079 46.611 159.156 46.611H164.921C165.999 46.611 166.66 45.9683 166.66 44.8531V42.1502C166.66 41.0728 165.999 40.3923 164.921 40.3923H158.457C155.603 40.3923 153.637 38.4454 153.637 35.5345V32.5102C153.637 29.5804 155.603 27.6525 158.457 27.6525H165.583C168.475 27.6525 170.44 29.5993 170.44 32.5102V34.476H166.66V32.6992C166.66 31.584 165.999 30.9225 164.921 30.9225H159.156C158.079 30.9225 157.417 31.584 157.417 32.6992V35.3455C157.417 36.4607 158.079 37.1223 159.156 37.1223H165.62C168.475 37.1223 170.44 39.0503 170.44 41.9801Z" fill="#000000"></path>
</svg>