<svg xmlns="http://www.w3.org/2000/svg" width="389" height="188" viewBox="0 0 389 188"><title>awards / w3</title><g fill="#0D0D0D" fill-rule="evenodd"><path d="M115.104 188c-3.304-.734-6.699-1.192-9.898-2.246-22.203-7.316-35.631-22.52-40.244-45.503-.426-2.122-.625-4.29-.962-6.674h7.282c1.124 14.012 6.839 25.91 17.389 35.133 9.972 8.718 21.915 12.98 35.11 12.09 26.357-1.776 44.613-21.416 47.436-44.107 3.788-30.443-18.029-53.368-43.668-57.141l28.018-72.316H80.765V0h80.67c.022.362-.09.815.085 1.072 2.678 3.931 1.325 7.628-.23 11.578-8.026 20.387-15.88 40.84-23.883 61.505.81.368 1.561.768 2.351 1.06 21.415 7.924 34.545 23.272 38.345 45.636 3.363 19.797-2.8 37.133-17.3 51.192-9.137 8.858-20.076 14.067-32.759 15.487-.329.037-.632.308-.948.47h-11.992zM0 33.173c2.518.085 5.626-.697 7.387.501 1.719 1.17 2.107 4.345 3.002 6.67 10.42 27.058 20.825 54.121 31.229 81.185.124.322.183.668.382 1.412-2.332 0-4.481.186-6.565-.101-.723-.1-1.549-1.27-1.881-2.124-5.772-14.841-11.485-29.705-17.19-44.573C11.237 62.779 6.14 49.403 1.01 36.04.768 35.41.34 34.853 0 34.26v-1.088zM389 66.115c-1.627 2.505-2.792 5.592-4.969 7.405-6.349 5.293-15.599 1.385-18.031-4.89l4.199-3.653c1.178 1.133 2.148 2.345 3.364 3.181 2.944 2.026 6.173 1.417 7.964-1.317 1.742-2.658 1.03-6.531-1.66-8.423-2.627-1.85-5.503-3.365-7.969-5.41-3.866-3.203-5.639-7.415-4.322-12.57 1.136-4.453 4.024-7.073 8.358-8.168 4.618-1.167 9.753 1.533 12.031 6.563l-4.688 3.563c-.792-.982-1.468-2.085-2.387-2.9-1.577-1.398-4.848-1.163-6.118.278-1.446 1.638-1.603 4.93-.012 6.445 1.41 1.341 3.084 2.443 4.773 3.41 4.271 2.447 7.827 5.513 9.467 10.439v6.047zM220.923 45.178c-3.483 9.53-6.648 18.269-9.908 26.97-.279.744-1.116 1.485-1.858 1.744-.32.111-1.343-.914-1.573-1.587-4.5-13.167-8.932-26.359-13.366-39.55-.142-.425-.14-.9-.218-1.436.231-.078.453-.21.68-.218 5.96-.204 5.912-.187 7.69 5.683 2.149 7.088 4.386 14.148 6.601 21.215.102.325.365.599.717 1.155 3.26-8.741 6.407-17.246 9.637-25.719.335-.88 1.164-1.568 1.763-2.345.637.756 1.547 1.41 1.868 2.284 3.079 8.392 6.058 16.82 9.338 25.999.907-2.75 1.61-4.816 2.27-6.895 1.97-6.198 4.094-12.355 5.798-18.626.649-2.39 1.708-3.063 3.907-2.798 1.068.129 2.164.022 3.731.022-.689 2.068-1.275 3.833-1.864 5.596-3.895 11.66-7.77 23.327-11.726 34.966-.302.888-1.174 1.579-1.78 2.362-.683-.782-1.661-1.453-2.004-2.365-3.2-8.531-6.291-17.104-9.703-26.457M332.009 37.705V67.12c6.021.76 11.717.376 14.975-5.304 3.754-6.545 3.234-13.504-.63-19.8-3.271-5.33-8.986-4.356-14.345-4.31zM326 31c5.446.278 10.725.186 15.889.915 5.078.718 9.009 3.747 11.213 8.468 4.18 8.953 3.987 17.748-1.548 26.167-2.605 3.964-6.576 5.963-11.019 6.584-4.72.66-9.541.6-14.535.866V31zM296.91 50.913c3.76.051 7.502.56 9.837-2.984 1.581-2.4 1.585-5.368-.02-7.66-2.383-3.402-6.143-2.927-9.817-2.702v13.346zm-.089 5.785v17.079H291V31c5.385.496 10.731.706 15.957 1.62 1.858.325 3.837 2.044 5.05 3.668 5.136 6.873 1.92 16.685-6.11 19.283-.331.106-.614.36-1.164.694 1.838 2.905 3.635 5.757 5.445 8.603 1.828 2.873 3.667 5.738 5.822 9.108-2.682 0-4.957.086-7.216-.068-.495-.033-1.024-.863-1.383-1.425-3.378-5.298-6.724-10.618-10.08-15.931l-.5.146zM265.721 43.402l-5.088 13.807h9.795l-4.707-13.807M248 73.909c2.376-6.166 4.597-11.878 6.777-17.607 2.96-7.776 5.846-15.582 8.89-23.324.342-.873 1.42-1.784 2.3-1.971.5-.107 1.599 1.106 1.91 1.928 5.037 13.277 9.992 26.586 14.958 39.892.09.24.082.516.165 1.077-1.862 0-3.654.145-5.4-.075-.65-.082-1.447-.904-1.744-1.584-1.086-2.486-1.867-5.114-3.032-7.557-.385-.809-1.555-1.676-2.413-1.728-3.332-.199-6.689-.185-10.023-.003-.778.042-1.845.893-2.19 1.649-.933 2.05-1.752 4.204-2.24 6.403-.545 2.464-1.854 3.239-4.17 2.925-1.06-.144-2.153-.025-3.788-.025"/><path d="M171.552 57.316h9.882l-4.766-13.796-5.116 13.796M194 73.653c-.306.133-.387.197-.472.203-5.996.387-6.003.388-8.175-5.249-.711-1.845-1.379-3.707-2.083-5.606h-13.552l-3.89 10.832H159c2.612-6.88 5.16-13.614 7.724-20.341 2.542-6.665 5.052-13.343 7.705-19.962.397-.99 1.495-1.694 2.269-2.53.792.801 1.95 1.459 2.319 2.425 4.927 12.903 9.745 25.848 14.583 38.786.155.414.24.856.4 1.442M128.996 25.948H81V19h58.477l-27.57 71.777c2.475 0 4.696.008 6.917-.002 12.56-.054 23.5 3.825 32.024 13.308 5.758 6.406 9.138 13.864 9.95 22.524 1.21 12.912-3.011 23.75-12.282 32.656-6.51 6.254-14.37 9.638-23.44 10.539-20.695 2.054-37.671-12.115-41.881-30.664-.374-1.646-.53-3.341-.817-5.196h7.012c.587 2.224 1.052 4.664 1.87 6.98 4.275 12.085 12.792 19.761 25.468 21.56 18.675 2.652 33.359-10.011 36.385-25.552 3.74-19.206-9.128-35.622-26.838-38.386-5.257-.821-10.742-.16-16.12-.292-1.428-.035-3.707-.053-4.11-.835-1.203-2.34-2.87-4.68-1.643-7.794 6.016-15.26 11.874-30.582 17.778-45.885 2.252-5.838 4.478-11.686 6.816-17.79"/><path d="M76.054 74.324c-6.29 15.93-12.357 31.143-18.25 46.418-.69 1.786-1.442 2.398-3.278 2.232-1.643-.15-3.31-.032-5.526-.032L76.044 54 103 122.87h-7.926l-19.02-48.546M46.125 81.456c5.676-14.376 11.237-28.44 16.779-42.51 2.526-6.415 2.51-6.421 10.096-5.527L46.037 102 19 33.41c.546-.11.807-.198 1.071-.21 6.704-.289 6.686-.28 9.078 5.812a28540.143 28540.143 0 0016.13 40.971c.162.411.442.778.846 1.473M99.496 81L81 31.216c7.513-.549 7.52-.55 10.052 6.272 3.767 10.147 7.484 20.314 11.32 30.433.718 1.892.938 3.503.026 5.417-1.078 2.262-1.804 4.706-2.902 7.662M125 105.334c-2.051 5.63-3.962 10.978-5.985 16.28-.224.587-1.062 1.246-1.659 1.294-1.996.162-4.01.061-6.356.061 2.136-5.865 4.13-11.455 6.255-16.988.2-.522 1.229-.968 1.88-.978 1.832-.03 3.668.187 5.865.331"/></g></svg>