<svg xmlns="http://www.w3.org/2000/svg" id="Layer_1" data-name="Layer 1" viewBox="0 0 396 396"><defs><style>.cls-2{fill:#231f20}</style></defs><path d="M93.55 303.88c-.17-.74-.23-1.42-.23-2.04 0-2.27 1.42-3.52 3.52-3.52 2.38 0 3.4 1.65 3.74 4.08l2.84 19h.11l2.89-17.42c.62-3.86 1.36-5.67 3.74-5.67 1.36 0 2.78.74 3.23 3.18l3.86 19.91h.11l2.84-19.35c.4-2.55 1.65-3.74 3.69-3.74 1.82 0 3.23 1.3 3.23 3.46 0 .51-.06 1.02-.23 1.82l-4.65 22.58c-.57 2.89-1.36 4.31-4.65 4.31s-4.31-1.76-4.94-5.16l-2.44-12.76h-.11l-2.61 14.13c-.45 2.44-1.87 3.8-4.6 3.8s-4.03-1.36-4.71-4.65l-4.65-21.96ZM129.75 311.2c0-7.83 1.13-12.88 10.55-12.88 7.21 0 9.64 4.03 9.64 12.08 0 2.78-.34 4.94-3.86 4.94H137v3.12c0 3.69.28 6.58 3.12 6.58 1.48 0 2.61-1.53 2.67-3.18.11-3.01 1.48-3.69 3.4-3.69 2.04 0 3.52.68 3.52 3.4 0 5.56-3.8 8.91-9.42 8.91-9.42 0-10.55-5.05-10.55-12.88v-6.41Zm13.28-.74v-2.55c0-2.33-.74-4.14-3.01-4.14s-3.01 1.82-3.01 4.14v2.55h6.01ZM154.66 292.31c0-2.84 1.36-4.14 3.46-4.14s3.46 1.3 3.46 4.14v9.59h.11c1.25-2.33 3.57-3.57 6.13-3.57 6.24 0 7.38 5.67 7.38 11.97v8.23c0 6.3-1.13 11.97-7.38 11.97-2.61 0-4.88-1.13-6.13-3.57h-.11c0 2.04-1.42 3.57-3.46 3.57s-3.46-1.3-3.46-4.14v-34.04Zm6.92 24.96c0 4.37.74 7.49 3.46 7.49 2.55 0 2.89-2.95 2.89-8.06v-4.03c0-6.75-.62-8.62-2.95-8.62-1.65 0-3.4 1.25-3.4 7.43v5.79ZM199.53 323.17c0 1.99.4 3.63.4 4.6 0 1.82-1.25 2.72-3.46 2.72-1.87 0-3.63-.91-3.63-3.91l-.11.06c-1.25 2.78-3.8 3.86-6.3 3.86-4.08 0-7.15-2.44-7.15-8.23 0-4.65 1.3-7.32 4.94-9.25l6.18-3.23c1.53-.79 2.21-1.93 2.21-3.23 0-1.65-.91-3.06-2.67-3.06-2.38 0-3.12 1.19-3.4 3.63-.17 1.36-1.48 2.21-3.29 2.21-1.53 0-3.63-.74-3.63-2.84 0-5.33 4.31-8.17 9.64-8.17 9.25 0 10.27 4.08 10.27 9.08v15.77Zm-6.92-9.3-2.44 1.7c-3.06 2.16-3.63 3.23-3.63 5.84 0 2.33.96 3.63 2.44 3.63 2.27 0 3.63-2.5 3.63-5.73v-5.45ZM203.56 303.88c-.17-.74-.23-1.42-.23-2.04 0-2.27 1.42-3.52 3.52-3.52 2.38 0 3.4 1.65 3.74 4.08l2.84 19h.11l2.89-17.42c.62-3.86 1.36-5.67 3.74-5.67 1.36 0 2.78.74 3.23 3.18l3.86 19.91h.11l2.84-19.35c.4-2.55 1.65-3.74 3.69-3.74 1.82 0 3.23 1.3 3.23 3.46 0 .51-.06 1.02-.23 1.82l-4.65 22.58c-.57 2.89-1.36 4.31-4.65 4.31s-4.31-1.76-4.94-5.16l-2.44-12.76h-.11l-2.61 14.13c-.45 2.44-1.87 3.8-4.6 3.8s-4.03-1.36-4.71-4.65l-4.65-21.96ZM259.56 323.17c0 1.99.4 3.63.4 4.6 0 1.82-1.25 2.72-3.46 2.72-1.87 0-3.63-.91-3.63-3.91l-.11.06c-1.25 2.78-3.8 3.86-6.3 3.86-4.08 0-7.15-2.44-7.15-8.23 0-4.65 1.3-7.32 4.94-9.25l6.18-3.23c1.53-.79 2.21-1.93 2.21-3.23 0-1.65-.91-3.06-2.67-3.06-2.38 0-3.12 1.19-3.4 3.63-.17 1.36-1.48 2.21-3.29 2.21-1.53 0-3.63-.74-3.63-2.84 0-5.33 4.31-8.17 9.64-8.17 9.25 0 10.27 4.08 10.27 9.08v15.77Zm-6.92-9.3-2.44 1.7c-3.06 2.16-3.63 3.23-3.63 5.84 0 2.33.96 3.63 2.44 3.63 2.27 0 3.63-2.5 3.63-5.73v-5.45ZM264.95 302.07c0-2.27.96-3.74 3.23-3.74s3.23 1.47 3.23 3.74v2.89h.11c1.02-3.86 2.78-6.64 5.16-6.64 1.87 0 3.4 1.36 3.4 4.48 0 2.1-1.08 4.14-4.31 4.14-2.16 0-3.91 1.48-3.91 4.2v15.2c0 2.84-1.36 4.14-3.46 4.14s-3.46-1.3-3.46-4.14v-24.28ZM282.14 310.29c0-6.3 1.13-11.97 7.38-11.97 2.55 0 4.88 1.25 6.13 3.57h.11v-9.59c0-2.84 1.36-4.14 3.46-4.14s3.46 1.3 3.46 4.14v34.04c0 2.84-1.36 4.14-3.46 4.14s-3.46-1.53-3.46-3.57h-.11c-1.25 2.44-3.52 3.57-6.13 3.57-6.24 0-7.38-5.67-7.38-11.97v-8.23Zm7.26 6.41c0 5.11.34 8.06 2.89 8.06 2.72 0 3.46-3.12 3.46-7.49v-5.79c0-6.18-1.76-7.43-3.4-7.43-2.33 0-2.95 1.87-2.95 8.62v4.03ZM59.27 102.17c-1.42-4.86-1.89-9.35-1.89-13.47 0-14.96 11.8-23.2 29.26-23.2 19.82 0 28.31 10.85 31.14 26.94l23.59 125.33h.94l24.07-114.86c5.19-25.44 11.33-37.41 31.14-37.41 11.33 0 23.12 4.86 26.9 20.95l32.09 131.32h.94l23.59-127.58c3.3-16.84 13.68-24.69 30.67-24.69 15.1 0 26.9 8.6 26.9 22.82 0 3.37-.47 6.73-1.89 11.97l-38.69 148.9c-4.72 19.08-11.32 28.43-38.69 28.43s-35.86-11.6-41.05-34.05L198 159.39h-.94l-21.71 93.16c-3.77 16.09-15.57 25.07-38.22 25.07s-33.5-8.98-39.17-30.68L59.27 102.17Z" class="cls-2"/><path fill="none" d="M0 0h396v396H0z"/></svg>