<svg width="157" height="17" xmlns="http://www.w3.org/2000/svg"><g fill="#0D0D0D" fill-rule="evenodd"><path d="M7.3 8.997v7.517H1.926c-1.067 0-1.926-.9-1.926-2.01V8.997h7.3zM8.304 8.997h7.324v5.507c0 1.11-.862 2.01-1.929 2.01H8.304V8.997zM8.304 7.946V.425h5.412c1.065 0 1.93.898 1.93 2.008v5.513H8.304zM7.408 7.829S7.276.128.248.664l-.066.01c-.207 7.337 7.19 7.138 7.19 7.138l.036.017zM21.332 16.57h4.671c2.254.022 4.967.022 6.894-.95 1.896-.948 2.94-2.323 2.94-4.005 0-2.75-3.43-3.603-5.978-3.724 2.873-.52 5.164-1.967 5.164-4.194 0-2.444-2.485-3.272-7.286-3.272h-6.405v16.144zm2.871-15.268h2.419c3.433 0 5.554.64 5.554 2.889 0 1.285-.913 2.328-2.514 2.87-1.766.593-3.59.5-5.459.5V1.302zm0 7.136h1.831c3.954 0 6.764.78 6.764 3.576 0 2.16-2.285 3.677-5.487 3.677h-3.108V8.438zM40.957 16.575c.475-.018.983-.069 1.49-.069.479 0 .954.05 1.496.069V.425c-.542.024-1.017.071-1.496.071-.507 0-1.015-.047-1.49-.071v16.15zM70.57 8.372c.229 2.629-2.279 7.844-9.248 7.844-4.922 0-9.02-2.537-9.02-7.387 0-4.854 3.504-8.04 9.316-8.04 2.643 0 5.219.815 6.872 2.321 1.718 1.605 2.08 3.277 2.08 5.262M61.223 17c7.365 0 12.584-3.488 12.584-8.821C73.807 2.44 67.5 0 61.29 0c-6.84 0-12.227 3.305-12.227 8.54 0 5.114 4.859 8.46 12.161 8.46M81.389.425c-.528.024-.987.072-1.443.072-.495 0-.99-.048-1.446-.072v16.15h11.946c-.033-.235-.098-.475-.098-.713 0-.237.065-.447.098-.712-1.048.096-2.068.192-3.118.213-1.97.052-3.936.143-5.94.095V.425zM105.541 0h-.773L94.285 16.575c.372-.018.74-.07 1.173-.07.403 0 .777.052 1.248.07.94-2.224 2.149-4.312 3.326-6.4h8.528c1.344 2.156 2.553 4.433 3.527 6.4.575-.018 1.144-.07 1.783-.07.57 0 1.108.052 1.747.07L105.54 0zm2.52 9.18h-7.393l3.66-6.069 3.732 6.068zM137.891 3.233c.234-.626.465-1.243.764-1.845-.727-.332-3.507-1.388-8.431-1.388-7.345 0-12.9 2.942-12.9 8.54 0 4.851 3.837 8.46 12.203 8.46 3.075 0 6.117-.378 8.994-1.096V9.137c-.532.027-.993.071-1.451.071-.502 0-.993-.044-1.458-.071v6.144c-1.52.574-3.373.813-5.163.813-6.508 0-9.884-2.942-9.884-7.676 0-4.829 3.902-7.506 9.523-7.506 2.812 0 5.588.789 7.44 2.32h.363zM147.968 1.54h2.549l3.306.05c.992.044 1.983.116 2.98.257-.035-.237-.105-.476-.105-.712 0-.238.07-.453.106-.71h-11.75v16.15H157c-.033-.235-.1-.475-.1-.713 0-.236.067-.447.1-.711-1.027.121-2.02.19-3.043.212-1.987.052-3.976.144-5.989.095V8.536h5.127c.991 0 1.95.094 2.947.12-.037-.263-.101-.478-.101-.668 0-.211.064-.425.1-.614-.996.022-1.955.117-2.946.117h-5.127v-5.95z"/></g></svg>