<svg xmlns="http://www.w3.org/2000/svg" width="200" viewBox="0 0 581.71 124.49"><title>Champion logo</title><path d="M123.76 69a123.79 123.79 0 0 1-28.94 9c-9 1.63-7.81 1-7.88-3.21-.27-18.22.62-36.45.11-54.67-.14-4.8 0-4.58 4.57-4.09a101.54 101.54 0 0 1 27.21 7.24c1.76.72 9.27 5.63 4.87-2.16C114.2 4.41 84.27.55 74.3.11c-61.38-2.65-91.82 43-63.83 73.59q15.85 17.3 44.28 21a91.22 91.22 0 0 0 24.1.12 88.54 88.54 0 0 0 18.33-4c14.94-5.29 25.68-14.08 30.83-21.48 3.76-5.34-1.31-1.69-4.25-.34zm-76.32 8a1.7 1.7 0 0 1-.55 1.46c-.78.59-8.75-.63-12.92-2-5.29-1.87-15.96-7.46-20.55-18.28a31.86 31.86 0 0 1-2-14.38c2.59-16.09 17.33-25.53 31.35-27.72a5.85 5.85 0 0 1 3.24-.38c1.51.25 1.5.88 1.58 2.23zM581.1 57c-3.06-3-8.16 4.19-12 6.26-10.13 5.44-15.7-14.9-19.76-17.46q-4.5-2.88-13 6.71L531.46 58c-1.92 2.17-3.28-5.68-4.75-8.81-1.1-2.31-2-3.72-2.89-4.2-2.75-1.58-18.58 4.2-28 4.69l-7.34.4c-2.35.14.52 4 1 6.85 1 6.27-1.06 12.64-4.3 13.62-5.69 1.72-7.32-9-6.84-12.83 1.18-9.34 9.58-10.77 10.14-11.26 1.6-1.38 0-2.79-3.7-3.27-13.93-1.79-18.58 15.42-34 25.27-11.9 7.6-8.48-2.14-8.89-8.06-1-14 4-15-11.52-14.42-1.16 0-4.72-.48-5.78 2.49-1.65 4.64 1.3 5.14-2.42 10.19q-6.8 9.32-14.75 11.42c-7.94 2.11-4.31-2.51-3.58-5.23a28.68 28.68 0 0 0 1-5.64c.45-6.47-6.71-13.94-18.37-12-10.27 1.79-18.06 12.28-18.39 12.53s-.37.44-.61.44h-.27c-.17 0-.23-1.49-.19-4.48.11-7 .92-8.7-4.34-9-6.17-.34-6.46 1-7.48 2.42-1.71 2.38-2.72 5.37-4.3 7.89q-6.76 10.76-9.92 9.33c-1.32-.59-14.58-18.28-17.28-19-2.43-.63-4.64.48-6.61 3.31l-8.68 12.47c-.71 1-1.58.75-2.6-.82l-8.28-12.52c-1.54-2.31-6.16-4.28-9.82 1l-8.69 12.66c-.54.79-1.27.54-2.17-.77L267.01 49a4.32 4.32 0 0 0-4.82-1.22c-2.26 1-8.08 8-13.29 13.23-1.9 1.89-3.57 4.13-5.54 5.91a4.69 4.69 0 0 1-.72.63c-1.86 1.07-3.59-3.51-5.18-5.78-3.13-4.43-5.34-6.86-6.58-7.3-5.94-2.07-5.18 8.16-6.24 11.7-2.43 8.17-12 9-12.06.24-.06-10 11-14.33 11.61-14.77.94-.73 2.6-2.79-1-3.2q-10.18-1.18-22.18 8.27l-13.32 10.46c-5.92 4.64-10.19-12.2-11.83-15-.76-1.31-2-4.72-6.19-3.57-1.78.48-4.69 2.9-8.7 7.23l-6.83 7.39c-.48.52-.92.39-1.28-.37s-.72-6-1-15.59c-.16-5.92.13-11.85-.18-17.76a64.8 64.8 0 0 1-.07-11c0-.68.12-1.35.11-2 0-2.62-1.77-2.13-6.07-2.23-4-.1-6.94-.79-7.06 2.18l-1 25.66q-.93 24.68 1.61 33.87c1.31 4.79 3.27 7.4 5.83 7.88 7.4 1.35 14-11 15.12-12.4 1-1.14 2-2.79 3.76-.28 1.23 1.75 2 3.93 3.11 5.75 4.37 6.91 5.88 6.95 10.28 6.82 7.71-.21 15.45-9.44 17.2-10.51 2.24-1.38 2 1.41 2.36 2.66 1.86 6 8.78 10.33 16.82 8.26 10-2.58 10.24-8.68 13.31-7.47 2 .77 4.54 8.79 9.81 8 3-.44 10.07-7.8 14.49-11.63 3.17-2.75 5-4.3 5.59-4.69 3-2 3.36 2.83 10.43 12 2.58 3.34 5.4 6.62 11.47-.55l9-10.71c2-2.41 4.73 5.14 11.16 12.64a10.75 10.75 0 0 0 1.26 1.39c2 1.65 4.84.11 8.41-4.64l7.17-9.5c.61-.82 1.46-.65 2.54.51 4.18 4.45 9.14 13.53 13.16 14q5.46.57 15-8.36l6.1-5.72c2-1.82.58 4.26 1.36 17q.38 6.29.16 14.66a123.06 123.06 0 0 0 1.48 22.51c1.1 1.65 8.17.64 9.51.27 3.13-.87 2.41-3.78 2.39-9 0-3.48-.3-7-.31-10.43 0-1.79.11-3.57.06-5.36q-.45-21.21 7.9-32.64c3.9-5.36 8.41-7.29 9.18-7.47 3-.68 4.71.21 5.22 2.71.77 3.85 0 7.06-2.25 9.64-3.27 3.68-4.76 2.17-7.69 2.13q-3 0 0 3c7.83 8.12 19.11 6 20.58 5.74 13.37-2 21.42-12.78 23.08-13.15s-.83 8.23 4.85 11.3c6.35 3.44 21.21 1.76 29.19-6l5.07-5c2.07-2 .39 5.36 9.84 11.21 11 6.83 30.49 1.47 31-16.48.17-5.19-3.59-7.72 1.06-8.75 7-1.55 4.76-.59 10.82 14.16 1.63 4 2.69 6.38 3.13 7.32 1.13 2.23 2.34 5.48 5.52 4.65 4.17-1.08 11.65-10.89 12.29-11.85l4-5.86q.65-1 1.84.68l11 15a5.14 5.14 0 0 0 4.61 2q3.34-.11 8.21-3.71 8.66-6.43 12.78-12.25c3.08-4.38 4-7.21 2.64-8.46zm-225.52 66.59z"/><path d="M429.54 40.12c2.26.66 11.45.88 12.58-7S432.01 21 425.69 26.71c-3.6 3.23-4.63 10.91 3.85 13.38zM567.59 40c3.16 0 5.78-3 5.78-6.78s-2.6-6.75-5.76-6.75-5.81 3-5.81 6.78 2.57 6.75 5.79 6.75z"/><path fill="#fff" d="M567.61 39c-2.7 0-4.87-2.53-4.87-5.68s2.17-5.73 4.86-5.73 4.89 2.56 4.89 5.71-2.18 5.7-4.88 5.7z"/><path d="M565.01 37h1.35v-3h1.3c.59 0 1.19.55 1.19 1.8a4.28 4.28 0 0 0 .16 1.2h1.24c-.16-.76 0-1.55-.14-2.32a1.54 1.54 0 0 0-1-1.33 1.85 1.85 0 0 0 1.28-1.92 2 2 0 0 0-1.88-2.12h-3.5V37z"/><path fill="#fff" d="M566.38 32.89v-2.22h1.63a1.14 1.14 0 0 1 0 2.24h-1.72z"/></svg>