<?xml version="1.0" encoding="utf-8"?>
<!-- Generator: Adobe Illustrator 24.2.3, SVG Export Plug-In . SVG Version: 6.00 Build 0)  -->
<svg version="1.1" id="Layer_1" xmlns="http://www.w3.org/2000/svg" xmlns:xlink="http://www.w3.org/1999/xlink" x="0px" y="0px"
	 width="81.5px" height="73.9px" viewBox="0 0 81.5 73.9" style="enable-background:new 0 0 81.5 73.9;" xml:space="preserve">
<path d="M71.6,2.1c0,1.1-0.8,2-1.9,2.1c0,0-0.1,0-0.1,0c-0.5,0-1.1-0.2-1.5-0.6c-0.4-0.4-0.6-0.9-0.6-1.5c0-0.5,0.2-1.1,0.6-1.5
	c0.8-0.8,2-0.8,2.8-0.1c0,0,0.1,0.1,0.1,0.1C71.4,1,71.6,1.5,71.6,2.1L71.6,2.1z M71.1,2.1c0-0.4-0.2-0.8-0.5-1.1
	c-0.3-0.3-0.7-0.5-1.1-0.5c-0.4,0-0.8,0.2-1.1,0.5C68.2,1.3,68,1.7,68,2.1c0,0.4,0.2,0.8,0.5,1.1c0.3,0.3,0.7,0.5,1.1,0.5
	c0.4,0,0.8-0.2,1.1-0.5C71,2.9,71.2,2.5,71.1,2.1L71.1,2.1z M69.8,3.2V2.8c0-0.1,0-0.3-0.1-0.4c0-0.1-0.1-0.2-0.2-0.2h-0.2v1h-0.5V1
	h0.9c0.2,0,0.4,0,0.5,0.1c0.1,0.1,0.2,0.2,0.2,0.3v0.2c0,0.1,0,0.2-0.1,0.3C70.2,2,70.1,2,70,2.1c0.1,0.1,0.2,0.2,0.3,0.3
	c0.1,0.1,0.1,0.3,0.1,0.4v0.4H69.8z M69.9,1.6L69.9,1.6c0-0.1,0-0.2-0.1-0.2c0,0-0.1-0.1-0.2-0.1h-0.3v0.6h0.3c0.1,0,0.1,0,0.2-0.1
	C69.9,1.8,69.9,1.7,69.9,1.6L69.9,1.6z M58,37.1c0.2-0.1,0.2-0.5,0.2-0.8c0.2-1.7-0.6-3.1-2.2-3.1c-1.3,0.1-2.4,0.8-3,1.9
	c-0.3,0.6-0.4,1.3-0.4,2v0.2h2.5C57.3,37.4,57.8,37.3,58,37.1z M33.6,38.3c-0.4,0.1-0.8,0.2-1.1,0.3c-1.7,0.5-2.5,1.5-2.5,2.6
	c0,0.9,0.8,1.7,1.7,1.7c0,0,0,0,0.1,0c0.6-0.1,1.2-0.3,1.7-0.7c0.3-0.4,0.4-0.8,0.4-1.3l0.1-2.2C33.9,38.3,33.8,38.3,33.6,38.3z"/>
<path d="M81.3,50.2c-4.2-5.6-8.5-11.3-8.5-24.6c0-10.9-5.8-19.2-8-22.4c-0.6-0.8-1-0.6-1.5-0.3c-6.4,4-17.3,9.4-29.4,10.7
	C21.4,15,14.6,15.5,0.6,25.1c-0.5,0.2-0.7,0.8-0.5,1.2c0,0.1,0.1,0.2,0.2,0.3c2.4,3.5,8,11.2,8,21.5c0,13.7,4.1,19.8,8.5,25.5
	c0.3,0.4,0.9,0.5,1.4,0.1c14.5-9.3,21-10.2,33.7-11.7c12.1-1.4,23.8-6.2,29.4-10.6C81.5,51.1,81.6,50.6,81.3,50.2z M27.3,43.7
	c-0.9,0-2.1-0.1-2.9-0.1s-1.8,0-2.6,0.1c-0.1-0.2-0.1-0.4,0-0.6l0.6-0.1c1.2-0.2,1.1-0.5,1.2-2.8v-3.3c0-0.7,0-0.7-1-0.7h-5.3
	c-0.9,0-1,0-1,0.7v3.3c0,2.4,0.1,2.7,1.2,2.8l0.6,0.1c0.1,0.2,0.1,0.4,0,0.6c-1,0-1.7-0.1-2.5-0.1s-2,0-2.8,0.1
	c-0.1-0.2-0.1-0.4,0-0.6l0.6-0.1c1-0.2,1.1-0.5,1.1-2.8v-8.2c0-2.4-0.1-2.8-1.1-2.9h-0.5c-0.1-0.2-0.1-0.4,0-0.6
	c0.9,0,1.9,0.1,2.7,0.1c0.8,0,1.7,0,2.5-0.1c0.1,0.2,0.1,0.4,0,0.6h-0.6c-1.1,0.1-1.2,0.5-1.2,2.9v2.6c0,0.7,0,0.7,1,0.7h5.3
	c0.9,0,1,0,1-0.7v-2.6c0-2.4,0-2.7-1.2-2.9h-0.6c-0.1-0.2-0.1-0.4,0-0.6c0.9,0,1.8,0.1,2.6,0.1s2,0,2.8-0.1c0.1,0.2,0.1,0.4,0,0.6
	h-0.7c-1,0.1-1,0.5-1,2.9v8.2c0,2.4,0,2.7,1.2,2.8l0.7,0.1C27.5,43.2,27.4,43.6,27.3,43.7L27.3,43.7z M50.7,43.7
	c-0.8,0-1.6-0.1-2.6-0.1s-1.8,0-2.5,0.1c-0.2-0.2-0.2-0.5-0.1-0.7c0,0,0,0,0,0l0.5-0.1c1-0.2,1-0.4,1-2.4v-4.1
	c0-1.6-0.7-2.7-2.6-2.7c-0.9,0-1.7,0.3-2.3,1c-0.3,0.5-0.5,1.1-0.4,1.7v4.2c0,2,0.1,2.2,1,2.4l0.5,0.1c0.2,0.2,0.1,0.5-0.1,0.7
	c0,0,0,0,0,0c-0.7,0-1.5-0.1-2.5-0.1s-1.8,0-2.6,0.1c0,0-0.1-0.1-0.1-0.1c-0.6,0.3-1.3,0.4-2,0.4c-0.7,0-1.4-0.3-1.8-0.9
	c-0.1-0.2-0.3-0.4-0.4-0.4c-0.4,0.1-0.8,0.3-1.1,0.5c-0.6,0.4-1.3,0.6-2,0.7c-0.7,0-1.4-0.2-2-0.6c-0.6-0.5-0.9-1.2-0.9-1.9
	c0-1.1,0.5-2.1,2.3-2.8l3.4-1.2c0.4-0.1,0.4-0.4,0.5-0.8v-0.8c0-1-0.3-2.7-2-2.7c-0.9,0-1.6,0.6-1.8,1.5c0,0.2,0,0.4,0,0.6L28,36
	c0-0.1,0-0.1,0-0.2c0-2.2,3.1-3.4,5.2-3.4s3,1.2,2.9,3.2l-0.2,4.8c0,1.3,0.2,2.7,1.3,2.7c0.3,0,1-0.1,1.1-0.1l0.4-0.1
	c1-0.1,1-0.4,1-2.4v-4.8c0-1.1-0.5-1-1.3-1.5l-0.2-0.2c-0.1-0.1-0.1-0.4,0-0.5c1.1-0.2,2.2-0.6,3.3-1c0.1,0,0.2,0.1,0.3,0.2
	c0,0.2-0.1,0.5-0.1,0.8c0,0.2,0.1,0.3,0.3,0.3c0,0,0,0,0,0c1.1-0.8,2.4-1.3,3.8-1.4c2.3,0,3.2,1.6,3.2,3.4v4.7c0,2,0,2.3,1,2.4
	l0.6,0.1C50.8,43.2,50.8,43.5,50.7,43.7L50.7,43.7z M56.1,44c-1.5,0-3-0.6-4-1.8c-0.8-1-1.2-2.3-1.2-3.6c0-4,2.5-6.2,5.6-6.2
	c2.4,0,3.9,2.4,3.9,4.8v0.8h-7.6c-0.1,2.7,1,5,4.3,5c1.2,0,2.4-0.3,3.4-0.9l0.1,0.7C59.2,43.6,57.6,44,56.1,44L56.1,44z M64.9,44
	c-1.1,0.1-2.2-0.2-3.1-0.8l-0.3-2.8c0.2-0.2,0.5-0.2,0.7,0c0.5,1.5,1.5,3.2,3.1,3.2c1,0,2.5-0.8,2.5-2s-1.7-2.1-2.8-2.6
	c-1.7-0.9-2.9-1.9-2.9-3.4c0-2,0.9-3.1,4-3.1c0.9,0,1.8,0.1,2.6,0.5v2.2c-0.2,0.2-0.5,0.2-0.7,0.1c-0.5-1.2-0.4-2.3-2.4-2.3
	c-1,0-1.9,0.8-1.9,1.8c0,0,0,0,0,0.1c0,1.1,1.5,1.9,2.5,2.4c1.6,0.8,3.2,1.6,3.2,3.8C69.3,43.1,67,44,64.9,44L64.9,44z"/>
</svg>
