<svg xmlns="http://www.w3.org/2000/svg" width="520.3" height="49.1" overflow="visible"><path d="M28.1.5h15.8L24.5 23.1l21.1 25.2H29.2L12.8 27.6h-.1v20.7H0V.5h12.7v19.7h.1L28.1.5z"/><path d="M57.9 11v8h14.3v10.5H57.9v8.3H73v10.5H45.2V.5H73V11H57.9zM89.7 21.9h1.2c4.1 0 8.8-.8 8.8-6s-4.7-6-8.8-6h-1.2v12zm27.9 26.4h-15.8l-12-18.4h-.1v18.4H77V.5h19c9.7 0 17 4.5 17 14.7 0 6.6-3.8 12.3-10.7 13.5l15.3 19.6z"/><path d="M142.4 15.3h-.1L137 30.5h10.5l-5.1-15.2zM133.5 40l-3.4 8.3h-13.5L135.4.5h13.9l18.4 47.8h-13.5L151 40h-17.5zM183.3 48.3h-12.7V11h-10.5V.5h33.7V11h-10.5v37.3zM195.8.5h12.7v47.8h-12.7V.5zM212.9.5h12.7l23.3 29.2h.1V.5h12.7v47.8H249L225.8 19h-.2v29.3h-12.7V.5zM299.3 10.1c-3.1-2.9-7.2-4.5-11.3-4.5-9.6 0-16.9 8.6-16.9 18.7 0 10 7.2 18.6 16.7 18.6 4.2 0 8.2-1.7 11.4-4.7v6.7c-3.3 2.1-7.5 3.2-11.2 3.2-12.2 0-22.2-10.4-22.2-23.7 0-13.6 10.1-24.1 22.7-24.1 3.7 0 7.5 1 10.7 3.1v6.7M358.6 17.7h-.1l-5.1 30.4h-5.5L356.7 0l14.7 36.4L386.2 0l8.7 48.1h-5.5l-5-30.4h-.1l-12.9 31.4-12.8-31.4zM404.1 22.9h1.8c5.6 0 11.7-1.1 11.7-8.7 0-7.5-6.6-8.3-12-8.3h-1.5v17zm0 25.2h-5.5V.5h6.3c13.6 0 17.8 5.1 17.8 13.8 0 10-7.1 13.9-15.5 13.9H404v19.9M432.2 42.7h13.4v5.4h-18.9V.5h5.5v42.2zM449.7.5h23.7V6h-18.2v13.3h17.7v5.4h-17.7v18h18.2v5.4h-23.7V.5zM477.7.5h6.3l9 17.4L502.7.5h6.2l-12.7 22.7 13.4 24.9h-6.1L493 28.6l-10.8 19.5H476l13.9-24.9L477.7.5zM337.7 24.8c0 7.3-5.7 13.2-12.8 13.2s-12.8-5.9-12.8-13.2 5.7-13.2 12.8-13.2 12.8 5.9 12.8 13.2"/><path d="M324.9 43.9c-10.5 0-19-8.7-19-19.4s8.5-19.4 19-19.4 19 8.7 19 19.4-8.5 19.4-19 19.4m0-43.4c-13 0-23.4 10.7-23.4 24 0 13.2 10.5 24 23.4 24s23.4-10.7 23.4-24-10.5-24-23.4-24M515.4 43c.6 0 1.7.1 1.7-.7 0-.5-.7-.6-1.2-.6h-1.4V43h.9zm2.4 3h-.9l-1.5-2.3h-.9V46h-.7v-5.1h2.2c.9 0 1.8.2 1.8 1.3 0 1-.7 1.4-1.6 1.4l1.6 2.4zm1.7-2.5c0-2.2-1.8-3.9-3.9-3.9s-3.9 1.7-3.9 3.9 1.8 3.9 3.9 3.9 3.9-1.7 3.9-3.9m-8.6 0c0-2.6 2.1-4.6 4.7-4.6s4.7 2.1 4.7 4.6c0 2.6-2.1 4.6-4.7 4.6s-4.7-2-4.7-4.6"/></svg>