<svg xmlns="http://www.w3.org/2000/svg" width="97.1" height="69.5" viewBox="0 0 97.1 69.5"><path d="M43.5 47.6s0 .1.1.2l.1-.1c.1.2.1.2.1.4.1 0 .2 0 .2.2-.2.1-.1.2 0 .3v.1l.1.1c0 .1.1.1.2.2.3.2.4.4.6.7-.1.1.1.2.2.3.2.2.3.4.3.7.1 0 .3.1.4.1-.1.1 0 .2 0 .2.1.1.2.1.2.3 0 .1.1.2.2.3 0 0 0-.1-.1-.1.2.1.4.2.7.3.2.1.4.2.7.2v-.2c.2.2.5.2.7.3V52c.2 0 .3.3.6.2l.1.1h-.1c.2.1.2.1.4.1-.1 0-.1-.1-.2-.1v-.1h.3c.1-.1.2-.1.3-.1 0 .1 0 .1.1.2.2 0 .4 0 .6-.1.1 0 .2.1.2.1 0 .1 0 .1.1.2v.1c0 .1 0 .1.1.1s.2 0 .3.1h.9c.2-.1.4-.2.5-.3s.2-.1.3-.2c0 0 .1 0 .1.1v.1h.5v-.1h.2c0 .1.1.1.1.1.2-.1.4-.2.6-.2l.1.1c.1 0 .2-.1.3-.1.2 0 .2-.1.3-.2.1 0 .2.1.2.1.1-.1.1-.2.2-.2.2 0 .3-.1.5-.1s.4 0 .5-.2h.1c.2-.1.4-.1.6-.2 0 .1.1.1.1.2 0-.3.3-.3.4-.4l.6-.3.1-.1h-.6c-.2 0-.4 0-.5-.2l-.1.1h.5c-.2 0-.5 0-.8.1.1-.1.1-.1.1-.2l-.2-.2c.1-.1.2-.1.3-.2-.2 0-.4-.1-.5-.1h-.5c-.5 0-.9-.1-1.4-.2-.2 0-.5 0-.7-.1s-.5-.2-.7-.2c-.1 0-.2-.1-.3-.2-.1-.2-.3-.3-.5-.4-.1-.1-.2-.1-.3-.2-.1-.1-.2-.1-.3-.2.1-.2-.2-.1-.2-.2v-.1c.2.2.5.1.6.3h.1c.2.1.3.1.5.2.1 0 .2.1.3.1-.1-.3-.3-.4-.6-.5-.1-.1-.3-.1-.3-.3H52v.1l-.1-.1h.1c-.2-.2-.4-.3-.5-.5h.1c-.2-.2-.5-.4-.6-.6-.1-.2-.4-.4-.5-.7.1 0 .1.1.2.1-.2-.4-.3-.7-.4-1.1l.3.3c-.1-.3-.4-.5-.4-.9.1.1.2.2.2.3 0-.1 0-.1-.1-.2.3.2.5.4.8.6-.1-.2-.1-.3-.2-.5h.1c.1.2.3.4.4.5l.3.3c-.1-.2-.2-.3-.3-.5 0-.1-.1-.2 0-.2s.1 0 .2-.1c.1.1.1.2.2.3v-.2c.1-.1.2-.1.3-.1 0-.1-.1-.2-.2-.3.1-.1.2-.2.4-.2v.2c.1 0 .2-.1.3-.1h.1c.1.1.2 0 .2-.1s.1-.2.1-.3.1-.2.2-.2.1-.1.2-.1v.1c0 .1.1.1.2 0 0-.1.1-.1.1-.2v-.1c.3-.3.3-.3.4-.5-.1 0-.1.1-.2.1-.1-.1-.2 0-.2.1h-.1c0-.2.1-.3.3-.4 0 0 .1 0 .1-.1.1-.2.2-.3.4-.4.2-.1.3-.3.5-.3 0 0 0-.1.1-.1h-.1c.1-.3.1-.4.4-.4 0 .1-.1.1-.2.2h.2c0-.2 0-.4.1-.5.1.1.2.1.2 0s.1 0 .1 0 0 .1.1.1v.1c.1-.1.1-.1.1-.2V41l.3-.3c-.1 0-.1 0-.2.1v-.2h-.1c-.1.1 0 .3-.2.3-.1-.1 0-.2 0-.2.1-.1.1-.2 0-.3h-.3c0-.1.1-.1.1-.2.2-.2.3-.5.5-.8v.1c.1-.1.1-.2.1-.2 0-.1.1-.2.1-.2.1 0 .1 0 .2.1v.2c-.3.2-.4.3-.3.4.1 0 .2-.1.2-.1.1-.1.3-.3.3-.5v-.3c-.1 0-.1.1-.2.1.1-.3.3-.4.4-.7 0 0 .1 0 .2-.1-.1.1-.1.2-.1.3 0 .2-.1.3-.1.5h.1c0-.1 0-.3.1-.4 0 0 0 .1.1.1l.2-.2c.1-.1.1-.2 0-.3h.2c.3-.3.4-.8.5-1.2.2-.2.2-.2.3-.1-.2.2-.3.6-.4.9 0 .1.1.2.1.2-.1.1 0 .2.1.2v.1s-.1 0-.1.1c0-.1 0-.1-.1-.2l-.3.3c0-.1-.1-.1-.1-.2-.2 0-.3.1-.3.3 0 .1 0 .2.2.2l.1-.1c.1.1 0 .2 0 .2s-.1.1-.1.2v.1l.2-.2v.1l-.2.2c0 .2-.1.2-.3.3.1-.1.1-.2.2-.4-.1.1-.3.1-.4.2 0 .1-.1.2-.1.2-.1.1-.1.2-.1.3 0 .2 0 .3-.1.5v.2c.1-.1.2-.1.2-.3 0 0 0-.1.1-.1s.1 0 .1-.1 0-.1-.1-.2-.1-.1 0-.2.1-.2.2-.1c0 .1-.1.1-.2.2.1.1.2 0 .3 0v-.1l.1-.1s.1 0 .1-.1c-.1.1-.1.2-.2.3h.1c.1-.1.1-.1.1-.2l.1-.1c-.1-.1 0-.2.1-.2.1-.1.2-.3.3-.4 0-.1.1-.2.2-.3.1.1.2.1.3.1.2-.2.1-.5.4-.5.1-.3.1-.5.2-.7.2-.4.2-.8.1-1.1 0-.2-.1-.4-.2-.6 0-.1 0-.2-.1-.3v.2c-.1-.3-.1-.3 0-.5 0 .2.1.2.2.1 0 0 .1 0 .1-.1 0-.2-.3-.2-.1-.4h-.2c0-.2-.1-.3-.2-.5-.1-.1-.1-.1-.1-.2 0-.2 0-.4-.2-.6-.1-.2-.3-.3-.4-.5-.1-.1-.2-.3-.3-.2-.2-.1-.5-.2-.7-.3s-.3-.2-.4-.3c-.1-.1-.2-.1-.3-.2-.1-.1-.3-.1-.4-.2-.2-.1-.3-.1-.5-.2s-.4-.1-.7-.2v.1c-.3 0-.6.1-.6.2-.1 0-.3-.1-.4 0-.3 0-.7 0-1 .2h-.1c-.3 0-.6.1-.9.2.2.1.5-.1.7.1.1-.1.2-.1.3-.1.3-.1.6-.1.9-.2v.1c-.1 0-.3.1-.4.1-.1 0-.1 0-.1.1-.1.1-.2.1-.3.1s-.3 0-.4.1c-.1-.1-.2 0-.3 0s-.1.1-.2.1c-.1.1-.2.1-.4.2s-.3.2-.5.3c-.5.1-.9.3-1.3.6h-.1c.5-.4 1-.8 1.6-1.1-.2 0-.5.1-.7.3-.1 0-.1.1-.2.1-.2.1-.5.2-.6.4 0 .1-.1.2-.1.2-.2 0-.2.1-.2.2-.1.1-.3.1-.4.2h-.3c.1 0 .1-.1.1-.1-.1 0-.2 0-.2.2-.1 0-.2.2-.3.2-.1.1-.2.1-.4.2l-.1.1c0 .1 0 .2-.1.3.1 0 .1-.1.2-.1-.1.2-.3.2-.2.4 0 0 0 .1-.1.1-.2.1-.3.2-.5.4-.1.1-.3.2-.3.4 0 .1-.2.2-.3.2-.1.1-.1.3-.2.4.1-.1.2-.1.2-.2-.1.3-.2.4-.2.6-.1.2-.2.2-.3.2V37c-.1.1-.2.3-.3.4v.2c.1 0 .1-.1.2-.1l.2-.2c0 .1 0 .1-.1.2 0 .1-.1.1-.1.3.1 0 .1-.1.2-.1l-.3.6v-.2c0 .1-.1.1-.1.2 0 0 0-.1-.1-.1 0-.1.1-.2.1-.3s0-.1.1-.2c-.2.2-.3.4-.3.6h.2c-.1.2-.2.4-.4.6.1 0 .1.1 0 .2-.1.3-.3.5-.5.8 0 0 0-.1-.1-.1 0 .2-.2.2-.2.5 0 .2-.1.3-.2.5v-.3c-.2.3-.3.5-.2.7 0-.1.1-.2.1-.2 0 .1 0 .2-.1.2-.1.2-.1.4-.2.6 0 .1-.1.3-.1.4v.1c-.1-.1-.1 0-.1.1-.1.3-.1.6-.1.9-.1.4-.1.7-.1 1.1 0 .3-.1.5-.1.8v.9c0 .2 0 .5.1.7v-1.2c0-.5.1-1.1.2-1.6s.2-1 .4-1.5.4-1 .5-1.6c0-.1.1-.2.2-.2-.1.2-.1.4-.2.6-.2.4-.3.9-.4 1.3 0 .2-.1.4-.2.5 0 .2 0 .4-.1.6v.1c.1-.2.1-.4.1-.6 0-.1.1-.1.1-.1 0 .1-.1.2-.1.3-.1.3-.1.6-.2 1 0 0 0 .1-.1.2 0-.1-.1-.2-.1-.3 0 .3 0 .5-.1.8 0-.1 0-.1.1-.2h.1c0 .1.1.2.1.2v.3c0 .1-.1.2-.1.3 0 .2 0 .4.1.6 0 .3.2.6.2 1h-.1c-.1 0-.1-.2-.2-.2v.1c-.1.1 0 .2-.1.4zm7.9 5c-.1 0-.3.1-.4 0h.4zM56 40.7c-.1 0-.1 0 0 0zm1.8-1.6c-.1 0-.1 0 0 0v-.2.2zm1-2.7v.5c-.1 0-.1 0 0-.5zm0 1.7c-.1 0-.1 0 0 0-.1 0-.1-.1 0 0zm-.1-1.6c0 .2-.1.3-.2.4v-.2c.1-.1.1-.2.2-.2zm-.2 1.1c0 .2-.2.4-.3.5 0-.1-.1-.1 0-.1.1-.1.1-.3.3-.4zm-.6-.8c.1 0 .1.1.2.1 0 .2-.2.1-.3.2 0-.1 0-.2.1-.3zm-7.6 15.3l.2-.1c-.1.1-.1.1-.2.1zm.3-6c-.1 0-.1-.1-.2-.1h.1c.1-.1.1 0 .1.1zm-.1-.6c-.2-.2-.4-.6-.3-.8.2.2.3.6.3.8zm1.8-5.4l.2-.1c0 .1-.1.1-.2.1zm.7-.2c0-.1 0-.1.1-.2h.1l-.2.2zm.6 3.4v-.2c.1 0 .1 0 .2.1 0 .1-.1.1-.2.1zm.9-1.2v-.2h.1s0 .1.1.1c-.1 0-.1.1-.2.1zm0-.5c.1-.1.1.1.2.1-.1.1-.1-.1-.2-.1zm.7-.3c-.2.1-.3.2-.5.2 0-.2.3-.2.2-.4-.2.1-.4.2-.5.5 0 0-.1.1-.1 0l-.1-.1c-.1 0-.2.1-.3.1v-.1c.3-.2.6-.5.9-.7.1-.1.2-.1.3-.2h.1c-.1.1-.1.1-.2.1.2.4.2.5.2.6zm-1-.1c.1-.2.1-.3.4-.4.2-.1.4-.2.6-.4 0 .1 0 .1.1.2-.4.3-.7.4-1.1.6zm.8-3l.3-.3c0 .2-.1.3-.3.3zm1 .8c0-.1 0-.1.1-.2 0 .1 0 .2-.1.2zm-.2-1.3c0 .1 0 .1 0 0 .1-.1 0-.4.2-.5s.3-.3.4-.4c.1-.1.1-.1.1-.2.1 0 .1 0 .1.1-.1.1-.2.3-.3.4-.1.3-.3.4-.5.6zm.5 1.1c.1-.1.2-.3.5-.5-.1.2-.4.3-.5.5zm-4.2-1.9c0 .1-.1.1-.1.2 0-.1 0-.1.1-.2zm-1.8 1.4c0 .3-.1.5-.4.7.1-.3.3-.5.4-.7zm-.2.8s.1 0 .1-.1c.1-.2.2-.3.3-.5.2-.3.3-.5.5-.8s.4-.5.6-.7c.1 0 .1.1.1.1-.1.3-.4.4-.4.8.3-.1.4-.4.6-.6l.1.1c.2-.2.2-.2.1-.4.2-.2.2-.2.2-.3-.1 0-.1.1-.2.1 0-.1.1-.2.2-.3.2-.1.4-.2.4-.4V36c.2-.1.3-.3.4-.5 0 0 .1-.1 0-.2l-.3.3c-.1-.1-.1-.1-.2-.1-.1.3-.4.5-.7.7.2-.2.2-.5.5-.6v-.2c.1-.1.1-.2.2-.3 0 0 .1-.1.1-.2-.2.1-.3.3-.5.3.1-.2.2-.3.4-.3.1 0 .2-.1.3-.2 0-.1.2-.1.3-.2.1 0 .2 0 .2-.1l.1-.1c.1 0 .1 0 .2-.1 0 0 .1 0 .1-.1.1 0 .2-.1.3-.2.1-.1.2-.1.2-.1 0 .1-.1.1-.1.1 0 .1.1.1.2.1 0-.1.1-.1.1-.2h-.1c.1-.1.2-.2.3-.1.2 0 .3-.1.4-.2.1-.1.2-.1.3 0 .3.2.5.3.8.5H56l.1.1c.4.4.6.8.4 1.4l.1.1.1-.1c0 .4 0 .7-.3 1 0 0 0 .1-.1.1s0-.1 0-.2v-.3c-.1.1-.1.1-.1.2-.2.4-.4.7-.7 1-.1.1-.1.2-.2.2-.2 0-.2.2-.3.3-.2 0-.3.1-.5.2-.1.1-.2.1-.3.2 0 0 0 .1-.1.2.1 0 .1-.1.1-.1l.1.1c0 .1-.2.1-.2.2 0 0-.1.2-.2 0-.1.1-.2.2-.3.2-.1.1-.2.1-.2.3 0 .1-.1.1-.1.2-.2.1-.4.3-.7.4 0-.1 0-.2.1-.3-.1 0-.2.1-.2.2-.1 0-.1-.1-.1-.2 0 .2-.2.2-.3.3-.1 0-.2.1-.2.2-.1-.1-.2.1-.4 0 0 .1.1.2.2.1h.2c0 .2-.2.1-.3.2-.2.1-.4.2-.7.3-.1 0-.2.1-.3.1-.1.1 0 .2-.2.3-.1-.1-.3.1-.3-.1-.2.2-.2.2-.4 0l-.2.2s-.1 0-.2-.1c0-.2.2-.4 0-.5.1-.3.2-.6.4-1-.1.1-.2.1-.2.1 0-.1 0-.1.1-.2-.1 0-.1.1-.1.1.3 0 .5-.2.6-.3zm-.3.8c0-.1.1-.1.1-.2-.1.3-.1.6-.2.9 0 0 0 .1-.1.1.1-.2.1-.5.2-.8zm-1.7-5.4c-.1.1-.2.1-.3.2.1-.2.1-.3.3-.2zm-.9 17.2c.1 0 .1 0 .2.1 0 0-.1 0-.2-.1zm-.4-.2c.1 0 .2 0 .2.2-.1-.1-.2-.1-.2-.2zm-.7-.6s.1 0 0 0c0 .1 0 .1 0 0 0 .1 0 0 0 0zM46 37.3c-.1.1-.1.2-.2.3 0-.2.1-.2.2-.3zM45 39c.1 0 .1 0 0 0-.1.3-.2.5-.3.7h-.1c.2-.3.3-.5.4-.7zm-1.2 3.6c0-.1.1-.1 0-.2.1-.2.1-.3.2-.4 0 .2-.1.4-.1.5 0 .2-.1.4-.1.7-.1-.3 0-.5 0-.6zm0 4.4c0 .1.1.2 0 .3V47z"/><path d="M49.4 33.4c.1-.1.2-.2.4-.3.1-.1.3-.1.4-.3l.6-.3c.1 0 .1-.1.3-.1-.2 0-.3.1-.4 0 0 0-.1 0-.1.1-.1.1-.2.1-.3.2h-.2c-.1.1-.3.1-.4.3-.1 0-.2.1-.3.2v.2c-.3 0-.6.2-.8.4.1-.1.3 0 .4-.1.1-.2.3-.2.4-.3zm7.6 5.7c-.1.1-.2.2-.3.2-.1.1-.2.1-.3.2l.1.1c.1-.1.2-.1.2-.1 0-.1.1-.1.1-.2.1 0 .2-.1.2-.2zm-11.6-2c-.1.2-.3.4-.3.6l.3-.6zm1.4-1.7s0 .1 0 0c0 .1 0 .2.1.2.1-.1.1-.2.2-.4-.1.1-.2.1-.3.2zm9.4 4.4c-.1.1-.1.2 0 .3 0-.1.1-.1 0-.3zm-6.6 12.8c0-.1-.1-.1-.2-.1v.2s-.1 0-.1.1v.1h.2c0-.2 0-.3.1-.3zm-3.8-15.9c-.1.1-.2.2-.3.4.1 0 .2-.1.2-.1.2-.1 0-.2.1-.3zm10 4.8c0 .1 0 .1.1.2.1-.1.1-.2.2-.3 0 0 0-.1-.1-.1l-.2.2zM44.9 50l-.3-.3c0 .1.1.2.3.3zM47 35c-.2.1-.3.2-.2.4.1-.1.2-.3.2-.4zm10.7 15h-.3c.1.1.2.1.3 0zM44 38.1c-.1.1-.2.1-.2.3.1-.1.2-.2.2-.3zM58 50c0 .1 0 .1 0 0 .1 0 0 0 0 0zm-1.4-9.2c0 .1.1.1.1.2l-.1-.2c0-.1 0 0 0 0zm-7.8 11.7c.1 0 .2 0 .2.1 0-.1-.1-.2-.2-.1 0-.1 0 0 0 0zm-1.3-17.8s-.1-.1 0 0c-.1 0-.1 0-.2.1.1-.1.1-.1.2-.1zm3.6 11c.1 0 .1 0 0 0 0-.1 0-.1-.1-.2.1.1.1.2.1.2zm-3.5 6.8c0-.1 0-.1 0 0zM45 38.4c0-.1.1-.1.1-.2-.1 0-.2.1-.1.2zm1.4-2.5c-.1 0-.1 0 0 0-.1 0-.1.1-.2.1.1 0 .1 0 .2-.1zm2.3 16.8h.2-.2zm6-10.1s.1 0 0 0c0-.1 0 0 0 0zm2.4 7.6c.1 0 .1 0 0 0 .1-.1.1-.1 0 0 0-.1 0-.1 0 0zm.7.3h-.2.2zm-3.9-11.6c-.1-.1-.2-.1-.3-.2 0 .1 0 .2-.1.4.2-.1.3-.1.4-.2zm-2.1-1.1c-.1.1 0 .3-.1.4.2-.2.2-.4.3-.6-.1.2-.2.2-.2.2zm1.1 1.6c.1 0 .2-.1.3-.2-.1 0-.2.1-.3.2-.2 0-.2.1-.2.2.1 0 .1-.1.2-.1v-.1zm-.4.4c-.1-.1-.2-.1-.4-.1v.2c.2-.1.3-.1.4-.1zm4.2-3.8c.1-.2.1-.3 0-.5-.1.2 0 .4 0 .5zm-3.1 3.4c.1-.1.2-.1.2-.2-.1 0-.2.1-.2.2zm.4-4.7c-.1 0 0 0 0 0zm-4 5.7s.1 0 0 0c.1 0 .1 0 0 0zm5.6-3.2c-.1 0-.1.1 0 0-.1 0-.1 0 0 0zm.4-3.1s.1 0 0 0h.2c-.1-.1-.1 0-.2 0zm-.3-.3z"/><path d="M48.5 52.8c.3.1.6.1.9.2v-.1c-.3-.1-.6-.1-.9-.1zm14.6-40.1v-.3.1c-.1.1-.1.2 0 .2zm-.5-1.4s0-.1 0 0c0-.1 0 0 0 0zm.9 1.9c0-.1-.1-.2-.1-.2-.1-.2-.2-.3-.2-.3.1.2.1.3.2.4 0 .1 0 .1.1.1-.1.1 0 .1 0 0 0 .1 0 .1 0 0z"/><path d="M75 21.2c-.3.2-.6.5-.8.7-.2.2-.4.3-.4.6v.1c-.1 0-.2.1-.2.1-.3.2-.7.3-1 .5-.1 0-.1.1-.2.2s-.3.1-.4.2-.2.1-.2.3h-.1c-.1 0-.1.1-.2.1s-.2-.1-.3-.2c-.1-.1-.2-.3-.4-.4v-.1c0-.1 0-.2-.1-.3l-.3-.3c-.3-.3-.5-.6-.7-.9-.1-.2-.3-.3-.4-.5-.1-.1-.1-.2-.3-.2l-.1-.1c0-.2-.1-.2-.2-.4 0-.1-.1-.1-.2-.1 0 .1.1.1.1.2l.2.2h-.1c0-.1-.1-.1-.1-.2l-.4-.4c.1-.2 0-.2-.2-.3-.1-.1-.2-.2-.2-.3 0-.1-.1-.2-.3-.3.1.2.2.3.2.5h-.1c-.1-.2-.3-.4-.4-.6 0 0 0-.1-.1-.1.1.1.2.1.2.2l.1-.1c0 .1.1.1.1.2h.1v-.2c-.1-.1-.1-.2-.2-.3l-.6-.9-.6-1.2c-.1-.2-2-3.2-2.1-3.4l-.1-.1c.3 0 .5-.1.6-.1-.1 0-.3.1-.6.1 0 0 0-.1-.1-.1l-.1-.1v-.1s0-.1.1-.1l-.1.1v.1s0 .1-.1.1v.1c0 .1-.1.2-.1.3h-.1c.1-.1.1-.3.2-.4-.1-.1-.1-.2-.1-.3 0 0-.1.1-.2.3.1.1 0 .2 0 .4 0-.1-.1-.2-.1-.3 0 0 0 .1-.1.1-.1-.1-.2-.2-.1-.2 0 .1.1.1.1.2v.2H63l-.3-.6c0 .1-.1.3-.1.4l-.1-.1c0-.1 0-.2.1-.3v-.2h.1v-.3c-.1-.1 0-.1 0-.2.1-.2.1-.3.2-.4 0 0 0-.1.1-.1l-.2.2c-.1-.3.1-.4.3-.6.2-.2.4-.4.6-.5-.1 0-.2 0-.3.1 0 .1-.2.2-.2.2-.2 0-.2.1-.3.1-.1 0-.1.1-.2.1s-.2 0-.2.1l-.1.1h-.1c0 .1 0 .2-.1.2 0 0 0-.1.1-.1h-.1l.3-.3c-.1 0-.1-.1-.1-.1l.2-.2c.1-.1.3-.2.4-.3s.1-.1 0-.1c0 .1-.1.1-.2.1.1-.1.1-.2.2-.3l.4-.4c.1-.1.1-.1.1-.2h-.2c-.2.1-.5.2-.7.3h-.1c.2-.2.5-.2.7-.4-.2 0-.3.1-.5.1.1-.1.1-.1.2-.1-.1 0-.2.1-.2.1l.1-.1c.1 0 .2-.1.3-.1.1 0 .1-.1.2-.1l.1-.1c.2-.1.4-.1.6-.2.1 0 .2-.1.3-.1.1-.2.4-.3.6-.4h-.7c.1-.1.1-.2.2-.3-.1 0-.2.1-.3.1-.2 0-.3.1-.5.1.3 0 .6 0 .5.1-.2.2-.4.3-.7.2h-.3c0-.1.1-.2.1-.3h.2-.3l.2-.1c0-.1-.1-.1 0-.2 0 0-.1 0 0 0 .1-.1.2-.3.3-.4.1-.1.2-.3.3-.4.2-.3.4-.5.6-.7-.1 0-.1 0 0-.1h-.1l.2-.2c0-.1.2-.2.1-.3v.1c0-.1-.1-.1-.2-.1l.2-.2c-.7.1-1 .4-1.2.8-.3.4-.6.9-.8 1.3h-.1v-.1.1h-.2s0-.1-.1 0c-.1 0-.2.1-.3.2-.1.1-.2.1-.3.2h.5v.1h-.1c-.1 0-.1.1-.1.2 0 0 0 .1-.1.1 0 0-.1 0-.1.1h.1v.1-.1.1s.1-.2.1-.1-.1.1-.1.2c.1 0 0 .1.1.2 0 .1 0 .1-.1.2h-.1c.4-.4.4-.2.3 0v.1c-.1.1 0-.2-.1-.1v-.4h.1l-.1.1c0-.1.1-.2.1-.3l-.1.1c0-.1-.1-.3 0-.4-.1 0 0 0-.1.1.1-.1-.1.3 0 .2-.1.1-.1.2-.2.3 0 0 .1 0 0 .1v.3c0 .1 0 0-.1 0v.1c-.1 0-.1.2-.1 0v.1c0 .1-.1.2 0 .3v.3h-.1.1v.3s0 .1-.1.1v.3c-.1 0-.2 0-.2-.1-.1 0-.2.1-.3.1 0 .1 0 .1.1.2s.2.1.4 0c0 .1-.1.1-.1.2h.1v.3c-.1.1 0 .4 0 .5v.5s0 .1.1.1c0-.1 0-.1.1-.2v1.3c-.1.1 0 .1 0 .2 0 0 0 .1.1.1 0 .1 0 .3.2.4.1 0 0 .1.1.2 0 .1 0 .2.1.2.2 0 .1.1.1.2-.1.2 0 .3 0 .5 0 .1.1.1.2 0 0 0 .1 0 .1-.1 0 .1 0 .2.1.3-.1 0-.1-.1-.2-.1 0 .4 0 .4.2.5.1-.1-.1-.2 0-.4.1.2.1.3.1.5.1-.1 0 .2.1.2s-.1.1 0 .1c0 .1.1.2.1.4l.3.3c0 .1.1.4.2.4v.1c0 .1 0 .2.1.3.1 0 .1.1.1.2v.1h.3c.1.2.2.4.4.5-.1 0-.1 0-.2.1 0 .1.1.1.1.2.1.1.1.3.3.3 0 0 0-.1-.1-.2.2.1.2.2.2.3 0 0 .1 0 .1.1.1.1.2.3.4.4-.1-.1-.1-.2-.2-.4-.1-.1-.2-.3-.3-.4h.1c.1.1.3.2.3.4.1.1.2.1.2.2.1.1.1.2.2.3 0 .1.1.2.1.2 0-.1-.1-.1-.2-.2l-.2-.2c.1.3.2.5.4.8-.2-.1-.3-.2-.4-.4 0 .1 0 .2.1.2.1.1.1.2.2.2l.6.9v.1c-.2-.1-.2-.3-.4-.4l-.4-.4c-.1-.1-.2-.3-.3-.4.2.3.4.7.7 1 .2.3.5.7.7 1s.5.6.7 1c-.2-.1-.3-.2-.5-.4.2.4.5.7.7 1.1-.2-.2-.4-.3-.5-.5 0 0 0-.1-.1-.2l-.1-.1c-.1-.1-.2-.1-.3-.2 0 .1.2.2.2.3-.2-.2-.3-.3-.4-.5 0 .1 0 .1.1.2.1.2.3.3.2.5L66 24h-.1c.1.1.2.2.3.4v-.1l.1.1c.1.2.2.4.4.5 0 .1.1.1.1.2h-.1v.1c.1.1.2.3.3.4 0 .1.1.1-.1.1l-.3-.3.3.6c-.3.1-.5.2-.8.3.2 0 .5-.1.7-.2.1 0 .2 0 .3.1.1.2.2.3.2.5-.1.1-.1.2-.3.2-.1 0-.2.1-.2.2s0 .2-.1.2-.1-.1-.2-.1c.1-.1.1-.2.2-.3h-.3l.3-.3c.1-.1.1-.1 0-.2l-.5.5c-.1.2-.3.3-.2.5v.1c-.1.2 0 .4.2.5.2-.1.3-.2.5-.3.2.2-.1.3-.1.4l.2-.2c.1 0 .1-.1.2-.1-.1 0-.1.1-.2.1 0-.1.1-.2.2-.3v.2l.5-.5v.2c-.1.1-.2.3-.2.4s-.1.1-.1.1c-.2 0-.2.2-.3.2-.1.1-.1.1-.2.1s-.1.1-.2.2-.1.2-.2.3c.2-.1.3-.1.4-.2 0 0 .1 0 .1-.1v.3c-.1.1-.3.1-.3.3 0 .1-.2.2-.3.2v-.5c-.1.1-.2.1-.3.1.1-.1.1-.2.2-.2l-.1-.1c0-.1 0-.1.1-.2-.2 0-.1.2-.3.3-.1 0-.2-.1-.2-.1 0-.2.2-.3.1-.5 0-.1.2-.1.1-.2-.2 0-.2.2-.2.3-.2-.1-.3 0-.4.1s-.2.3-.3.4c-.1.1-.1.2 0 .3.2-.1.4-.2.5-.3.1-.1.2-.1.3 0 0 .1-.1.2-.1.3 0 .2-.1.3-.2.4v-.2c-.1 0-.2 0-.3.1.1.2-.1.3-.2.4 0 0-.1 0-.2.1 0-.1 0-.1-.1-.2-.1.1-.2.3-.2.4.1 0 .1 0 .3-.1-.1.2-.2.3-.3.4-.1.1-.1.1-.1.2s0 .3-.1.5c0-.1-.1-.2-.1-.2 0-.1-.1-.1-.1-.1.1-.1.1-.2.2-.2-.2-.1-.2-.1-.4 0-.1 0-.1.1-.2.1-.2.1-.2.2 0 .4.1-.1.3-.1.4-.2 0 .1 0 .2-.1.2-.1.1-.1.2 0 .3h-.2s0-.1-.1-.1c-.1.1-.2.1-.3.2-.1-.1-.2-.1-.3-.2-.1.1-.1.1-.1.2 0 .2.2.1.3.2v.3c0 .1-.1 0-.1.1s0 .2-.1.2l-.2.2c0 .1.2.2 0 .3v.3c-.1.1-.2.1-.2 0 0 .2-.1.3-.1.5 0 .1-.1.1-.1.2 0 0-.1 0-.2-.1 0 .1 0 .1.1.2s0 .3-.1.3-.1 0-.2.1c.1 0 .1.1.1.1s-.1.1-.1.2c-.1-.1-.1-.2-.3-.1 0 .1 0 .2.1.2.1.1.1.2 0 .3v.1s.1 0 .1-.1c0 .1-.1.2.1.2.1-.1-.2-.3.1-.4H62c.1 0 .1-.1.1-.1s.1 0 .1-.1c.1-.1.1-.3.2-.4l.1-.1v.4l-.1.1v.1c0 .1 0 .1.1.3 0-.1.1-.2.1-.3s.1-.2.1-.3 0-.2.2-.2c0 .1 0 .3.1.4v.3c0 .3-.1.5-.3.7l-.1.1.1.1c-.1.1-.1.3-.2.4.2 0 .3-.1.4-.1v.3c0 .1 0 .3-.1.4-.1.1-.1.1-.1.2h-.2c.2.2 0 .3 0 .5.1-.2.2-.3.3-.5.1 0 .1 0 .2-.1v.1c0-.1 0-.2.1-.3h.1c0 .1.1.2.1.3l-.1.1c0 .1-.1.2-.1.4 0 .1 0 .2-.1.3v.2h.1c0 .2-.1.3.1.5-.2.2-.3.5-.4.7h.1c-.1.2-.1.4-.3.5l-.1.1c0 .1-.1.1-.2.1v.5c0 .1-.1.3-.2.4v-.5s0-.1.1-.2c0-.1.1-.1.1-.2 0-.2.1-.4.1-.6l-.2-.2c-.1.2-.3.5-.4.7l-.3.9c0 .1-.1.2-.1.3v.5c0 .1 0 .2-.1.2v-.2c-.1.3 0 .5-.2.8 0-.1 0-.2-.1-.3l-.1.1v.4c0 .3 0 .5-.1.7 0 .2-.1.5-.1.7 0 .4.2.8.2 1.3 0 .2 0 .3-.2.4.1.2.1.3.2.5v.1c-.1.1 0 .2 0 .3v.1c-.1.1-.1.1 0 .2 0 .1.1.1.1.2s0 .1.1.2c0 .1.1.2.1.2s0 .1.1.1c.2.1.3.3.5.3 0 0 0-.1.1-.1.3.2.4.2.6.2 0 0 0-.1-.1-.1.1.1.2.1.3.2h.2v-.1h.4s-.1 0-.1.1h.1c.3-.1.5-.1.8-.2h.2l1.5-.6c.7-.3 1.5-.7 2.3-.9h.1c-.2.2-.5.2-.7.4.1 0 .3 0 .4-.1s.3-.2.5-.2c.1 0 .1 0 .2-.1.4-.2.8-.3 1.1-.5h.1c.1 0 .2-.1.3-.2.1-.1.3-.1.4-.3.3-.1.6-.4.9-.5h.1c.2-.2.4-.3.6-.5.3-.3.6-.5.9-.8.3-.2.6-.5.8-.7.5-.5.9-1 1.3-1.5.4-.4.6-.9.9-1.5.1-.1.1-.3.2-.4.2-.3.4-.7.4-1.1 0-.2.1-.5.1-.7l.1-.1c.1.1.2 0 .3 0 0-.1.1-.2.1-.3s0-.2.1-.3h-.1c0 .1-.1.2-.1.2-.1-.2.1-.3.1-.5v-.6c0-.2-.1-.4 0-.5v.2s0-.1.1-.1c.1-.1.1-.3 0-.4 0 0 .1-.1 0-.1-.3-.1-.3-.3-.3-.5 0-.1-.1-.1 0-.2.1 0 .1.1.1.1 0 .1 0 .3.2.4-.1-.3-.1-.6-.2-.9-.1-.3-.1-.6-.3-.8h-.1c0 .1.1.3.1.4 0 0-.1.1-.2.1-.1-.2-.1-.3-.2-.5V33c.1-.1 0-.2-.1-.2-.1-.1-.1-.1-.1-.2-.1-.2-.1-.3-.2-.5s-.2-.3-.1-.6c-.1 0-.2-.1-.2-.2s-.2-.4-.3-.6c0 .1 0 .2.1.3.1.2.2.4.3.5-.1-.1-.2-.2-.2-.3 0-.2-.1-.3-.3-.5 0 0-.1-.1-.1-.2 0-.2-.2-.3-.3-.3-.1 0-.1-.1-.1-.1-.1-.2-.1-.3-.1-.5h-.1s-.1 0-.1-.1.1-.1.1-.2c-.1 0-.2 0-.3-.1-.1-.1-.2-.2-.2-.3v-.1h.1c.1.2.2.3.4.4 0-.1 0-.2-.1-.2-.2-.2-.3-.4-.4-.6-.1-.1-.1-.2-.2-.3v.2c-.3-.1-.3-.3-.5-.5 0 .1-.1.1-.1.2-.1-.1-.2-.1-.2-.3.1-.1.1-.2.2-.3.1.1.1.2.2.3-.1-.1-.1-.2-.2-.3.2-.2.3-.4.5-.7.1-.1.1-.2.3-.2.1-.1.1-.2.2-.3l.3-.3c.3-.3.6-.7.8-1 .2-.2.4-.5.6-.7.1-.1.2-.3.3-.4.2-.3.5-.6.7-1 .3-.4.5-.9.7-1.3s.3-.7.5-1.1v-.1c0-.2 0-.4.1-.5v-.2c-.1-.1 0-.1 0-.2.1-.2.1-.4.2-.6v-.2c0-.1-.1-.1-.2-.2-.2-.1-.3-.2-.6-.2h-.3c-.3 0-.3 0-.4.2s-.2.5-.3.7c-.1.1-.2.3-.3.4-.2.3-.4.6-.7.8 0 .1-.1.2-.2.2-.1.1-.2.3-.1.4-.1.1-.3.2-.4.3-.3 0-.4.1-.5.3 0 0 0 .1 0 0-.2.1-.3.1-.5.2v-.1c0-.1.1-.1.1-.2s.1-.1.2-.1.3-.1.4-.2c-.1 0-.1 0-.2.1.1-.2.4-.3.2-.6.5.5.4.5.3.6zm-8 4.5l-.1-.1.1.1zm.1-.2c-.1 0-.1-.1-.2-.1v-.2c.1.1.1.1.2.3 0-.1 0-.1 0 0zm-5.8 16.8c-.1-.1-.1-.3 0-.5.1.1.1.3 0 .5zm16.3-7.1v.2c-.1-.1-.1-.1 0-.2zm-.4 1v.4c0-.1-.1-.3 0-.4zm0 .8c-.1 0-.1-.1-.2-.1.1-.1.2-.1.2-.2v.3zm.2-1.9c.1 0 .1.1 0 0 0 .1 0 .1 0 0zm0 1.1c0 .1 0 .1 0 0v.2h-.1c0-.1.1-.1.1-.2zm-.1-2.7c.1.2.1.4.2.6l-.2-.2c-.1-.1-.1-.2 0-.4zm-.1 2.2c0 .1.2.2 0 .3v-.3zm-.2-1.3c0 .1.1.1 0 .2v-.2zm.1 2.5c0 .1 0 .2.2.3l-.2.2c-.1-.2 0-.4 0-.5zm-.4-1.4v-.2.2zm-.4-3.2c-.1-.2-.1-.4-.2-.6.2.2.3.5.2.6zm-.7-1.2c0 .2.2.3.1.4-.2-.2-.3-.3-.1-.4zm-1.2-1.5c-.2-.1-.2-.2-.3-.4.1.1.2.2.3.4zm-1.9-6.1c0 .1-.1.2-.1.2l-.1-.1c.1-.1.1-.1.2-.1zm-1.7 0c0 .1.1.1.1.2-.1-.1-.1-.1-.1-.2-.1 0 0 0 0 0zm.1 8.2c-.2-.1-.2-.1-.1-.3.1.1.2.1.1.3zm-.9-9.2s.1.1.1.2c-.1-.1-.1-.1-.1-.2zm-.4-.6s0 .1.1.1c-.1 0-.1 0-.1-.1-.1.1 0 0 0 0zm-.1.1c0 .1.1.1.1.2-.1-.1-.2-.1-.1-.2-.1 0-.1 0 0 0zm0 .2c0 .1.1.1.1.2-.1 0-.2-.1-.1-.2zm-.2 8.8c0 .1 0 .1 0 0 0 .1 0 .1 0 0 0 .1 0 .1 0 0zm-.3-9.4l.1.1s0 .1-.1.1c0 0-.1-.1 0-.2-.1 0-.1 0 0 0zm-.2.2c.2.2.2.2.1.3-.1-.2-.1-.3-.1-.3zm-.3-.4s0 .1.1.1h-.1v-.1zm-.2 6.3c.1.1 0 .1-.1.2 0-.1 0-.1.1-.2zm.1 3.4v.2c-.2-.1-.1-.1 0-.2zm-.4-2.6c-.1 0 0-.1 0-.1.1 0 .1.1 0 .1.1.1.1.1 0 0zm.1 3.4v-.2c.1.1.1.1 0 .2zm0-3.9s-.1 0-.1.1c0-.1 0-.1.1-.1zm-.1-.4c-.1-.1-.1-.2-.2-.3l.1-.1c.2.2.2.2.1.4zm-.1-7.4l.1.1v.1c-.1-.1-.1-.1-.1-.2zm-.9-1.7c.1.1.2.3.2.4-.1 0-.1 0-.2-.1 0-.1-.1-.1 0-.3 0 .1 0 .1 0 0zm-.3-.5c0 .1.1.2.1.3-.1-.1-.2-.1-.1-.3zm-.6-1.1s0 .1 0 0c.1.1.2.2.1.4-.1-.1-.1-.2-.1-.4-.1.1-.1 0 0 0zm0 .6c-.1 0-.1-.1-.1-.1.1 0 .1 0 .1.1zm-.1 0c.1.2.1.3.2.5h-.1c-.1-.1-.2-.3-.3-.4 0-.1-.1-.1-.1-.1-.1-.1-.2-.2-.1-.4.2.1.2.4.4.4zm.3.8c-.1 0-.2-.1-.1-.2 0 .1 0 .2.1.2zm-.7-1.9c0-.1-.9-1.4-1.4-2.3.4.5.7.9.6.9.4.6.8 1.2.9 1.3 0 0 .1.1-.1.1zm-1.4 2.2s-.1 0 0 0c-.1 0-.1 0 0 0-.2 0-.1-.2-.2-.4v.1s0-.2.1-.2c.1.1.1.2.2.4l-.1.1c-.1-.1 0 0 0 0zm-2.4-8.3c-.1.1 0 .1 0 0zm0 .1s.1 0 .2-.1c-.1.1-.1.2-.2.1 0 .1 0 0 0 0zm.7 1.3s0-.1 0 0c0-.1 0-.1 0 0 0-.1 0 0 0 0zm0-.1s0 .1 0 0v.2c-.1 0-.1-.1 0-.2zm-.5.5s0-.1 0 0c0-.1 0-.1 0 0 0-.1 0-.1 0 0zm-.1-1.4c0 .1 0 .1 0 0zm.1 2c0-.1 0-.1 0 0 .1 0 0 .1 0 0v.2c0 .2 0 0 .1 0v.1h-.2c.1-.1.1-.2.1-.3zm1.2.7s.1.1.1.2c0-.1 0-.1-.1-.2zm.5.5c0 .1 0 .1.1.1v.1l-.1-.1c-.1 0-.1 0 0-.1zm.3.7v-.2.2zm-.2-.3c-.1-.1-.1-.1 0-.1v.1zm0-.2s0 .1 0 0c0 .1 0 0 0 0zm.4 1V15h.1v.2c.4.6.9 1.2.9 1.3 0 .1 0 .1-.1.2 0-.3-.5-.9-.9-1.6zm-.4-1V14v.1zm-.3-.3c0-.1 0-.1 0 0 0-.1 0 0 0 0zm.1 1.4c-.1-.1-.1-.2-.2-.2v-.1l.2.2v.1zm-.3-.4v.3c0-.1-.1-.1 0-.3-.1.1-.1 0 0 0zm.1 3s0-.1 0 0c0 0 .1 0 0 0 .1.1.1.1 0 0zm.3-2.6c0 .1.1.2-.1.2V15c.1.1.1.2.1.2zm.3-.1c.4.6.8 1.2.8 1.3.1.1.1.3.2.4-.1-.1-.7-1-1.2-1.8.1.1.2.1.2.1zm1.4 2.4c-.1 0-.3-.3-.3-.6l.3.6zm-.1-1.3c-.1-.1-1-1.5-1.6-2.4v-.1c.5.8 1.7 2.7 1.7 2.8 0 0 0-.1-.1-.1.1 0 .1-.1 0-.2zm-.5-1.3c-.1-.2-.5-.7-.9-1.2 0-.1-.1-.1-.1-.2.2.3.6.9 1 1.4zm-.7-1.6v.1c-.1-.1-.1-.1 0-.1zm-.3 0c-.1 0-.1 0 0 0 0 .1 0 .1.1.2-.1 0-.1-.1-.1-.2-.1.1-.1.1 0 0-.1.1-.1 0 0 0-.1 0-.1 0 0 0-.1 0-.1 0 0 0-.1 0-.1 0 0 0-.1 0-.1 0 0 0zm-.3 0s0 .1.1.1l-.1-.1.1.2s0 .1.1.1c0 0 0 .1.1.1v-.1s0-.1-.1-.1c0 0 0 .1-.1.1v-.1s0-.1.1-.1c-.2 0-.2 0-.2-.1zm0 0c-.1.1-.1.1 0 0-.1.1-.1.1 0 0-.1 0-.1 0 0 0zm-.3-.1v.1s-.1 0 0-.1c-.1 0-.1 0 0 0zm-.3-.1s0 .1.1.2h-.1.1c0 .1.1.2.1.3v.1s0 .1.1.1h-.1v.1s0-.1-.1-.1v.1c0 .1-.1.2-.1.3l.1.1c0-.1.1-.2.1-.3 0 0 0-.1-.1-.1h.1v-.1s0 .1.1.1v.1c.1.1.1.2.1.3s0 .2.1.3c-.1-.1-.2-.3-.3-.4-.1.1-.1.2-.1.3 0 0 0 .1.1.1v.1H63v-.3s0-.1.1-.1c-.1-.1-.1-.2-.2-.4v-.8zm-.3-2v-.2c0 .1.1.2 0 .2zm0-2.9c-.1 0-.1 0-.1.1l.1-.1v.1h-.2v-.1l.3-.3c0 .1 0 .2-.1.3zm-.3.1s.1 0 0 0zm0 .3l.1.1c0-.1 0-.1-.1-.1zm-.4 2.3s-.1 0 0 0c-.1 0 0 0 0 0zm1.4 7.1c.1 0 0 0 0 0zm.5.9c-.1 0-.1 0 0 0 0-.1 0-.1 0 0 0-.1 0-.1 0 0zm.3-.1v-.1c0 .1.1.2.1.3l-.1-.2zm.1.2c.1.1.2.2.2.4-.1-.2-.2-.3-.2-.4zm.3-.4c-.1-.1-.1-.3-.2-.4s-.1-.2-.2-.4c0-.1-.2-.3-.2-.4 0 0 0 .1-.1 0v-.5c.2 0 .1.2.1.3 0 .1 0 .1.1.2s.1.2.1.3c0 .1 0 .2.1.3.1.1.1.3.2.4.2-.1 0 0 .1.2zm.3.8l-.3-.3c.2 0 .2.1.3.3 0-.1 0 0 0 0zm1.2 2.9c-.1-.1-.1-.2-.2-.3.2 0 .2.1.2.3.1-.1 0-.1 0 0zm.3-.6l-.2-.2s-.1-.1-.2-.1l-.1-.1c0-.2-.2-.4-.3-.6h-.1c-.1 0-.1-.1-.2-.1v-.1h.2c-.1-.1-.1-.2-.2-.2-.2 0-.2-.2-.2-.3l.2.2c.1-.1.1-.2 0-.3-.1-.2-.3-.5-.4-.7.2 0 .2 0 .3.2.1.3.2.5.4.7l.1.1c.2.4.5.8.7 1.1v.1l-.2-.2c.1.1.2.3.2.5.1 0 .1 0 0 0zm-.1-4.4c.1 0 .1 0 .2.1 0 .1.1.1.1.1.1.1 0 .1 0 .2-.2-.1-.2-.1-.3-.4zm.4 1.5c-.1-.1-.1-.2-.1-.3.5.7 1 1.3 1.4 2h-.1c-.1-.2-.3-.3-.4-.5-.2-.3-.4-.5-.5-.8 0-.1-.1-.1-.1-.2-.1 0-.1-.1-.2-.2zm1 1.6c-.1 0-.1.1 0 0-.1 0-.1 0-.1-.1 0 .1 0 .1.1.1zm-.7-.6l-.1-.1.1-.1c.2.2.3.5.5.7v.1c-.1-.1-.2-.3-.3-.4 0-.2 0-.3-.2-.2zm0 4.7c.1-.1.1-.1 0 0 .1-.1.1-.1.2-.1.1.2.3.3.2.5-.1-.1-.2-.3-.4-.4zm.3.7s.1.1.1.2c-.1-.1-.1-.1-.1-.2zm.1 1.4c.1 0 .1 0 .2-.1.1.1.2.2.1.4l-.3-.3zm-.1 2.4c.1 0 .1-.1.2-.2.2-.2.2-.2.5-.1-.1.2-.2.4-.4.6-.1 0-.1.1-.3.1l-.1-.1c-.2.1-.3.1-.4.2.1.1.2.2.2.3-.1.1-.1.2-.2.3 0-.2-.3-.2-.3-.4.3-.2.5-.5.8-.7zm.7 2.6c-.1 0-.1-.1 0 0zm-1.2 2.2s0 .1 0 0c-.1.1-.1 0 0 0-.1 0-.1 0 0 0zm-.6.1c0-.1 0-.1.1-.2.1.1.1.2-.1.2zm0-4.1c0 .1-.1.3-.2.4 0-.1-.1-.1-.1-.1.1-.2.1-.3.3-.3zm-.2-.7v.2h-.1c0-.1 0-.2.1-.2zm-.3 1.5c.2-.2.3-.4.6-.5 0 .2-.1.3-.2.4s-.2.2-.2.3v.1c-.1-.1-.1-.1-.1-.2-.1 0-.1-.1-.1-.1zm.4 2.6s0 .1 0 0c-.1 0 0 0 0 0zm-.8-3.2c0 .1.1.2-.1.1 0-.1 0-.1.1-.1zm-.1 1.1c.1-.1.1-.1.3-.1.1.2.1.2-.2.5-.2-.2-.3-.1-.5 0 .2-.1.3-.3.4-.4zm.3 3.2s0 .1 0 0c-.1 0-.1 0 0 0-.1 0-.1-.1 0 0zm-.7 1.2c.1.1 0 .2 0 .2 0-.1.1-.1 0-.2.1.1 0 .2 0 .3s-.1.2-.2.3-.1.2-.1.3v.3c.1.1 0 .2-.1.3l-.3.3s-.1 0-.1-.1c0 .1-.1.2-.1.4h-.1c0-.1 0-.3.1-.4V37c0-.1 0-.1.1-.2v-.3c-.1-.1-.1-.2 0-.4l.3-.6c0-.1.1-.2.2-.3.1-.2.3-.4.5-.6-.1.1-.1.3-.2.4v.5zm-1 2.7c-.1 0-.1 0 0 0l-.1.3h-.1v-.3h.2c.1 0 .2-.1.1-.3 0-.1.1 0 .2 0-.2 0-.3.2-.3.3zm0 .2c-.1.1-.1.2-.2.3 0-.1.1-.2.2-.3zm.3-3.1c0 .1-.1.2 0 .3 0-.1.1-.1 0-.3.2.2.2.2.1.3 0 .1-.1.1-.1.2l-.1.1v.1c-.1 0-.1.1 0 .1 0 0-.1 0-.2.1-.1-.1-.1-.2 0-.3-.1-.1-.3-.1-.2-.2 0-.1 0-.2.2-.3l.1.1c.1-.1.1-.2.2-.2 0-.1 0 0 0 0zm0-.3s0-.1 0 0l.2-.1c-.1.1-.1.1-.2.1zm-.2 1.3c0-.1.1-.2.1-.2l.1-.1c0 .2 0 .2-.2.3zm.1.5v.2c-.1-.1 0-.1 0-.2zm.5-5.4c.1-.2.3-.3.4-.5.1-.1.2-.1.3-.2 0 .2 0 .3-.2.4-.1 0-.1.1-.1.2-.1.1-.2.3-.2.4-.3 0-.3-.1-.2-.3zm-.8 1.5l.2-.2s.1 0 .1.1c.1-.2.1-.4.2-.5.1.1.1.1.1.2-.1.2-.2.3-.3.5-.1.1-.1.2-.3.2-.1 0-.1 0-.2.1.1-.2.2-.3.2-.4zm0 4.9c0 .1-.1.1-.2.1.1-.1.1-.1.2-.1zm-.4-4.5c0 .2-.1.3-.3.3l.3-.3zm-.2.8s0-.1 0 0zm.2-.2c0-.1-.1-.1 0 0 0-.3.1-.4.2-.5 0 .1-.1.3-.2.5zm-.1 4.1c.1 0 .1 0 0 0zm.1.7c.1-.1.1-.2.2-.3v.3c0 .1-.1.1-.2 0-.1.1-.1.1 0 0zm-.1.3l.2-.2h.1c-.1.1-.1.3-.2.4-.1.1-.2.3-.3.4v-.5c.1 0 .1 0 .2-.1zm0 1.2zm-.4 0c0 .1-.1.1-.1.2-.1-.1-.1-.1.1-.2zm-.2.3c0 .1 0 .2-.1.3 0-.2 0-.2.1-.3zm-.2.2c0 .1 0 .2-.1.4 0 .1-.1.1-.1.2 0-.3.1-.5.2-.6zm.2 5.1c-.1 0-.1 0 0 0-.1-.1-.1-.1-.1-.2s0-.2-.1-.3c0-.1-.2-.1 0-.2V45c-.2-.3-.2-.6-.3-.9-.1-.2-.1-.5-.1-.7 0-.1 0-.1.1-.2.1.1 0 .3.2.2 0 .2.1.3 0 .5 0 .1-.1.2-.1.3s0 .1.1.2c0 .1.1.1.1.2.1.3.1.7.2 1v.2zm1.2.1c-.1 0-.1-.1-.2-.1 0 .1.1.1.1.2-.1-.1-.2-.1-.2-.2-.1-.1-.1-.2-.2-.1l-.1-.1c-.2-.3-.3-.6-.4-.9 0-.1-.1-.2-.1-.3-.1-.2-.1-.3-.1-.5 0-.1 0-.2.1-.3h.2s0 .1.1.1c.1.2.2.3.2.5.2.3.2.7.5 1 .1.1.2.1.2.1.1.1.1.2.1.3-.2.2-.1.2-.2.3.1 0 0 0 0 0zm.2 1.6c.3-.1.6-.2 1-.2-.3.2-.7.2-1 .2zm1.7-1.2c.1-.1.2-.1.3-.2 0 0 0 .1.1.1-.2 0-.3 0-.4.1zm0-.8h.2-.2zm1.2-.1l.2-.2s.1 0 .1.1c-.1 0-.2.1-.3.1zm.6-.5c.1-.1.2-.1.3-.1-.1.1-.1.1-.3.1zm1.1 1.3c.4-.3.8-.5 1.3-.7-.4.3-.8.6-1.3.7zm5-12.4c0 .1-.1.2 0 .4.1.1.1.3.1.4.1.4.1.8.1 1.3 0 .3 0 .6-.1.9v.1c-.1.2-.1.3-.1.5h-.1c0 .1 0 .1-.1.2h.2c-.1.2-.2.4-.2.6-.1.1-.1.3-.1.5 0 .1-.1.2-.2.3 0 0-.1 0-.1.1-.1.1-.1.2-.1.3v.3c-.2.1-.2.4-.3.5-.1.1-.1.2-.2.3v-.2c.1-.2.2-.5.2-.7.1-.2.1-.4.1-.6 0 .1-.1.2-.1.3-.3.3-.3.5-.4.8v.2c0 .1 0 .3-.2.3v.3c-.2.1-.2.2-.3.4-.1.2-.2.4-.4.6-.2.3-.4.5-.8.7h-.1c0 .1-.2.1-.2.2-.1.1-.2.2-.2.3l-.3.3-.3.3-.1.1-.1-.1c-.2.2-.3.4-.6.5-.3.2-.5.4-.7.5-.3.2-.5.3-.8.4 0 0 .1 0 0 .1 0 0 0 .1-.1.1h-.3l.2-.2c-.3.1-.5.1-.7.2-.4.1-.9.2-1.4.2h-.2c-.1 0-.2-.1-.2-.1 0-.1 0-.1-.1-.1-.3-.1-.4-.4-.7-.6-.2-.1-.3-.4-.3-.6.2 0 .4.1.6.1-.1-.1-.4-.2-.5-.3s-.2-.3-.3-.4h.2c-.2-.2-.3-.3-.5-.4 0 .1-.1.2-.1.3 0 0 0 .1.1.1 0 .1.1.1.2.2-.3 0-.4-.1-.5-.3 0-.1-.2-.1-.2-.1 0 .1-.1.1-.1 0s-.1-.1-.1-.2V43s0-.1-.1-.1c0 0 .1 0 .1-.1-.1-.1-.2-.2-.1-.3.1-.1 0-.2.1-.3 0-.1 0-.1.1-.2l.2.2c0-.1 0-.1-.1-.2s-.1-.3 0-.4c.1-.2.2-.3.3-.5v.2c.1-.1.2-.1.3-.2 0-.1.1-.2.2-.3 0-.1.1-.2.1-.2h.1v.2s.1 0 .1-.1l-.1-.1c.1-.2.1-.4.2-.6.2-.3.4-.5.5-.8.1-.2.2-.4.4-.6.1-.1.2-.1.2-.2h-.1c.1-.1.1-.1.1-.2.4-.7 1-1.3 1.5-1.9.1-.1.1-.2.2-.3s.2-.1.2-.2c.4-.4.8-.9 1.2-1.3l.1-.1c0-.2.1-.2.2-.4s.3-.3.5-.5l.3-.3c.2-.2.3-.4.5-.6l.1-.1c.2-.2.4-.3.6-.5v.1c0-.2.1-.4.3-.5 0 0 0-.1.1-.1l.1-.1s.1 0 .1.1c0 .2.2.4.1.6v.1c.1.1.1.2.1.4l-.1-.1.3.9v.2c0 .1 0 .2.1.3v.2c-.1.1 0 .2.1.3s.1.2 0 .3c0 0 0 .1-.1.1v.1c.4.3.4.4.2.8h-.3c-.1.2.1.3.2.5.1 0 .1-.1.2-.1l-.3.3c-.1 0-.1 0-.2-.1 0 .1 0 .3.1.4.1.1.1.1.1.2 0 0 .1.1 0 .1v.1c0 .1.1.3 0 .4v.1c.1.1.1.1 0 .2s-.1.2 0 .2c.1.1.2.1.3.2 0 .2-.1.3-.2.2 0-.1.1-.1.1-.2-.2-.1-.2-.1-.3 0 .1.2.2.3.3.5 0 0 .1 0 .1-.1v.2c.1 0 .1.1.1.1 0-.1.1-.2 0-.3v-.1c.1-.1.1-.3.2-.4.1-.1.1-.2.1-.3s-.1-.2.1-.2c.1-.1.1-.2 0-.3l-.2.2c0-.2 0-.3-.1-.5.1.1.3.1.4.2.2-.2.2-.4.1-.7l.1-.1c.1.1.2.1.3.2v-.3c0-.2-.1-.4-.1-.5s-.1-.3.1-.4v.2c.1-.1.2-.1.2-.3 0-.3 0-.6.1-.9v-.1c-.1-.4 0-.9-.1-1.3h.1c.1.2.1.3.2.5.2-.2.1-.4.2-.6v.1c.4.4.4.6.4.8zm-1.9 2.4c.1.1.2.2 0 .3v-.3zm.4 0c0-.1.1-.2.1-.2.1.2.1.3-.1.5-.1 0-.1-.1-.2-.1.2-.1.2-.1.2-.2zm.2.6c-.1 0-.1.1-.2.1l-.1.1v-.4c.1 0 .2.1.3.2zm2.3-14.3c.1 0 .1.1 0 .1-.1.1-.2.2-.5.1 0 .1 0 .2-.1.3h-.2c-.1.1 0 .3-.3.3 0 .2 0 .2-.2.2 0 .2-.1.3-.3.4-.2.1-.3.2-.5.3-.2.1-.4.2-.6.4 0-.1 0-.1.1-.3-.1.1-.3.1-.4 0l.1-.1c.1-.1.2-.1.3-.2l.1-.1c.1-.1.2-.2.3-.2.1-.1.2-.1.4-.1 0-.1 0-.1.1-.1 0 0 0-.1.1-.1.2-.1.3-.2.5-.3.1-.1.2-.1.2-.2.2-.1.3-.2.5-.2.3 0 .4-.1.4-.2z"/><path d="M61.6 10.8c0 .1-.1.1-.1.2h.1v-.2zm2 1.9v.3s0-.1.1-.1c-.1-.1-.1-.1-.1-.2zm.5.1s.1 0 .1-.1v-.2c-.1 0-.1.1-.1.3-.1-.1-.1-.1 0 0zm-.7 1.4c-.1-.1-.1-.1 0 0-.1 0-.1.1 0 .1-.1-.1-.1-.1 0-.1zm.2-.6s0-.1 0 0v-.2.2c0-.1 0 0 0 0zm.1.1s0 .1 0 0c0 .1 0 .1 0 0s0-.1 0 0zm-.8-.3s0-.1 0 0c0-.1 0 0 0 0zm.2 1.3s0-.1.1-.1c0 0 0-.1-.1-.1v.2c0-.1 0 0 0 0zm-.3-1.3v.1l.2.4h.1v-.1c0-.2-.1-.3-.3-.4.1 0 .1 0 0 0zm1.6-.6v-.2c-.1.1-.1.1 0 .2zm-1 17.9h-.2c0-.1 0-.1.1-.2-.2.1-.4.2-.6.4-.1.2-.3.3-.4.5.1 0 .1 0 .1-.1 0 0 0 .1.1.1 0 .1 0 .1.1.2.1-.1.2-.2.3-.2.1 0 .1-.1.2-.1.1-.1 0-.2-.1-.2 0-.2.1-.2.4-.4-.1.1-.1.1 0 0zm13-10.7c.2-.3.3-.6.5-.9v-.2c-.1.1-.1.2-.2.2-.2.2-.2.5-.5.7-.1.1-.1.2 0 .3 0 .1.1 0 .2-.1zM61.5 38.3c0 .2.1.2.1.3 0-.1.1-.1.1-.2h.1c0 .1 0 .1-.1.2h.1c0 .1 0 .2-.1.2h.1c.2-.3.1-.7.1-1-.1.1-.2.2-.4.3v.2zm2.5-8.4c.1-.1.2-.2.1-.3-.1.1-.3.2-.4.3-.2.2-.3.4-.2.6.2-.1.2-.1.2-.2 0 0 0-.1.1-.2 0-.1.1-.1.2-.2zm-2.9 8.8c-.1.1.1.2 0 .3.2.1.3.2.3.3s.1.1.2.2c.1-.2-.1-.3-.2-.5h.4v-.1c-.3.1-.6.1-.7-.2zm1.5.8c.1-.1.1-.2.2-.3 0-.1-.1-.2-.1-.3 0 0 0-.1-.1-.1.2-.3.2-.4.2-.5 0 .3-.3.5-.3.7h.1l-.2.2c.2.1.2.2.2.3zm-.5-20.8c.1.2.2.3.3.5.1.1.1.1.2 0 .1-.2 0-.3-.2-.4-.1 0-.1-.1-.1-.1v.1s-.1 0-.2-.1zm1 10.5c.2-.2.5-.4.6-.6-.1 0-.1 0-.1.1-.2.1-.3.3-.5.4-.1-.1-.1 0 0 .1zm5-9s.1 0 0 0c.1.1.1.2.2.2 0-.1 0-.1-.2-.2.1.1.2.1.2.1-.1-.1-.2-.1-.2-.2-.1-.1-.2-.3-.3-.4 0 0 .1 0 0-.1-.1 0-.2-.1-.2-.2v.2c.3.2.4.4.5.6zm-6.5-6.5c-.1 0-.2.1-.2.1 0 .2 0 .4.1.6.1-.2.2-.2.1-.3-.1-.1-.1-.2 0-.3 0 .1-.1 0 0-.1zm.5 3.6v.2c0 .2.1.3.2.4v.1c.1.1.2.1.2.2-.1-.1-.1-.2-.2-.3 0-.1.1-.3-.1-.4v.1c-.1-.1-.2-.2-.1-.3.1.1.1.1 0 0zM62 32.4c.2-.1.3-.2.2-.4-.2.1-.3.2-.2.4zm2.8-11.7s0-.1 0 0l-.1-.1c-.1-.2-.3-.4-.4-.6 0 .2.3.5.5.7zm12.4 17.4c0-.2.1-.3.1-.5h-.2v.3c0 .1 0 .1.1.2zM60.9 11.9l-.1.1c.1 0 .1.1.2.1 0-.1.1-.2.1-.3-.1 0-.1-.1-.2-.1v.2zm1.6 5.7c.1.2.1.4.3.6.1-.2-.1-.5-.3-.6zm.7 1.9c0 .1-.1.2 0 .2 0 .1.1.1.2.2 0-.2 0-.3-.2-.4zm11.5 9.3c-.1-.2-.3-.4-.4-.6 0 .3.2.5.4.6zm.9-8.2c-.2.1-.2.2-.2.4.2-.1.2-.2.2-.4zM61.8 8c.3 0 .5-.2.6-.3l-.6.3zm.4 27.5c-.1-.1-.3-.1-.3.1 0 .1 0 .2.2.3-.1-.1-.2-.2-.1-.4h.2zm1.3-15c0 .2.2.4.4.5-.2-.2-.2-.4-.4-.5zm-.9 9.2c.1-.1.2-.2.4-.3-.4.1-.4.1-.4.3zm-2.2-16c0 .2-.1.4 0 .5v-.5zm-.1-1.5c.1-.1.1-.2 0-.3-.2.2-.2.2 0 .3zm1.6 27.4v-.4h-.1c-.1.2-.1.2.1.4zM61 12.9c0 .1-.1.2 0 .4.2-.2.1-.3 0-.4zm.7 3.8s.1 0 0 0v-.4c-.1.2 0 .3 0 .4zm13.7 13.6c-.1-.2-.2-.3-.3-.4 0 .2.1.3.3.4zM62 18.1c0-.1-.1-.2-.1-.4-.1.2 0 .3.1.4zM61 16c.1.1.1.3.2.4 0-.2-.1-.3-.2-.4zm.6 19.7c.2-.1 0-.2 0-.4-.1.1.1.3 0 .4zm14-5.6c-.1-.1-.1-.2-.2-.3h-.1c0 .2.1.2.3.3zM60.7 15c.1-.1.1-.1 0-.4-.1.2 0 .3 0 .4zm.8 18.2c.2 0 .2-.1.1-.2 0 .1-.1.1-.1.2zm-.2 7.5v.3c.1-.1.2-.2 0-.3zm1.3-2.8c0 .1-.1.2 0 .3.1-.1.1-.2 0-.3z"/><path d="M75.5 29.8c.1.1.1.2.1.3.1-.2.1-.2-.1-.3zm-.8-1c0 .1 0 .1.1.3 0-.1 0-.1-.1-.3zm-.8-1c.1.1.1.2.3.2 0-.1-.1-.2-.3-.2zM64.6 29c-.1.1-.1.2-.1.2.1-.1.1-.1.1-.2zm-.3 1.6c.1-.1.1-.2.2-.2-.3.1-.3.1-.2.2zm-3.3-18c-.1.1-.2.2 0 .3v-.3zm4.3 10.7c0-.1-.1-.1-.1-.2 0 .3 0 .3.1.2zm-3 11.6c0 .1-.1.1-.1.2.2 0 .2-.1.1-.2.1 0 0 0 0 0zm-1-19.5v.3c.1-.1.1-.1 0-.3zm.5.5c.1-.1 0-.2-.1-.2 0 .1.1.2.1.2zm-.5.8c0-.1 0-.2-.1-.2-.1.1.2.1.1.2zm2.2-5.5c.1 0 .1-.1.1-.2-.1.1-.2.1-.1.2zm14.2 25v-.3c0 .1-.2.2 0 .3zM65.1 22.7c0-.2 0-.2-.2-.2.1.1.1.2.2.2zm-3.7-11.6c0 .1-.1.1-.1.2.1-.1.2-.1.1-.2zm.3 2.2v.2h.1c0-.1 0-.1-.1-.2.1 0 .1 0 0 0zm2.6-.1v-.1c-.1.1-.1.1 0 .1zm1-5l-.1.1c.1 0 .2 0 .1-.1zm-2.9 10.5s-.1 0 0 0c-.1 0 0 0 0 0zm-.3-.2l.2.2c0-.1-.1-.2-.2-.2.1-.1.1-.1 0 0zm.7 1c0 .1.1.1.1.2 0-.1 0-.2-.1-.2zm1.4 1.4v.2h.1c0-.1 0-.1-.1-.2zM64 10.4s0-.1.1-.1c-.1 0-.2.1-.1.1zm-.5-.2c.1-.1.1-.1.1-.2 0 .1-.2 0-.1.2zm-1.8 25.2s.1 0 0 0v-.2.2zM63.6 19v.2c.1-.1.1-.2 0-.2zm-.2 1.2c-.1-.1-.1-.1-.1-.2-.1.2-.1.2.1.2zm-.9 18.2c0 .1 0 .1 0 0zm12.4-9.3s0 .1 0 0zm.1.2l-.2-.2c.1.1.1.2.2.2 0 .1 0 0 0 0zM61.2 38c0-.1.1-.2.1-.2-.2 0-.2.1-.1.2zm-.3-24.3v.2c.1 0 .1 0 .2-.1-.1 0-.1 0-.2-.1zM60.7 42c.1.1.1 0 0 0zm-.3-32.1c0-.1.1-.1.1-.1s-.1 0-.1.1zm1.1 6s.1 0 0 0v-.1.1zm-.8-.1s0 .1.1.1h.1c-.1 0-.1-.1-.2-.1zm2.8 3.4c0 .1 0 .1.1.2-.1-.1-.1-.2-.1-.2zm-3-4.6v-.2c-.1.1-.1.1 0 .2zm2.4 23.6c.1 0 .1-.1.1-.2-.1 0 0 .1-.1.2zm12.9-7.4c0-.1 0-.1-.1-.2 0 0 0 .1.1.2zm-13.5 6c.1 0 .1-.1 0 0 .1-.1 0-.1 0 0 0-.1 0 0 0 0zm.7-17.6l.1-.1c0 .1-.1.1-.1.1zm11.8 9.5s0-.1 0 0c0-.1 0-.1-.1-.1l.1.1c0-.1 0-.1 0 0zm2.2 3.9v-.2c-.1.1 0 .1 0 .2zm-.1.1zM63.5 20.9v-.1.1c0-.1 0 0 0 0zm-2.4-6.7v-.1.1zm3-4.9c-.1 0-.1 0-.2.1.2.1.2 0 .2-.1zm-2.9 28.2c.1 0 .1 0 0 0zm3.1-24.1s0 .1 0 0c0 .1 1.8 2.8 1.8 2.8l-1.7-2.7-.1-.1zm-3.3 1v-.1h-.1l.1.1zm4.1 7.6l-.1-.1c0 .1 0 .1.1.1-.1 0 0 0 0 0zm-4.9-11.5v-.1c-.1 0-.1.1 0 .1zm6.2 14.9v.1c.1-.1 0-.1 0-.1zm-4.7 13.3s0 .1-.1.2c.2-.1.2-.2.1-.2zm.2-8s.1 0 0 0c.1 0 .1 0 .1-.1 0 0 0 .1-.1.1zm13.3-1c-.1 0-.1 0-.2-.1.1.1.2.1.2.1zm-.1-.1c0-.1 0-.2-.1-.3.1.1.1.2.1.3zm-2.6 9.2c0-.1 0-.2.1-.3-.2.1-.2.1-.1.3zM69.9 33c.1-.1.1-.2.1-.3-.1.1-.1.2-.1.3zm-.7 10.2l.2-.2c-.1.1-.2.1-.2.2zm3.5-5c0 .1.1.1 0 0 .1-.1.1-.1.1-.2h-.1c.1.1.1.2 0 .2zm-10.5 4.7s.2-.1 0 0zm8.6-.9h.2v-.1c-.1 0-.1 0-.2.1zm.4-.5c.1 0 .1-.1.1-.2h-.1v.2zm1.4-2.7v.2h.1s.1-.1-.1-.2zm-.1-.7c.1.1.1.1 0 0 .1 0 .1 0 0 0zM72.3 24c-.1.1-.1.2-.1.2.1 0 .1-.1.2-.1l-.1-.1c.1 0 .1 0 0 0zm-7.9 11.9c.2-.1.2-.3.3-.4-.1.1-.3.3-.3.4zm1.3-15.2c-.1-.2-.2-.4-.4-.5.1.1.3.3.4.5zm-1.9 14.8v.4h.1c0-.1.1-.3-.1-.4zm3.4-28.6c0 .1 0 0 0 0zm-.7-2c.1 0 .1 0 0 0zm6.7 1.3c0-.1.1-.1 0 0V6v.2z"/><path d="M65.8 5.3v.2c.1.3 0-.1.1 0 0 .1.1.1.1.2.1.2.1 0 .2.2h-.1l.1.1h-.1l.2.2s.1-.1.1 0-.1 0 0 .1c0 0-.1 0-.1-.1h-.1c0 .1.1.1.2.2l.2.1h.1s-.1.1-.1 0l.2.1s.1.1 0 .1c.1.1.3.1.4.2h.1c.1.1.2.1.4.1l.1.1c.1 0-.1-.1.1-.1.1 0 0 .1.1.1s.2-.1.3 0h-.1c-.1.1-.2 0-.1.1 0-.2.4 0 .4-.1h.1c.1.1.1-.1.3-.1.1 0 .1 0 .1.1h.3l.1-.1h.1s0 .1-.1.1c.1.2.1 0 .3.1h-.1c.1.1.1.1.3.1 0 0-.2-.1-.1-.2h.1c0 .1.1 0 .1 0v.1c.1 0 .1-.1.1-.1.1 0 .1 0 .1.1.1 0-.1-.1.1-.1.1 0 .2 0 .3-.1.1 0 0 0 0 .1l.1-.1c.1 0 0-.1.1-.1 0-.1.2.1.3-.1v.1c0-.1 0-.1.1-.2h.1c-.1 0 0-.1.1-.2h.1v.1h-.1v.1l.1.1h.2c.1-.1.2-.3.4-.4v.2c-.1-.1-.2.1-.3.1.1 0 .1 0 0 0l.2-.1c0 .1.1 0 .1 0-.1-.1.1-.1.2-.2 0 0 0 .1-.1.1.1.1.1-.2.2-.1 0 0 .2-.1.2 0 .2 0 .5-.2.5-.3v.1s.1-.2.1-.3h.1c0 .1.1.2 0 .2 0 0 .1 0 .2-.1l-.1-.1h.2s-.1-.1 0-.2c0 0 .1.1 0 .1l.1-.2s0 .1.1.1c0 0 .1-.1.2-.1h-.1c.2-.1.1-.3.2-.3 0 0 .1.2.1.1v-.2l.1-.1v.3c.1 0 0 0 .1-.1.1 0 0 .1 0 .1l.2-.2c-.1 0 .1-.2 0-.2 0 0 0 .1-.1.1 0 .1-.1.1-.1.1-.1-.1 0-.3.1-.4l.1.1.1-.2v.1c.1-.1 0-.2.1-.3l.1-.1c-.1 0-.2 0-.3-.1 0 0 0-.1.1-.1v-.1c.1 0 .1.1.2.1v-.1s.1 0 .1-.1c-.1 0 .1-.2-.1-.1 0-.1 0-.1.1-.2 0 0-.1 0-.1-.1v-.1c0-.2 0-.3-.2-.4V3h-.1c0-.1.1.1.1-.1h-.2c0 .1.1.1.2.1 0 0-.1 0-.1.1-.1-.1-.2-.1-.3-.2-.1 0-.1-.1-.2-.1-.1-.1-.3-.2-.4-.4h-.1v-.1c-.1-.2-.3-.3-.4-.4h-.7c-.2.1-.4 0-.7 0h-1.9c0 .1.1.1.1.2l-.1.1c.1 0 0 .1 0 .1v.1h-.1s0 .1-.1.1c0 0-.1 0-.1.1 0 0-.1 0-.1.1-.1 0-.2.1-.3.1h-.1c0 .1.1-.1.1 0-.1-.1-.4.2-.5.1-.1.1.1 0 0 .1v.1h-.1c-.1 0-.2.1-.2.1h.1c-.2.2-.5.3-.7.5-.1.2-.1.1-.3.2l-.1.1c0-.1-.1 0-.1-.1-.1.2-.1.1-.1.3h-.1c0 .1 0 .1-.1.2 0-.1-.1 0 0-.1-.1 0-.2.1-.2.2 0 0 0 .1-.1.1h-.1c0 .1 0 .1.1 0 0 0 .1-.1.1 0v.1s0 .1-.1.1h-.1s-.1 0-.1-.1c0 0-.1 0-.1-.1 0 .1 0 0-.1 0s-.1 0-.2-.1h.1s-.1 0-.1-.1h.2s-.1 0 0 0c-.1.1-.1-.1-.3-.1h-.3v.2-.1c0 .1-.2.2-.2.3.1-.2.1 0 .2-.1 0 .1-.1.2-.1.2.2.4.2.4.2.5zm5.8 1.2c0 .1-.1.1 0 0-.1 0-.1 0 0 0zm-2.1.6zm4-4.5zm.7.5s0 .1 0 0zm.3.1s-.1 0 0 0c-.1 0 .1 0 0 0zm-.3 2.4s-.1.1 0 0c-.1.1-.2.1 0 0 0 .1-.1.1 0 0zm-4-3.3c-.1 0-.1 0 0 0zm-1.5 4.8v.1-.1zm-.9.1s0-.1 0 0zM63.6 5zm.2 0c0 .1.1.1.2.1 0 0-.1 0-.2-.1zm.5.4c-.1 0-.1 0 0 0-.1 0-.1 0 0 0-.1 0-.1 0 0 0-.1 0-.1 0 0 0zm-.1 0c-.1 0 0 0 0 0zm.3 0c.1 0 .1 0 0 0 0-.1-.1 0 0 0-.1 0 0 0 0 0zm.1-.1c-.1 0-.1 0 0 0zm-.1 0c-.1 0 0 0 0 0s0-.1 0 0zm-.2 0c-.1 0-.1 0 0 0zM64 5s0 .1 0 0zm.9.1s0-.1 0 0c0-.1 0-.1 0 0zm0-.1s0-.1 0 0zm-.5.3zm.7-.6zm0-.1s.1 0 0 0c.1 0 .1-.1 0 0 .1-.1.1 0 0 0zm-.1.2s0-.1 0 0c0-.1 0 0 0 0zm-.3.2s.1 0 0 0c0 0 .1-.1 0 0zm.2-.1s0-.1 0 0zm.2-.4s-.1 0 0 0zm-.1.1s0-.1 0 0c0-.1 0-.1 0 0 0-.1 0 0 0 0zm.2-.3c-.1 0-.1 0 0 0zm-.1-.1s.1 0 0 0zm-.1.1s0 .1 0 0c.1 0 0 0 0 0zm-.3.5c0 .1-.1.1 0 0 .1 0 .2-.1.2 0h-.2c0 .1 0 .1 0 0zm.2-.3c-.1.1 0 .1 0 0zm.3-.4zm0-.2zm-1.5-3c0 .1 0 .1 0 0 0 .1 0 0 0 0zm1.4 1.6c-.1 0-.1 0 0 0zm-.1-.2c.1.1.1 0 0 0zm.3 1.1s0-.1 0 0c0-.1 0 0 0 0z"/><path d="M59.2 2c0 .1 0 .2.1.3 0 .1.1.2.2.1l.1.1c-.1-.1.1 0 .1-.1v.1c-.1 0 .1.2 0 .2.2.2.3.5.5.7v-.1l.1.1s0 .1-.1 0c0 .1.1.1.1 0 .1.1-.1 0-.1.1.1 0 .1 0 .1.1v.1l.1.1v-.1c.1 0 .1.1.1 0 0 .1.3.3.3.4.1 0 .1.1.2.1 0 0 0-.1.1 0-.1.1 0 .1 0 .3 0-.1.2.1.2 0v.1c.2.1.2.3.4.4 0 0 0-.1.1-.1V5s.1-.1.1 0l.1.1h.5c.2 0 .4-.1.6-.1-.1 0 0 0 0 0v-.1h.2c0-.1.1-.1.1-.2s0-.1-.1-.1c0 0 .1 0 .1-.1 0 .1.1.1.1.2l.1.1v-.1s0 .1.1.1c.2.1.4.3.6.3.3 0 .4-.2.5-.4 0-.1.1-.3.1-.4 0 0 0-.1 0 0v-.1c0 .1.2.1.3 0l-.1-.1-.1.1c0-.1 0-.1.1-.1-.1 0-.1-.1-.1-.1v-.5s.1.1.1 0c0 .1.1.1.1.2h-.1v-.1s-.1.1 0 .2l.1-.1v.2c.1 0 0 0 .1-.1-.1 0 0-.2-.1-.1.1-.1 0-.1.1-.2-.1 0-.1-.1-.1-.2h.1v-.1c.1 0 .1-.1.1 0v-.3s-.1-.1 0-.1l-.1-.1c0-.1-.2-.2-.1-.4l-.1-.1s0-.2-.1-.2c.1-.1-.1-.3-.2-.4l-.2-.2s-.1 0-.1-.1l-.1-.1c-.1-.2-.3-.1-.3-.2h-.2V.9 1h-.1c0-.1-.1 0-.1-.1 0 0-.2-.1-.2 0l-.1-.1h-.3V.7h-.3c0-.1-.4-.2-.5-.4 0 .1-.1-.1-.1 0V.2c-.1 0-.1-.1-.2-.1V0c-.1 0-.2 0-.2.1 0-.1-.1-.1-.1 0V0s-.2-.1-.3 0h-.3c0 .1-.1 0-.2 0-.2-.1-.1 0-.2 0v.1c0 .1-.2 0-.2 0 0 .1-.2-.1-.3-.1-.2 0 0 .1-.1.1 0 0 0-.1-.1-.1s-.1.2-.2.2c0 0 .1 0 0 .1-.1 0-.2 0-.2.1s-.1.2-.1.2c-.1-.1-.1 0-.2.1 0 .1-.1.2-.1.1l-.1.2c-.1.1 0 .2 0 .2.1.2.1.2.1.4h-.1c.1 0 0 .2.1.4zm5.7 2.1c0-.1 0-.1 0 0zm.1-1.4c0 .1-.1 0 0 0 0 .3.2.2.1.4-.1.1-.1 0-.2 0v-.2.1s-.1-.1 0-.1v-.1c0-.1-.1-.2-.1-.3 0 .1.1.1.2.2zm-.4-.6s0 .1 0 0zm-.2-.5s.1.2 0 .2l-.1-.1.1-.1-.1.2-.1-.1c.1 0 .2-.1.2-.1zm-.4-.3c.1.1 0 .1 0 0h-.2.2zm-.9-.5c0 .1 0 .1 0 0-.1.1 0 0 0 0zM61.8.2s0 .1 0 0c-.1.1 0 .1 0 0 0 .1 0 .1 0 0-.1.1-.1.1 0 0-.1.1-.1.1 0 0-.1.1-.1.1 0 0-.1.1-.1.1 0 0zm3.5 3.5c0-.1 0 0 0 0zm-.2 0s0 .1 0 0c0 .1 0 .1 0 0 0 .1 0 .1 0 0zm0 .2s0-.1 0 0c0-.1 0-.1 0 0z"/><path d="M65.2 3.3s.1 0 0 0c.1 0 0-.2 0 0zm-.3.4zm.1-.3c0 .1 0 .1 0 0 0 .1 0 0 0 0zm-.1-.8c-.1 0-.1.1 0 0zm-.2 2.9c.1 0 .1 0 0 0 0 0 .1 0 0 0zm-.6.4zm-.3.2s-.1 0 0 0c-.1.2-.2.2-.2.3 0 0 .1-.2.2-.3zm-.6.4s0 .1 0 0zm0 0c.1-.1 0 0 0 0zm-.2.2c0 .1 0 .1 0 0 .1 0 0 .1 0 0zm0 .2c.1-.1 0-.1 0 0zm.2-.2c.1-.1 0-.2 0 0 0 0 0-.1 0 0zm.4-.3c.1 0 0 0 0 0zm-.9.8c0 .1.1 0 0 0zm.4-.3V7v-.1zm-.6.6v.1-.1zm-.2.3c.1 0 0 .1 0 0zm.3-.3s.1 0 0 0zm0 0c0 .1 0 .1 0 0 0 .1 0 .1 0 0zm.3-.4c0 .1 0 .2.1.1 0 0-.1 0-.1-.1zm-.1.3v.1-.1zm.2.1c0-.1-.1-.1 0 0 0-.1 0-.1 0 0 0-.1 0-.2 0 0h-.2.2zm-1 1.4zm.2.2c-.1 0-.1.1-.1.1l.1-.1zm0 0c0-.1 0-.1 0 0 0-.1 0-.1 0 0zm-.4.8c-.1-.1 0 .2 0 0zm.3-.3s-.1.1 0 .1v-.1zm0 0s0-.1 0 0c0-.1 0 0 0 0zm2.8-3.4zM65 6c0-.1 0 0 0 0zM48 57.4s-.1 0 0 0l-.1.2c.1.1.1.1.2.1.1-.2 0-.2-.1-.3.1 0 .1 0 0 0zm43.9-19.7c-.1 0-.1-.1-.1-.2-.1-.1-.2-.1-.3-.1-.1.1-.3 0-.4.1.1 0 .1-.1.1-.1s.2 0 .2-.1c-.2-.1-.3.1-.5.1v-.3l-.1-.1c-.1 0-.1 0-.1.1-.1-.1.1-.1.1-.2-.1 0-.1 0-.2-.1 0-.1.1-.1.1-.1l-.1-.1-.1-.1c-.3.2-.2.3-.5.1 0-.1.1-.2 0-.3h-.1c0-.1-.1-.1-.1-.2-.1 0-.1 0-.2.1 0-.1.1-.2.1-.2-.1-.1-.2.1-.2-.1.1 0 .1 0 .2-.1h.1c-.1 0-.1-.1-.2 0h-.1v-.1h-.3c0-.1.1-.1.1-.1h.1c0-.1-.1 0-.1-.1 0 0 0-.1-.1-.1-.2-.1-.4-.3-.6-.4-.4-.2-.8-.4-1.2-.4h-.1c0-.1-.1 0-.2 0h-.3c-.1 0-.1.1-.2.1s-.1-.1-.2-.1c-.1.1-.1.2-.3.3-.1-.1 0-.2-.1-.3 0 0-.1 0-.1.1.1.1.2.3.1.4-.1 0-.2.1-.3.1 0 .1.1.1 0 .1-.1.1 0 .2 0 .2 0 .1-.1.1-.1.2s-.1.3-.1.4c-.1.4-.2.8-.1 1.1-.1.2-.2.3-.2.5s-.2.3 0 .5c.1 0 .1-.1.2-.1v.2c.1.1.2.1.3.2 0 0 0 .1.1.1s.1.1.2.2.2.3.3.4l.2.2v.1c0 .1.1.2.2.3h.1s0 .1.1.1.1.1.1.2c.1 0 .2-.1.3 0 0 0-.1 0-.2.1l.1.1c.1 0 .1.1.2.1h.2s.1-.1.1 0v.2c-.1.1-.1.2 0 .2h.2c0 .1-.1.1-.1.2.1 0 .1.1.2.1v-.2s.1-.1.2-.1c0 .1 0 .2-.1.3-.1.2-.1.3 0 .5h.1s.1-.1.1-.2v.1c0 .1-.1.2-.1.3h.2c.1 0 .2-.1.2 0 0 0-.1 0-.1.1.2.1.3 0 .5 0v-.1l.1-.1v-.2s.1-.1.1 0v.1c.2-.3.2-.3.5-.4.1 0 .1 0 .2-.1l.1-.1c0-.1.1-.1.2-.2 0-.1-.1-.1-.1-.1-.1 0-.2-.2-.3-.2-.1 0 0-.1 0-.1 0-.1 0-.1-.1-.1h-.2l.1-.1c-.1 0-.3-.1-.4-.1s-.1-.1-.1-.1v-.2c-.1-.1-.2-.1-.3-.2-.1-.1-.2-.2-.4-.2h-.1c0-.1 0-.1.1-.2h-.2c-.1.1-.1 0-.1-.1-.1 0-.2 0-.2-.1.1 0 .1-.1.2-.1h-.3c0-.1-.1-.1-.2-.2.1 0 .2-.1.3-.1-.1 0-.1-.1-.1-.1l-.1-.1c0-.1 0-.1-.1-.1h-.1c-.1-.1 0-.2 0-.3-.1 0-.1-.1-.2-.1 0-.1.1-.3.1-.4v-.2c-.1-.1-.1-.2-.1-.4 0-.1 0-.2-.1-.2s-.1-.1 0-.1v-.1c0-.1.1-.1.1-.1h-.1c-.1 0-.2 0-.2-.1V36l.1-.1s0-.1.1-.2c.2 0 .2 0 .4-.1.1.1.1.2.3.2 0 0 0-.1.1-.1.1.1.2.1.2.2 0 .2.2.3.3.4l.2.2c.3.3.5.6.7.9.1.1.2.3.3.5.1.1.2.3.3.4.1.2.2.2.3.4 0 .1.1.1.1.1.1-.1-.1-.2.1-.2 0 .1.1.2.2.3s.1.2.1.3c0 .2.1.4.2.6h.2v-.3c0-.1.1-.2.1-.2s0-.1.1-.1h.1s0 .1.1.1h.2c0-.1 0-.2-.1-.3h.1l-.1-.1c.1 0 .2-.1.2-.2 0 0-.1-.1-.1-.2 0 0-.1-.1 0-.1.1-.1 0-.2 0-.2v-.1c.1 0 .2.2.4.1 0-.1-.1-.1-.1-.2-.1-.2-.2-.3-.2-.3zm-5.8-2.4c-.1 0-.1 0 0 0-.1 0-.1 0 0 0zm0-.4c.1.1.2.1.2.2-.2 0-.2 0-.2-.2zm.2.4c.1 0 .1 0 0 0zm.2-.5c0 .1 0 .1.1.2-.2-.1-.2-.1-.1-.2zm.1 4.8c-.1.1-.1.1 0 0-.1-.1-.1-.1 0 0zm.1-4.7s.1 0 0 0c.1.1.1.1 0 0 0 .1 0 0 0 0zm.1 5.1c0-.1-.1-.1 0 0-.1-.1 0-.1 0 0zm.1-.3c0-.1 0-.1 0 0 .1-.1.1 0 0 0zm.8 1.1s.1 0 0 0c.1.1.1.1 0 0 0 .1 0 0 0 0zm.1-2.1c-.2 0-.1 0 0 0zm-.3-.2s-.1 0 0 0c-.1 0-.1 0 0 0-.1 0 0 0 0 0zm1.2-3.3s0-.1 0 0zm.8 1.5s-.1 0 0 0c-.1 0 0 0 0 0zm-.2-.6c-.1 0-.1-.1 0 0-.1-.1 0-.1 0 0 0-.1 0-.1 0 0zm.1.8c0-.1.1-.1.1-.2.1.1.1.3.2.4-.1 0-.1 0-.2-.1 0 0-.1 0-.1-.1zm.3.5v-.2c0 .1.1.2 0 .2 0 .1 0 0 0 0zm.2.4c0-.1 0-.1 0 0 .1-.1.1-.1 0 0 .1-.1.1-.1 0 0zm.5-1.1c0 .1 0 .1 0 0zm0 1.8s0-.1 0 0c0-.1 0-.1 0 0 0-.1.1-.1 0 0 .1 0 .1 0 0 0zm0-1.5c0-.1 0-.1 0 0zm.6.7v-.2c.1 0 .1.1.2.1-.1.1-.1.1-.2.1zm.3.3c.1-.1.3-.1.4 0h-.4zm.4.5c0-.1 0-.1 0 0zm-4.4 4.3c-.1.1-.1.2-.2.3s-.3.2-.5.3c-.1.1-.2.1-.3.1-.1 0-.1.1-.2.1 0 0-.1.1-.2.1 0-.1-.1-.1-.1-.2-.1 0-.2-.1-.3-.1-.2 0-.3 0-.4-.1H85V43l.4-.4c0-.1.1-.1.2-.1.1-.1.1-.2.2-.2.3-.3.5-.7.7-1 0-.1.1-.2.1-.3v-.2c-.1 0-.1 0-.2-.1 0 0 0-.1.1-.1-.1-.1-.2-.3-.3-.3-.1-.1-.1-.3-.2-.4h-.1s-.1-.1 0-.1c.1-.1.1-.1 0-.2-.1 0-.2-.1-.2-.2-.1-.2-.3-.2-.5-.2s-.3.1-.5.1c-.1 0-.2.1-.2 0-.2 0-.3.1-.4.2H84s0-.1-.1-.1c-.1.1-.1.2-.1.3-.1-.1-.2-.1-.3-.2v.3c-.1.1-.2-.1-.3.1 0 0 0 .1.1.1v.1c-.1 0-.1-.1-.1-.1-.1.1-.2.1-.2.2s.1.2.1.3h-.2c-.1 0-.1-.1-.2-.1 0 .1.1.2.2.3v.2h-.2s0 .1.1.1c0 .1-.1.1-.1.2.2.1.2.2.2.3v.5c.1-.1.2-.1.2-.1v.1h-.2v.2c.1 0 .1 0 .2.1.1 0 .1 0 .2.1-.1.3-.1.4-.2.4-.1.1-.1.3 0 .4l.2.2c.1 0 .1 0 .1.1 0 0-.1 0-.1.1h.2c0 .1-.1.2 0 .3.1 0 .1-.1.2-.1.1.1.2 0 .2 0 .1 0 .1 0 .1.1-.1 0-.2 0-.2.1l-.1.1v.1h.1s.1 0 .1-.1c.1.1.1.2.2.2.1.1 0 .1-.1.1h.2c.1.1.2.1.2.2v.1l.1-.1h.2c-.1.1-.1.1-.1.2.1.1.2 0 .3 0v.2c.1 0 .2-.1.3-.1l.1.1c.2 0 .3-.1.5 0h.1c.2.1.4 0 .6 0 .1 0 .1 0 .2-.1s.3-.2.5-.3c.1-.2.3-.2.4-.3h.4v-.1c0-.1 0-.1.1-.2v-.3c-.1-.1 0-.1 0-.2 0-.2.1-.5 0-.7 0-.1 0-.2-.1-.3-.1 0-.1-.1 0-.2 0-.1 0-.2-.1-.3-.1 0-.2.1-.2.1-.1.2-.3.4-.4.7zm-3.5-1.7s.1 0 0 0zm-.1.4c-.1 0-.1.1-.2.1.1-.1 0-.1 0-.1.1-.1.1 0 .2 0zm-.5-1.2h.2c-.1.1-.1.1-.2 0zm.2 1.3c-.1-.1-.1 0 0 0zm-.2-.4c0 .1-.1.1-.2.1.1-.1.1-.1.2-.1zm.1 1.5l-.2-.2c.1-.1.1 0 .2 0 .1.1.1.1 0 .2zm.3-.3c-.1-.1-.3-.1-.4-.2h.4v.2zm-.3-.3c0-.1.1-.1.2-.1s.1-.1.1-.1l.2.2h-.5zm.6-.3l-.3-.2h.3c0 .1-.1 0-.1.1l.1.1c-.1 0 0 0 0 0zm1.1-1.2c0 .1 0 .1 0 0 0 .1 0 .1 0 0 0 .1 0 0 0 0zm-.5.9c.1-.1.1-.1.3-.1-.2.2-.2.2-.3.1zm.4-.1l-.2-.1c-.1.1-.1 0-.2 0 0 0 0-.1.1-.2 0-.1.1-.1.1-.1s.1 0 .2-.1c0-.1 0-.2.2-.2v.2h-.2s0 .1.1.1c.1.1.2.2.2.3-.2 0-.3.1-.3.1zm.8 2.2s-.1 0 0 0c-.1 0 0 0 0 0zm.1.1c0-.1 0-.1 0 0zm.3-10.5l.1-.2H86l.1-.1v-.1c.1 0 .1 0 .2-.1.1 0 .1-.1.2-.2.1 0 .3 0 .4.1v.1c0 .2.1.3.3.2.1-.1.2-.1.3-.2.1 0 .1-.1.1-.1.1.2.2.3.3.5 0 .1.1.1.2.1 0 .1.1.1.1.2.1-.1.1-.1.2 0v.3c.1-.1.2-.1.3-.1 0 .1.1.2.1.3h.1v.2c.1 0 .2-.1.3 0 0 .1-.1.2 0 .3l.1-.1c.2.1.2.1.3.2 0 0-.1 0-.1.1s.1.1.1.1c.1 0 .2-.1.2-.1h.1c.1.1 0 .2.1.2l.2-.2v.4l.3.3c0-.1 0-.2-.1-.2v-.2h.1s0 .1.1.1c0 .1.1.1.1.1.1-.1.1-.1.1 0v.1h.1c0-.1 0-.1.1-.2.1 0 .2-.1.3-.2.1 0 .1.1.2.1.1-.1 0-.1 0-.2h-.2c-.1 0-.1-.1-.1-.1l.1-.1h.2c0-.1 0-.2.1-.2 0-.1 0-.1.1-.1h.1s0-.1-.1-.1c-.1-.1-.1-.1-.2-.1h-.1v-.2h.2c-.2-.1-.4-.2-.4-.4l-.1-.1c-.1 0-.2-.1-.2-.1-.1 0-.1-.1-.1-.2l-.2-.2c-.1 0-.1-.1-.2-.2 0-.1-.1-.1-.2-.1s-.1-.1-.2-.2-.2-.3-.4-.3c0-.1-.2-.1-.3-.2 0 0 .1-.1 0-.1s-.2-.1-.3-.2c0-.2 0-.4.2-.5 0 0 .1-.1.1-.2-.2 0-.2-.2-.2-.4 0-.1 0-.2.1-.4v-.4c.1-.1.1-.1.1-.2V29c0-.1 0-.1-.1-.2s-.3-.2-.3 0c-.1.1-.2.1-.3.2 0 0-.1 0-.1.1s-.1.1-.1.1c-.1 0-.2.1-.3.2-.1.2-.3.3-.4.4 0 .1-.1.1-.2.1-.2-.1-.4-.1-.5-.4 0-.1-.2-.2-.3-.3-.1 0-.2 0-.2.1v.3c-.1 0-.1 0-.1-.1-.1-.1-.2-.3-.3-.3v-.1h.1c.1 0 .1 0 .2.1 0-.1-.1-.1-.1-.2-.2-.1-.3-.1-.5-.2-.1-.2-.1-.2-.3-.1.1.1.1.2 0 .3v.4c-.1.2-.1.4 0 .7.1.2.1.5.3.6h.2c0 .1.1.2.2.3l.3.3c-.1.2-.2.4-.4.6-.1.1-.1.1-.2.1 0 0-.1 0-.1.1-.1.1-.1.2-.1.3s-.2.1-.2.3c0 .1-.1.2-.1.3s-.1.2-.1.3v.1c.3 0 .6 0 .8-.2zm5 1.3c0 .1 0 .2.1.3v.2H91c.1-.2.1-.3.1-.5zm-.5.2c.1 0 .1 0 0 0zM86 33.2s0-.1 0 0zm-5.1 13l.3-.3c0-.1.2-.2.1-.3s-.2-.1-.3 0c0 0-.1 0-.1.1-.1-.2-.2-.4-.4-.4-.1 0-.1-.1-.1-.2V45c-.1 0-.2-.1-.2-.2s-.1-.2-.2-.2l-.1-.1c-.1 0-.2 0-.3.1v.1c0 .1.1.2.1.2-.1.1-.2.2-.1.3h.1c0 .1 0 .2-.1.2-.1.1 0 .2 0 .2v.1h-.2c-.1.1 0 .3 0 .4 0 .1-.1.1-.2 0 0-.1-.1-.1-.2-.1 0 .1.1.2.1.2 0 .1 0 .1-.1.1 0 0-.1 0-.1-.1-.1-.1-.1-.2-.2-.2h-.1s0 .1.1.1c.1.1.2.3.2.4v.1h-.1c0-.1-.1-.1-.1-.1-.1 0 0-.1-.1-.1s-.1.1-.2.1l.2.2c-.1 0-.1.1-.1.1 0 .1 0 .3-.1.4-.3-.2-.7-.4-1-.4l-.2.2c0 .2.1.3.2.4 0 .2.2.2.2.4l-.1.1c0 .1 0 .2.1.2.2.2.4.5.5.8s.2.5.3.8c0 .1.1.2.2.3 0 .1.1.1.2 0 0-.1 0-.1.1-.3 0 .2.1.2.2.2h.2c-.2.1 0 .2 0 .2-.1.1 0 .2.1.2v.3c.2 0 .2 0 .3.1 0 .1.1.1.1.2l-.1.1c.1 0 .1.1.1.2h.1c0 .1.1.2.1.3h.2c.1 0 .2 0 .2-.1s.1-.1.2-.2c.2 0 .4-.1.6-.1.1 0 .2-.1.3-.1l.1-.1c0-.1-.1-.1-.1-.2l.1-.1c-.1-.2-.1-.4-.2-.6 0-.1-.1-.1-.1-.2-.1-.1-.2-.2-.4-.2 0-.2-.1-.2-.2-.3 0-.1-.1-.3-.1-.4l.2-.2c-.5.1-.6.1-.6.1-.1.1-.1 0-.1-.1 0 0 .1 0 .1-.1.1-.1.1-.1.1-.3s-.1-.5 0-.8v-.3c.1-.3.2-.7.6-1zm-2.5 3.2c.1 0 .1 0 0 0 .1.1 0 .1 0 0 0 .1 0 .1 0 0zm.1.4c0-.2.1-.1 0 0zm.2-.2c-.1 0-.1-.1 0 0-.1-.1 0-.1 0 0 0-.1 0-.1 0 0zm0-2.5c0-.1 0-.1 0 0 0-.1 0-.1 0 0 0-.1 0-.1 0 0zm.3-.5c0 .1-.1.1 0 0-.1 0-.1 0 0 0zm18.1-13.4c0-.2 0-.4-.1-.7s-.3-.6-.6-.8c-.1 0-.2-.1-.3-.1-.1 0-.2-.1-.3-.1-.2 0-.4-.1-.6.1h-.1c-.1-.1-.1 0-.2 0l-.1.1c0-.1 0-.1-.1-.3v.3c-.1 0-.1-.1-.2-.1s-.1.1-.1.1-.1.1-.1 0c-.1-.1-.1.1-.2 0 0 0 0-.1-.1-.1 0 0 0-.1-.1-.1s-.1-.1-.2-.1 0 .1-.1.2h-.2c0-.1 0-.1-.1-.1h-.1l-.1.1c-.1-.2-.2-.2-.4-.1-.1-.1-.1-.1-.1-.2l-.2-.2c-.1-.1 0-.2 0-.3.1-.2.1-.3-.2-.4h-.4c.1-.2.1-.4.1-.6v-.6c.1-.1.2 0 .3-.1l-.2-.2c-.2 0-.4.1-.6.1v.4c-.1 0-.2-.1-.3-.1.1.1.1.2.1.3 0 .1-.1.2-.1.3-.1.2 0 .3 0 .4s.1.1.1.2c-.1 0-.1.1-.1.2.1 0 .1 0 .2.1 0 .2-.1.2-.1.2 0 .1-.1.1-.1.2s-.1.1-.1.2-.1.2-.1.3v.4c.1 0 .1.1.2 0l.1-.1v-.2h.2v.2c-.2.1-.4.1-.5.2.1.1.2 0 .2 0v.1c.2-.1.3-.1.5-.2v.2c-.1.1-.1.2 0 .3v.2c.1-.1.1-.2.2-.3 0-.1 0-.1.1-.2h.2v.3c-.1.1-.1.2-.2.3l.1.1c0-.1.1-.2.1-.3.2-.1.4-.1.6-.2 0 .1.1.1.1.2l.1-.1h.1c.1.1.2.1.3 0h.1c.2 0 .3.1.5-.1h.1c.4 0 .7-.1 1.1-.1.1 0 .2 0 .3.1.1.1.2.1.1.2 0 0 0 .1.1.1 0-.1.1-.1.1-.1.2 0 .2.1.1.2l-.1.1c0 .1.1.1.2.1 0 0 0-.1.1-.1s.1-.1.2-.2h.1c0 .2 0 .3-.1.5h.4c-.1.1-.2.1-.2.2.1.1.2 0 .3 0l-.1-.1c.1 0 .2-.1.2-.1l.1-.1V33c.2.3.2.3.2.2zm-5.6-1.3s-.1 0 0 0c-.1 0 0 0 0 0zM92 30s0 .1 0 0c0 .1 0 .1 0 0 0 .1 0 .1 0 0 0 .1 0 0 0 0zm-.1.6c-.1 0-.1 0 0 0zm-.1 1.4c.1 0 .2 0 .4-.1-.2.1-.2.1-.4.1zm2.2-.1v-.1c0 .1.1.1 0 .1zm-8.2 14.8c-.3-.1-.3-.1-.5-.2s-.2-.4-.5-.5c-.1-.2-.3-.3-.4-.5-.1-.1-.2-.3-.4-.4l-.1-.1c0-.1 0-.1-.1-.1s-.1-.1-.1-.2v-.1l-.3-.3-.6-.6c-.2-.2-.4-.4-.6-.5V43c-.1-.1-.2-.1-.2-.2l-.1-.1c-.1 0-.2-.1-.3-.1-.1 0-.1 0-.1-.1-.1-.1-.2-.2-.4-.3l-.3.3c.1.2.1.5.3.6-.1 0-.1.1-.2.1v.2c0 .1.1.2.1.2l.2.2h.1l.1-.1c.1.2.2 0 .2.1.1.1-.1.1 0 .2v-.1h.1c0 .1.1.2.1.3 0 0 0 .1.1.1.1.1.1.2.2.2.1.1.1.3.2.3 0 .1.2.2.2.3s.1.2.3.2v.2c0 .1.1.1.1.2v.1c0 .1.1.1.1.2h.3v.3h.3v-.1s0-.1.1-.1.1 0 .1.1-.1.1-.1.2c.1 0 .3.1.4.1.1.2.1.2.1.3 0 .2-.1.3-.1.5s.1.4.2.4c.2 0 .3.1.4.1v.1c.1 0 .1-.1.2-.1s.2-.1.2-.2H85h.1c.1-.1.2-.1.3-.2h.1c.1.1.2 0 .4.1.1-.4-.1-.6-.1-.8zm-2.2-1s-.1.1 0 0c-.1 0-.1 0 0 0-.1-.1-.1 0 0 0zm.1.1s0 .1 0 0c0 .1-.1.1 0 0-.1 0 0 0 0 0zm-.1.4c.1-.1.1-.1.2-.1v.1c0 .1-.1.1-.2 0zm.8.6s0 .1 0 0c-.1.1-.1.1-.1.2v-.1s0-.1.1-.1zm.2.6c-.1.1-.1.1 0 0-.1 0-.2-.1-.3-.1v-.1c.1 0 .1.1.2.1l.1.1c.1-.1 0 0 0 0zm.1-.2c-.1 0-.1-.1 0 0 0-.1 0-.1 0 0zm8.7-11.3c0-.1-.1-.2 0-.3h-.2s-.1 0-.1-.1-.1-.1-.1-.2v-.1s0-.1.1-.1c-.2 0-.3 0-.4.1 0-.1.1-.2.1-.3-.1-.1-.2 0-.3-.1-.1-.1-.2 0-.3 0l-.1.1h-.2s-.1 0-.2.1l.1.1c.1 0 .2 0 .3-.1l.2.2c0 .1-.2.1-.2.2s-.1.2-.1.2h-.1v.2c0 .1-.1.1-.1.2l.1.2c0-.1.1-.3.1-.4h.2v.1c0 .1.1.1.1.2s-.1.2-.1.3h.1s.1 0 .1-.1.1-.1.2-.1c0 .1 0 .2-.1.3.1 0 .2.1.2.1-.1 0-.1.1-.1.2s-.1.2-.2.2c0 .1.1.2.1.3 0 .2-.1.3-.1.5.1.1.1-.1.2-.1 0 0 .1 0 .1.1.1 0 .1-.1.1-.1.1 0 .2-.1.2-.2s.1-.2.2-.2c0-.1-.1-.1 0-.2 0-.1 0-.2.1-.3v-.1s0-.1.1-.1c.2-.1.2-.3.4-.4.1-.2.1-.3 0-.5-.2.3-.3.2-.4.2zm-1.3.2s0-.1 0 0c0-.1 0-.1 0 0 0-.1.1-.1 0 0zm.2-.6c-.1-.1 0-.1 0-.2.1.1.1.1 0 .2.1 0 0 0 0 0zm.3 1.3c0 .1 0 .1 0 0 0 .1 0 .1 0 0zm0-.3c.1 0 .1 0 0 0 .1-.1.1-.1 0 0zm.8-.5c.1 0 .1 0 0 0zM79 41.1c.3.2.4.3.6.4.1 0 .1.1.2.1 0 .1 0 .1-.1.2s-.1.1-.1.2.1.1.1.2l.2.2h.3c.1-.1.3-.2.4-.4 0-.1.1-.1.1-.2 0-.2 0-.4-.1-.6 0-.1.1-.2.1-.2v-.2c-.1-.1-.1-.2-.1-.3s-.1-.2-.2-.2h-.1c-.1.1-.3.1-.5.1-.2-.1-.3 0-.4.1-.1 0-.2 0-.2.1s-.1.1-.2.2c.1 0 .1.2 0 .3zm1.3-.2c.1 0 .1.1 0 0-.1.1-.1 0 0 0zm16.2-6.4c-.1 0-.1-.1-.2-.1s-.1 0-.2.1v.2h-.3c-.1.1-.1.2-.2.2-.2.1-.4.3-.5.5-.1.1-.1.2-.1.3v.3c.3-.1.4-.3.6-.5 0 0 0-.1-.1-.2.1 0 .2-.1.3-.2.1-.1.2-.1.3-.2.2 0 .3-.1.4-.2.1-.1.2-.1.2-.3h-.2c.1 0 0 0 0 .1z"/><path d="M91.5 35.5s.1.1 0 0c.1.1.1.1.1.2-.1 0-.1 0-.2.1h.2c.1-.1.1-.2.2-.3l-.2-.2c-.1.1-.3.2-.4.2v.1c.2 0 .3 0 .3-.1zm-7.1 12.6l.3-.3c-.2-.1-.2-.1-.4-.1.1.2-.1.3.1.4zm12.3-14c-.2.1-.2.1-.3.2.2.1.4 0 .6 0v-.1c-.2-.1-.2-.1-.3-.1zm-.3-.2s0-.1 0 0c-.1 0-.1 0-.2.1l-.1-.1c0 .1 0 .2.1.2s.1-.1.2-.2zm-4.3.6s-.1 0 0 0c-.2.1-.2.2-.1.3.1 0 .2 0 .1-.3zm-1.9 1.9c.1 0 .1-.1.2-.1-.1-.2-.1-.2-.2-.2-.1.1-.1.2 0 .3zm1.1-1.1c.1 0 .1 0 .2-.2-.1 0-.2.1-.4.1v.1h.2zm-11.9 9.4c-.1.1-.1.1 0 .2h.1l-.1-.2zm4.3 2c.1 0 0 .1 0 0 .1 0 .1-.1.1-.2-.1 0-.1.1-.2.1 0 0 .1 0 .1.1zm3.3-6.1c.1 0 .2.1.3.1v-.1H87zm6.2-7.4s-.1 0 0 0c-.1.1-.1.1 0 0-.1.1 0 .1 0 0 0 .1 0 0 0 0zm-7.1 1.1c0 .1.1.1.2.2-.1-.1-.1-.2-.2-.2 0 0 0-.1 0 0zm4.9 1.3c0-.1 0-.2-.2-.2.1.1.1.3.2.2zm-3.6 1.3c.1-.1.1-.2-.1-.2h-.1c.1.1.1.2.2.2zM72.6 53.1c0 .1 0 0 0 0 .1-.1.1-.2.1-.2-.1.1-.1.1-.1.2z"/><path d="M90.9 35.3c-.1 0-.1.1-.1.2.1-.1.1-.1.1-.2.1.1.1 0 0 0 .1 0 .1 0 0 0zm.4.7c.1-.1.1-.1 0-.2-.1 0-.1.1 0 .2zM72.2 52.4c0 .1 0 .1 0 0zm7-7.2c0 .1-.1.1 0 0-.1.1-.1.1 0 0 0 .1 0 .1 0 0zm-.3.4c.1 0 0 0 0 0zm12.7-9.7v.2c.1-.1.1-.1 0-.2zm-12.4 10zm10.7-10c0-.1-.1-.1 0 0-.1 0 0 0 0 0zm2.8-2.8c-.1 0-.1 0 0 0zm-1.4 2.4c0-.1 0-.1 0 0 0-.2 0-.1 0 0-.1-.1 0-.1 0 0zm-8.4 6.8c0-.1-.1-.1 0 0-.1 0 0 0 0 0zm13.2-8.8zm-4 3.3c.1-.1.1-.1 0 0-.1 0 0 0 0 0zm2.8-1h.2c-.1 0-.1-.1-.2 0zm2.1-2.1s-.1.1 0 0zm-4-.3s0 .1 0 0c0 .1 0 0 0 0zm-2.1 3.7s.1 0 0 0c.1 0 .1 0 0 0zm-8 4.7s0-.1 0 0c-.1-.1-.1 0 0 0-.1 0-.1 0 0 0zm1.9 6.1c.1 0 .1 0 0 0 .1 0 .1 0 0 0 .1 0 .1 0 0 0zm-6.1-1.5c0-.1-.1-.1 0 0-.1-.1-.1-.1 0 0zm-3.8 5.7c.1 0 .1 0 0 0 .1 0 0-.1 0 0 0-.1 0-.1 0 0-.1 0-.1 0 0 0-.1 0-.1 0 0 0zm14.5-10.4s0 .1 0 0c0 0 .1 0 0 0 .1 0 0 0 0 0zm.1-.1s.1 0 0 0c.1 0 .1-.1 0 0 .1-.1 0-.1 0 0 0-.1 0 0 0 0zm2.2-8.9c0 .1 0 .1 0 0 0 .2 0 .1 0 0 0 .1 0 .1 0 0zm-.9 2.4s0 .1 0 0c.1.1.1.1 0 0zm1 .3s0 .1 0 0zm-1.1-.1c.1 0 .1-.1 0 0 0-.1 0-.1 0 0zM78.8 45.8c0 .1 0 .1 0 0 0 .1.1.1 0 0zm5.1 1.1c.1 0 .1 0 0 0 .1 0 .1 0 0 0 .1 0 0 0 0 0zm2.2-16s-.1 0 0 0c-.1 0 0 0 0 0zm6.3 2.5c.1 0 .1 0 0 0zm-.4-.1s0-.1 0 0c0-.1 0-.1 0 0zM80.2 51.6s.1 0 0 0c.1 0 .1 0 0 0 .1 0 .1-.1 0 0zm-.9-11.3s-.1 0 0 0c-.1 0 0 .1 0 0zm16.8-6s-.1 0 0 0zm-3.8.2c-.1 0-.1 0 0 0zm-4.8 3c-.1.1-.1 0 0 0zm4.9-4.6zm-2.9-2.2s.1 0 0 0c.1 0 .1 0 0 0zm6.5 2.9s-.1 0 0 0zm-4.3 1.2s.1 0 0 0zM79.3 51.1s.1 0 0 0c.1 0 .1 0 0 0 .1 0 0 0 0 0zM83 40.5c0-.1 0-.1 0 0 0-.1 0-.1 0 0zm5.3-1.1c0 .1 0 .1 0 0zm-4.1.1c-.1 0-.1 0 0 0zm-1 4c.1 0 .1 0 0 0zm4.1 1.2s0 .1 0 0c0 .1 0 0 0 0zm-1.4 2.7s0-.1 0 0zm-1.1.4s-.1 0 0 0zm6.7-11.7c.1 0 .1 0 0 0zm0 1.2c0 .1 0 .1 0 0 0 .1 0 .1 0 0zm-4.1-.4s0 .1 0 0zm0 .4c0-.1 0-.1 0 0zm-2.8 3.8c0 .1 0 .1 0 0l.4.1c-.1-.1-.2-.1-.4-.1zM35.9 58.5c-.1-.2 0-.4-.2-.5v-.2c-.1 0-.2 0-.2-.1l.1-.1c-.2 0-.1-.2-.2-.3h-.2c-.1-.1 0-.2 0-.4-.1 0-.1-.1-.2-.1v-.2c-.1-.1-.2.1-.3.1 0-.1 0-.1.1-.1s.1 0 .1-.1h-.1c-.1 0-.2-.1-.1-.2-.1-.1-.3.1-.4.1 0-.2.1-.2.2-.2-.1-.1-.2-.1-.3 0h-.1v-.3c-.1 0-.2 0-.2-.1-.1-.2-.2-.1-.3 0 0-.1 0-.1-.1-.2s-.2 0-.3.1c-.1-.1-.1-.2-.2-.2s-.1-.1-.2 0h-.4s-.1-.1-.2-.1-.1.1-.2.1c-.2 0-.3.1-.5 0h-.2c-.1 0-.2 0-.3.1l-.4.4c-.1 0-.1 0-.2-.1l-.2.2c-.1.1-.1.2-.2.2-.1.1-.2.1-.2.2-.1.2-.2.3-.4.4 0 .1-.1.2-.1.2 0 .1-.2.1-.2.2-.1.2-.2.3-.3.5 0 0 0 .1.1.2l-.1.1s-.1.1 0 .1.2-.1.3-.2c0 .1 0 .1.1.1.1-.1.2-.2.4-.1 0 .1 0 .2-.1.3h.1c.1 0 .3-.1.4-.1h.2s.1 0 .1.1c.1 0 .1-.1.2 0v.1c0 .1-.2.2-.1.3-.2 0-.2.1-.2.1.2.1.2.1.1.3.1.2.1.3 0 .5l.1.1s0 .1-.1.1c0 0 0 .1.1.1-.1 0-.1.1-.1.2l.1.1c0 .1.1.2 0 .3s-.1.3-.1.5v.1c.1.1.1.2.1.3v1.1c-.1.3-.1.7-.1 1 .3 0 .3 0 .2-.2v-.1l.1.1v.4c-.1 0-.1 0-.2.1.1.1.2 0 .3.1 0 .1-.1.2-.1.3 0 .1-.1.2-.1.3 0 .1.2 0 .2.1h-.2c-.1 0-.1 0 0 .1s0 .2.1.3c.1 0 .1-.2.2-.1v.3c-.2-.1-.2.1-.4.1v.2c0-.1.1-.1.1-.1 0-.1.1-.1.1 0v.1h.2c0 .2-.2.1-.2.1 0 .1-.1.1-.1.2 0 .2.1.3.1.4s0 .3.1.4c.1 0 .2 0 .2-.1l-.1-.1c.1-.1.2-.1.3-.2.1.1.1.1.2.1l.2-.2c0-.2.1-.2.2-.3l.3-.3c0-.1.1-.1.2-.1s.1-.1 0-.2-.1-.1 0-.2v-.3c-.1 0-.2-.1-.2-.2.2-.1.2-.1.2-.3v-.7l-.1-.1c.1 0 .1-.1.1-.1 0-.1-.1-.2-.1-.2.1-.1.1-.1.1-.2s0-.1-.1-.1c-.1-.1 0-.1 0-.2.1.1.3 0 .4-.1 0-.1.1-.1.2-.1.1-.1.2-.2.4-.3.1 0 .1.1.2.2.1 0 .3-.1.4-.2l.3-.3h.1s.1 0 .1-.1c.1-.2.3-.3.5-.4.1-.1.2-.3.3-.4.2-.2.3-.4.4-.6.1-.2.2-.5.4-.7-.1-.2-.1-.3.1-.4 0-.1-.1-.3 0-.4v-.2c-.1.1-.1 0 0-.1zm-5.1 6.9c-.1-.1-.1-.1 0 0 0-.2.1-.1 0 0 .1-.1 0-.1 0 0zm0 .5s-.1 0 0 0c0-.1 0-.1 0 0 0-.1 0-.1 0 0zm.1-.1c-.1-.1-.1-.1 0 0 0-.1 0-.1 0 0 0-.1 0-.1 0 0zm0-4.4c.1 0 .1.1 0 0 0 .1 0 .1-.1.2.1-.1 0-.2.1-.2zm.3.3c-.1.1-.1.2-.2.1v-.1s.1-.1.2 0zm-.4.2c0-.1 0-.1 0 0 0-.1 0 0 0 0-.1 0-.1 0 0 0-.1 0-.1 0 0 0-.1 0-.1 0 0 0zm-.1.3c.1-.2.2-.1.4-.1v.1h-.4zm.1.3v-.2c.1 0 .1 0 .2.1h.2c-.1.1-.3.1-.4.1zm.3-.4c0 .1 0 .1 0 0zm0 .7c0-.1-.1-.1-.1-.2.1 0 .1.1.1.2zm-.3-.1h.3-.3zm.2.7s-.1-.1 0 0c0-.1 0-.1 0 0 0-.1 0-.1 0 0zm0-.4c0-.1.1-.1.2-.1 0 .1-.1.1-.1.2-.2 0-.2 0-.1-.1zm.2 1.3s0 .1 0 0c0 .1 0 .1 0 0zm-.1.3h.2c-.1 0-.1.1-.2 0zm0-2.6c.1.1.1 0 0 0zm1.1 2.9c-.1.1-.2 0-.3 0h.3zm-.1-.9s0-.1 0 0zm2.1-4.2c-.1 0-.2 0-.3-.1 0 .1 0 .2-.1.2-.1.1-.1.1 0 .2 0 0 0 .1.1.1 0 .1-.1.1-.2.1h-.1v.1c0 .1.1.2.1.2h-.2.1c-.1.1-.1 0-.1 0-.1 0-.2-.1-.4-.1 0 .1.2.1.2.1-.1.1-.1.1-.3.1-.1 0 0 .1 0 .1l-.1.1h-.2c0-.1.1-.2.1-.3-.1-.1-.2 0-.3.1s-.2.1-.3 0c0-.1.1-.1.1-.2v-1c0-.1.1-.3 0-.4v-.2c.1 0 .1-.1.2-.1.1-.3.2-.5.3-.8v-.1c0-.2.1-.4.1-.6v-.1c.1.1.2.1.3.2h.1c0 .1.1.1.1.2l.1.1c.2 0 .2.1.3.2 0 0 0 .1-.1.1.2 0 .2.2.2.3.1.1 0 .3.2.3v.2c0 .1-.1.2 0 .2 0 .1.1.1.1.2-.1 0-.1 0-.2.1 0 .4.1.4.2.5zm-.6.7c-.1 0-.1 0 0 0-.1 0-.1 0 0 0zm1.2-3.4c0-.1 0 0 0 0zm.1-.2c.1 0 .1 0 0 0 .1 0 0 0 0 0zm-1.5 3.5s.1 0 0 0zm15.8 3.4c0-.3.1-.5-.1-.7v-.3c-.1-.1 0-.2 0-.2 0-.1 0-.2-.1-.2v-.1c.1 0 .2-.1.3-.1V62c-.1 0-.1 0-.2-.1 0-.1.1-.2.1-.3s-.1-.1-.1-.2h.1v-.1s-.1 0-.1-.1c.1-.1.1-.2.1-.3s0-.2-.1-.3c-.1-.2-.1-.3-.1-.5s0-.3-.2-.4l.1-.1c0-.1-.1-.2 0-.4 0-.2 0-.4-.3-.5l-.1-.1c-.1-.2-.3-.3-.5-.6 0-.1-.1-.1-.2-.1l-.6.2c-.2.1-.2.4-.3.5 0 .2-.1.3-.1.5 0 .1 0 .2-.1.2-.1.1.1.2.1.3v.1c0 .1-.1.1-.1.1 0 .1.1 0 .1.1h-.2c0 .1-.1.1 0 .2.1 0 .1 0 .2.1-.1 0-.1.1-.1.1l.1.1c0 .1-.1.1-.1.2 0-.1 0-.1-.1-.1v.2c.1 0 .2 0 .3.1-.1.2-.1.3-.1.5v.1c-.1.1-.1.3-.2.4 0 .1-.1.3-.1.4 0 .2-.1.3-.1.4v.1c-.2.1-.3.4-.5.5-.1-.1-.1-.2-.2-.3-.1-.1-.2-.1-.3-.1 0-.1-.1-.2-.1-.2.1 0 .1.1.3.1 0-.1-.1-.2-.1-.2-.1 0-.2 0-.3-.1 0-.2-.2-.4 0-.6-.1-.1-.2-.2-.1-.3 0-.1.1-.1.1-.2h.1v-.1s-.1 0-.2-.1c.1-.1.2-.2.1-.4v-.8c-.1-.3-.2-.7-.4-.9 0-.1-.1-.1 0-.2 0-.1-.1-.3-.1-.3-.1-.1-.3-.1-.4-.1-.1.1-.3.1-.4.1h-.1l-.1.1c.1.2 0 .3-.1.4v.4c0 .1 0 .2.1.3s.1.3.1.4v.1c.1.1 0 .1 0 .2s-.1.1-.1.2.1.1.1.2c-.1 0-.1.1-.2.1h.1v.6s.1 0 .1.1c.1.1 0 .1 0 .2 0 .2 0 .3.1.5h.1c0-.1 0-.1.1-.1s0 .1 0 .1v.2h-.2l.1.1v.2h.2c.1 0 .2.1.2.2s-.2 0-.1.2c.1.1.2 0 .2.1s-.2.1-.2.1h-.1s.1 0 .1.1-.1.1 0 .2c.1 0 .1.1.1.2.2-.1.1-.3.2-.5.1 0 .1 0 .2-.1.1.1-.1.1-.1.2.1.1-.1.2 0 .2h.3c0 .1-.1.1-.2.1s-.2.1-.3.2v.1s.1.1.1 0c.1 0 .1-.1.1-.1v-.1.1s0 .1.1.1.1 0 .2-.1.1 0 .1 0c-.1.1-.2.1-.3.2l.3.3s.1 0 .1-.1h.2c.1-.1-.1-.2.1-.3.4 0 .8-.2 1.1-.2.1.1.1.1.2 0v.2s.1 0 .2.1c-.1 0-.1.1-.1.1v.1s0 .1.1.1l-.2.2h.2s0 .1-.1.1c0 .1.1.1 0 .3l.1.1c-.1 0-.1 0-.2.1.1 0 .1.1.1.1s.1.1.2.1c-.2 0-.3.1-.4.1-.1.1 0 .2.1.3-.3.1-.1.3-.1.5-.2.1-.3.3-.3.4l-.1.1c-.1.1-.1.2.1.2h.1s.1.1 0 .1-.3-.1-.4-.1l-.2.2c-.1.1-.2.1-.3.1l-.2.2h-.1c-.2-.1-.4-.2-.6-.4h-.1c-.1-.1-.1-.1-.1-.2-.1-.1-.2-.2-.4-.2s-.4 0-.5-.1c-.1 0-.1 0-.2.1.1.1.2.2.3.2s.1.1 0 .1-.1 0-.2-.1c0 .1.1.2.1.2l-.1.1c.1.1.2.2.2.4.1.2.2.3.4.4.1 0 .2.1.3.1.2 0 .5.1.7.2.1.1.1.1.2.1h.3c0 .1.1.1.2.1h.4c.2 0 .3 0 .4-.1.1 0 .1-.1.2-.1v-.1c.1 0 .2.1.2.1.1-.1.2-.1.3-.2l-.1-.1c-.2 0-.2 0-.2-.2h.1c0 .1.1.1.1.1.1 0 .2 0 .2-.1h.1c.1 0 .1.1.1 0s-.1-.2-.1-.4l.1-.1c-.1 0-.1 0-.2.1v.1c-.1-.1-.1-.2-.2-.3.1 0 .3.1.4 0 .1 0 .2 0 .2.1s.1.1.2 0l-.1-.1c.1-.1.2 0 .2-.1 0 0-.1 0-.1-.1v.1c-.1.1-.1 0-.1-.1v-.3c.2 0 .3-.1.5 0 0 0 .1 0 .1-.1-.1-.1-.2-.2-.2-.4.1 0 .3.1.4 0 0-.1-.2-.2-.2-.4.1 0 .2 0 .3-.1 0-.1-.2-.1-.2-.3.1 0 .2-.1.3-.1l.1-.1c-.1 0-.1 0-.2-.1l.1-.1c-.1-.3 0-.5 0-.8v-.1c0-.1-.1-.2 0-.3v-.3h.2c.2.2.1.2.1.2zM46.7 60c-.1 0 0-.1 0 0zm-2.4 2.5c0 .1 0 .1 0 0h-.1.1c-.1-.1 0 0 0 0zm.7-1.4s.1 0 0 0c0 .1-.1.1 0 0-.1-.1-.1-.1 0 0zm-.1 1.7c0-.1 0-.1 0 0 0-.1 0-.1 0 0 0-.1 0-.1 0 0 0-.1 0-.1 0 0zm.2-.2c0-.1 0-.1 0 0zm.2 1.7c.1 0 .1 0 0 0zm.2-1.4c0-.1 0-.1 0 0 0-.1 0-.1 0 0 0-.1 0-.1 0 0 0-.1 0-.1 0 0zm1-.9c0-.1 0-.1 0 0 .1-.1.1 0 0 0 .1 0 0 0 0 0zm-.8 5.9c-.1 0-.1-.1 0 0-.1-.1 0-.1 0 0 0-.1 0 0 0 0zm.1-.1c.1 0 .1 0 0 0 .1 0 .1 0 0 0 .1 0 .1 0 0 0 .1 0 .1 0 0 0zm.1.8s0-.1 0 0c0-.1 0-.1 0 0zm.5.2s0-.1 0 0c0-.1 0-.1 0 0 0-.1 0 0 0 0zm0-.2c0-.1-.1-.1 0 0-.1-.1-.1-.1 0 0 0-.1 0-.1 0 0zm.1-1.5c-.1 0 0-.1 0 0l.2-.1v.1c0-.1-.1-.1-.2 0zm.2 1.6s0-.1 0 0c0-.1 0-.1 0 0 0-.1 0 0 0 0zm.1-.4c-.1 0-.1 0 0 0-.1 0-.1 0 0 0-.1 0 0 0 0 0zm-.1-.3c0-.1 0-.1 0 0 0-.1.1-.1 0 0 .1 0 0 0 0 0zm.7-2c.1.1 0 .1 0 .2-.1-.1-.1-.2 0-.2zm-.1.9c0 .1.1.1 0 0 .1.1.1.1 0 0 0 .1 0 .1 0 0 0 .1 0 .1 0 0zm-.2-.8c-.1.1-.1.1-.2 0h.2zm0 1.3s-.1 0 0 0c-.1 0-.1 0 0 0zm-.2.8c0 .1 0 0 0 0zm0 0c.1 0 .2-.1.3 0-.1-.1-.2 0-.3 0zm.4-.1c0-.1 0-.1 0 0zm.3-.2c-.1.1-.1.1-.5 0 .2-.1.2-.1.5 0zm0-1.4c0 .1 0 .1 0 0 0 .1 0 .1 0 0 0 .1 0 .1 0 0zm.1.8c-.1-.1-.1-.1 0 0 0-.2 0-.1 0 0 0-.1 0-.1 0 0zm1.4-5.4c0 .1 0 .1 0 0-.1 0 0 0 0 0zm-.1 3.7c.1-.1.1-.1 0 0z"/><path d="M77 48.5c-.2-.1-.2-.2-.3-.4V48c-.1-.1-.1-.2-.1-.3s-.1-.1-.2-.1c-.4.1-.8.3-1 .6l-.1.1c-.2.1-.4.3-.6.4-.1 0-.2-.1-.3 0v.2h-.3c-.1 0-.1 0-.2.1.1 0 .1 0 .1.1l-.2.2h-.1c-.1-.1 0-.1 0-.2h-.2c-.1-.1-.1-.2-.2-.3-.1 0-.1-.1-.1-.2-.1-.1-.1-.3-.2-.4h-.3s-.1 0-.1-.1c-.1-.2-.3-.2-.5-.1-.2 0-.3-.1-.4-.2l-.1-.1c-.1 0-.1.1-.2.1-.1.1-.1.3 0 .4 0 .1.1.2.1.4-.2.1-.1.3-.1.5l-.1.1c-.1.1-.2.2-.1.3v.1c-.1.1-.1.1 0 .2-.1.1 0 .1 0 .2v.1l.2.2v.2c.1 0 .1 0 .1.1-.1 0-.3 0-.3-.2-.2.2-.3.4-.5.6-.1.1-.1.2 0 .3h.3c-.2.1-.2.3-.2.4h.1c.2.1.4 0 .6 0 .1 0 .1-.1.2-.1h.3v.1c.1 0 .1.1.2.1 0 .1 0 .2-.1.2.1.1.2 0 .3 0 .1.1-.1.2 0 .3.1 0 .1-.1.2-.1.1.2 0 .3 0 .5.1 0 .1-.1.1-.1.1.2.1.2-.1.2-.1 0-.1.1 0 .1h.1c.1 0 .1 0 .2.1s.1.2.1.3v.1c.1 0 .1.1.1.2v.1c0 .1.1.1.1.2h.1v.1l.1.1c-.1 0-.2.1-.1.2.1 0 .1 0 .2.1 0 .1 0 .1-.1.2l.1.1c0 .2.1.3.1.5v.3c.1 0 .1 0 .2.1-.1.1 0 .3 0 .4.2.3.2.7.4 1 0 .1 0 .1.1.2s.1.1.1.2-.1.2 0 .3.3.1.4.1c.2-.3.4-.4.7-.5 0 0 .1 0 .1-.1.1-.1.3-.1.4-.2 0 0 .2-.1.3-.1.1 0 .1 0 .2-.1s.1-.2.2-.4h.2c0-.2 0-.4-.2-.5 0 0 0-.1-.1-.2v-.1c-.1 0-.1-.1-.1-.1 0-.1.1-.1.1-.1-.1-.1-.1 0-.2 0-.1.1-.2 0-.3 0-.1 0-.1-.1-.1-.1.1 0 .3 0 .4-.1-.1 0-.1-.1-.2-.1v-.2h-.1c-.1.1-.3.1-.4.2 0 0-.1 0-.1-.1h.2c.1 0 .1-.1.2-.1.2 0 .2-.2.2-.3-.2 0-.2-.1-.3-.2 0-.1.1-.1.1-.2-.1-.1-.2-.1-.3-.2v-.3l-.1-.1-.1-.1c0-.1-.1-.2-.2-.3 0 0-.1-.1-.1-.2l.1-.1-.2-.2c-.1 0-.1-.1-.1-.2v-.3h-.1c-.1-.1-.1-.3 0-.4v-.1l-.1-.1s-.1 0-.1.1c0-.1 0-.1.1-.2 0 0-.1 0-.1-.1s0-.1.1-.2c0-.1-.1-.1-.1-.2l-.1-.1c0-.1.2-.2.3-.3.1 0 .2-.1.4-.2s.5-.2.7-.3c.2 0 .4-.1.5-.3.2-.1.4-.2.7-.3.3-.1.5-.3.6-.6 0-.1-.1-.1-.1-.3-.5 0-.6-.1-.7-.1zm-4.9 3.2c.1 0 .1 0 0 0 .1 0 .1 0 0 0 .1 0 0 0 0 0zm0 .2c0-.1.1-.1 0 0 .1-.1.1 0 0 0zm4 3.6c.1 0 .2.1.3.2-.1.1-.2.1-.3.1-.1 0-.2-.1-.2-.1.1-.1.2-.1.2-.2zm-.2-.3s0 .1 0 0c0 .1 0 .1 0 0 0 .1 0 .1 0 0-.1.1-.1 0 0 0zm0 .4s0 .1 0 0c0 .1-.1.1 0 0-.1 0-.1 0 0 0-.1 0-.1 0 0 0zm-.1-.2c0 .1 0 .1 0 0 0 .1 0 0 0 0zm-.1.3c0 .1 0 .1 0 0 0 .1 0 .1 0 0 0 .1 0 0 0 0zm0-1.5c.1.2.1.2 0 .2-.1-.1-.1-.1 0-.2-.1 0 0 0 0 0zm.2.4c0 .1 0 .2-.1.2h-.2v-.1c0-.1.1-.1.3-.1zm-.8 1s.1 0 0 0c.1 0 .1 0 0 0 .1 0 0 0 0 0zm.3-1.2s0 .1 0 0c-.1 0-.1 0 0 0zm-.1-.6c0 .1.1.1 0 0 .1.1 0 .1 0 0 0 .1 0 .1 0 0 0 .1 0 0 0 0zm0 1.4c0 .1-.1.1-.1.2 0-.1-.1-.1-.1-.2h.2zM42.9 62c.1-.2 0-.3 0-.5 0-.3 0-.6-.1-.9-.1-.3-.1-.7-.3-1 0-.1 0-.2-.1-.4-.1-.1-.2-.3-.2-.4-.2-.2-.4-.4-.7-.6-.1 0-.1-.1-.2-.1s-.1 0-.2-.1h-.3c-.2-.1-.4 0-.6 0-.1 0-.2.1-.3.1-.1.1-.2.1-.3.1-.1.1-.2.2-.4.3-.1.1-.2.3-.4.3 0 0 0 .1-.1.1-.1.2-.3.3-.3.5l-.1.1v-1.2c-.1-.2 0-.4 0-.7 0-.1 0-.2.1-.2 0 0 .1-.1.1-.2-.1-.1 0-.3 0-.4v-.2c-.1-.1-.1-.2-.2-.4-.1-.1-.1-.2-.3-.2-.1 0-.1 0-.2-.1-.1 0-.3-.1-.4-.2-.1 0-.1-.1-.2-.1-.2-.1-.4 0-.5.2s-.2.4-.4.6v.2c0 .3-.2.5-.1.8-.1.1 0 .2 0 .3-.1.1.1.2.1.2 0 .1-.1.2 0 .4 0 .1 0 .1-.1.2.1.1.1.2.1.3 0 .2-.1.3 0 .5v.5c0 .3.1.5 0 .8v.2c0 .4.1.7.1 1.1 0 .3 0 .6.1.8v.7c.1.3 0 .6.3.7.1 0 .2 0 .3-.1 0-.1.2 0 .3-.1s.2-.1.2-.2.2-.2.2-.4c0-.1.1-.2.2-.2.1-.2.2-.1.3-.1h.1c0-.1.1-.1.1-.2h.4c0-.3 0-.5.1-.8 0-.3.1-.5.2-.7 0-.1.1-.3.1-.4 0-.2 0-.4.1-.6v-.2c-.1 0-.1-.1-.1-.1 0-.2.1-.2.2-.3 0 0 0-.1.1-.1 0 0 0 .1-.1.1-.1-.1-.1-.2-.1-.2h.1v.1h.2v-.1c.1 0 .2 0 .3.1-.1-.1-.1-.2-.2-.2-.1-.1-.2-.1-.2-.2l-.1-.1c.2 0 .3 0 .4.2 0 .1.1.1.2.1.1-.1.2-.1.3 0h.1v.4c.1.2.1.3.1.5 0 .3-.1.6-.1.9 0 .1 0 .3.1.4l.1.1c-.1 0-.2.1-.1.2.1 0 .1.1.2.1-.1.1-.2.1-.2.2s0 .2.1.3v.1l.1.1h.1v.1s-.1.1-.2.1c.1 0 .2.1.2.1 0 .2 0 .2.1.4l-.2.2c.1.2-.1.3 0 .5h.2c.1-.1.1.1.2 0 0-.1 0-.2.1-.2s.1-.1.2-.2c.2-.1.4-.2.6-.4.1-.1.1-.1.2-.1.2 0 .2-.1.2-.2v-.1c.1 0 .1-.1.2-.1 0-.1 0-.3-.1-.4.4.1.4-.2.3-.4zm-5.2-.5l-.1.3-.1-.1.2-.2zm-.3.6c.1-.1.2-.1.2-.3.1.1 0 .1 0 .2s-.1.1-.2.1zm-.1-.3h-.2.2zm-.1.7c.1-.1.1-.1 0 0zm-.1-.2c0 .1 0 .1-.1.2-.1 0-.1-.1-.1-.1 0-.1 0-.1.2-.1-.1-.1 0 0 0 0zm-.2-.8c.1.1 0 .1 0 0 0 .1-.1 0 0 0zm-.1.5c.1 0 .1 0 0 0 .1 0 .1 0 0 0 .1.1 0 .1 0 0 0 .1 0 0 0 0zm.3 2.1c-.1 0-.1 0 0 0-.1 0-.1 0 0 0zm.1.3c-.1 0-.1 0 0 0 0-.1 0-.2.1-.3 0 .1.1.1.1.1-.1.2-.1.2-.2.2zm.1-.9c0 .1.1.2.1.2v.1c-.1 0-.1 0-.2.1H37v-.2h-.1c-.1-.1.1-.1.1-.2 0 0 0-.1-.1-.1 0-.1-.1-.1-.1-.2s-.1-.1-.1-.2c0 0 0-.1.1-.1l.1-.1v-.1l-.1-.1h.1l.1.1h.1c.1 0 .1-.1.2-.1h.1c0 .1 0 .1-.1.1h-.1c-.2 0-.2 0-.1.2v.1c.1-.1.2-.1.3-.1v.1l-.1.1c0 .1-.1.1-.1.2s.1 0 .1 0c.1 0 .1-.1.2-.1 0 .3-.1.3-.2.3zm-.4-.1c.1 0 .1 0 0 0 .1.1.1.1 0 0 0 .1 0 .1 0 0zm.6-.8s0-.1 0 0c0-.2 0-.2.1-.2 0 0 0 .1-.1.2zm2.7-3.1c.1-.1.1-.1 0 0 .1-.1.1 0 0 0 .1 0 0 0 0 0zm.3.2s-.1 0 0 0c0-.1 0-.1.1-.2l-.1.2zm.1-.8c.1 0 0 0 0 0zm.2.5c-.1 0-.1 0 0 0-.1-.1 0-.1 0 0zm0-.7c.1 0 .1 0 0 0 .1 0 .1 0 0 0 .1 0 .1 0 0 0zm.1 0c.1 0 .1 0 0 0 .1.1 0 .1 0 0zm.1.5c0-.1 0-.1 0 0zm.3-.3c0-.1 0-.1 0 0 0-.1.1-.1 0 0zm25.3-.2c0-.1-.1-.1 0 0 0-.2-.1-.3-.1-.4-.1-.1-.1-.3-.2-.4-.1-.3-.3-.7-.4-1s-.3-.6-.5-.8c-.2-.3-.3-.3-.8-.7-.1-.1-.3-.1-.4-.1-.2 0-.3-.1-.5 0h-.1c-.1 0-.3.1-.4.1-.2.1-.3.3-.6.4l-.1.1c0 .1-.1.1-.1.2s-.1.1-.2.1c-.1-.1-.1-.2-.2-.2-.1-.1-.1-.1-.2-.1-.3-.1-.7-.1-.9.2 0 0-.1.1-.2.1l-.3.3c0 .1-.1.3-.1.4v.9c0 .2 0 .4.1.5 0 .2.1.4.1.6 0 .1.1.3.1.4V59c.1 0 .2 0 .1.1s0 .2.1.3v.3c-.1 0 0-.2-.2-.1 0 .2 0 .2.3.3 0 .1 0 .1.1.2v.1c-.1.1 0 .2-.1.3l.1.1c0 .1-.1.1-.1.2s.1.1.1.1v.1h-.1c0 .1 0 .1-.1.2 0 .1.1.1.1.1h.1c0 .1-.1.1-.1.2v.1h.1c.1.1.1.2.2.4.1 0 .1-.1.2-.1.2-.1.3-.1.3-.3 0-.1.1-.1.2-.2.1 0 .1-.1.1-.2v-.1c.1-.1.2-.2.3-.2s.2-.1.4 0h.1c0 .1 0 .1.1.2.1-.1.1-.2.2-.3 0-.2-.1-.5-.1-.7v-.7c0-.2 0-.5-.1-.7s0-.5 0-.7c.1-.3.3-.5.4-.7.1-.1.2-.3.3-.3.1.1.2.1.2.2 0-.1.1-.2.1-.3 0 .1.1.1.1.2v.1c.1.1.1.1.1.2 0 .2 0 .4.1.6 0 .1.1.2.1.2 0 .1.1.1.1.2v.1c0 .2.1.4.1.5.1.2.2.3.1.5 0 0 0 .1.1.1.2.1.1.3.1.4v.2c0 .1 0 .1.1.1 0 .1-.1.2-.1.2l.5.5c.2 0 .3-.2.3-.4.1 0 .2.1.3 0 0 0 0-.1.1-.2.2-.1.2-.3.3-.5.1 0 .3 0 .4-.1 0-.2-.1-.3-.1-.5.1-.3 0-.5 0-.6zm-6.3-1.1s.1 0 0 0c.1.1.1.1 0 0 .1.1 0 .1 0 0 0 .1 0 .1 0 0zm0 .2c.1 0 .1 0 0 0 .1 0 .1 0 0 0 .1 0 .1 0 0 0 .1 0 0 0 0 0zm.2.7c0 .1 0 .1 0 0-.1-.1-.1-.3 0-.4v.4zm.4 2.4s0-.1 0 0zm5.5-2.5c0 .1-.1.1 0 0-.1.1-.1 0 0 0-.1 0-.1 0 0 0zm-.1.5c0-.1 0-.1.2-.2v.2c0 .1-.1.1-.2 0zM51 63.7c.1 0 .1 0 0 0 .1 0 .1 0 0 0 .1 0 .1 0 0 0zm3.3-5.5s0-.1 0 0c.1-.2.2-.2.3-.3-.1-.1-.1-.2-.2-.2-.2-.2-.3-.2-.5-.1l-.1.1c-.1-.1-.2-.2-.3 0h-.1c-.1 0-.3 0-.4.1-.1 0-.2 0-.3-.1-.1-.2-.1-.3 0-.5s0-.4 0-.7c-.1-.2-.1-.3-.1-.5v-.1c-.1 0-.2-.1-.3-.1-.1-.2-.2-.3-.3-.5s-.3-.2-.4-.3c-.1 0-.3 0-.4.1 0 0-.1 0-.1.1-.3.2-.6.4-.7.8v.3c0 .1-.1.2 0 .3-.2.1 0 .2-.2.3v.1c0 .1.1.3.1.4 0 .2.1.3 0 .5v.1c.1.3.1.3-.1.6-.1 0-.2 0-.3.1-.1 0-.1.1-.2.1s-.1 0-.2.1h-.1c-.2 0-.3.1-.4.2-.1.1 0 .2.1.3l.2.2c.1-.1.2-.2.3-.2s.2 0 .3-.1c0-.1.1-.1.2 0 .1 0 .1.1.2.1 0 .1 0 .2-.1.2 0 0-.1 0-.1.1 0 0-.1 0-.1.1 0 0-.1 0-.1.1.1.1.2 0 .3 0 .1.1.2.1.3.1v.6c0 .3 0 .6.2.8 0 0 .1 0 .1.1l-.1.1s.1 0 .1.1l-.1.1v.1h.1v.1c.1 0 .1-.1.1-.2s0-.1.1-.1v.4c-.1 0-.2 0-.3.1.1.1.2.1.3.2 0 .2-.1.4-.1.6h.2c0 .1 0 .2-.1.4l-.1.1c.1 0 .2.1.2.1v.3H51c0 .1.1.1.1.2s.1.1.1.2c0 .2-.2.3-.2.4h.2l-.1.1v.1c0 .1.1.2.2.1.1 0 .1.1.2.1l.3-.3c.1-.1.2-.1.3-.1 0 0 .1 0 .1-.1s0-.1.1-.1c.2 0 .3-.1.4-.2.1 0 .1.1.2.1 0-.2.2-.2.4-.2V64c0-.1 0-.2-.1-.2 0 0-.1-.1-.2-.1 0-.1.1-.2.2-.2 0-.1-.1-.3-.1-.4 0-.2 0-.3-.1-.4v-.1c.1-.1 0-.2 0-.2 0-.3-.2-.5 0-.8v-1.3c0-.1-.1-.3-.1-.4.1-.1.1-.1.1-.2 0 0 .1-.1.2-.1v-.1c0-.2.1-.2.3-.3.1 0 .2-.1.2-.2.1-.1.2-.2.2-.3.1-.4.3-.4.4-.5zM51 60c0 .1-.1.1 0 0-.1 0-.1 0 0 0zm0 .2c0 .1 0 .1 0 0 .1.1 0 .1 0 .2-.1 0-.1 0-.1-.1l.1-.1zm-.2.6s-.1 0 0 0c-.1 0-.1 0 0 0-.1 0 0 0 0 0zm.1.5v-.2c-.1-.1-.2.1-.2-.1.1 0 .2 0 .3-.1l-.1.4c0 .1 0 .1 0 0zm.1-.4c-.1-.1-.1-.1-.2-.1.1 0 .1-.1.2-.1 0 0 .1 0 0 .2zm1.9 2.1c0 .1 0 .1 0 0-.1.1-.1.1 0 0-.1.1-.1 0 0 0-.1 0 0 0 0 0z"/><path d="M71.8 55.1c0-.1-.1-.2-.1-.3s-.1-.1-.2 0v.4c-.1.1-.1 0-.2 0 0-.1-.1-.1-.1-.1v-.3c0-.1-.1-.2 0-.2v-.1l-.1-.1c0-.1 0-.1.1-.2.1 0 .1.1.1.1.1 0 .1-.1.2-.1 0-.1-.1-.1-.1-.2-.1 0-.2.1-.4 0 .1-.1.3-.2.2-.4-.1 0-.1-.1-.2-.1 0-.1 0-.1.1-.2h-.2s0-.1-.1-.1l.1-.1c0-.1-.2 0-.2-.1s-.1-.1-.2-.1c0-.1.1-.1 0-.2-.1 0-.1 0-.2.1v-.2c-.2-.1-.3-.3-.3-.5-.3 0-.5 0-.7.3.2.4.2.4-.1.7h.1c.2 0 .2.1.2.2h-.1c-.1 0-.1 0-.1.2v.1c-.1.1 0 .1.1.1 0 0 .1 0 .1.1s-.1.1-.1.2c-.1.1-.1.2 0 .3.1 0 .2.1.2.1.1 0 .2.1.2.2h-.1.1s0 .1.1.1c.1.1.1.2.2.3.1.3.1.5 0 .8v.4c-.1.1 0 .3-.1.4v.1c-.1.1-.1.2-.1.3 0 .4-.2.6-.4.9-.1 0-.1.1-.1.2l-.1.1c-.1 0-.2 0-.2.1 0-.1-.1-.2-.1-.2-.1 0-.1-.1-.2-.2-.1 0-.1-.2-.1-.2-.1-.1-.1-.2-.1-.3v-.1c-.1-.2-.2-.4-.4-.6v-.1l.1-.1-.1-.1c0-.1-.1-.1-.1-.2 0-.2-.1-.3-.2-.4.1-.1.1-.2 0-.2v-.1c-.1-.2-.1-.4-.2-.5-.1 0-.2 0-.3-.1-.1 0-.1-.1-.2-.1-.1-.1-.2-.1-.2-.3.1 0 .1-.1.2-.1s.1-.2.2-.2v-.1c0-.1 0-.1-.1-.2 0-.1-.1-.1-.2-.2-.3-.1-.6-.1-.9.1-.2.1-.2.3-.3.4v.2h.1c0 .1-.1.2-.1.3s-.1.2 0 .2c.1.1 0 .2-.1.2v.3c0 .1-.1.2 0 .3 0 .1-.1.2.1.3v.1c0 .1-.1.3.1.4v.1c0 .1 0 .3.1.4 0 .3.2.5.2.8 0 0 .1 0 .1.1-.1.1-.1.1.1.2.1 0 0 .1 0 .2h.2c0 .2 0 .2-.1.4 0 .1.1.1.2.1h.2c.1 0 .1.1.1.1s0 .1-.1 0h-.1s0 .1.1.1h.1c0 .1-.1.2.1.2l.1-.1c.2.1.2.4.4.6 0-.1 0-.3.2-.3.1 0 .1 0 .2.1.1 0 .3.1.4.2h.1v-.2h.2c.1 0 .1-.1.1-.1.1 0 .1.1.1.1l.3-.3.1-.1s.1 0 .1.1c.1-.1.2-.2.4-.2.1 0 .1 0 .1-.1s.1-.1.1-.1h.1c0-.1 0-.2.1-.3s.2-.1.3-.1c0-.2 0-.2.2-.1 0 .1 0 .1.1.2 0-.1-.1-.1-.1-.2.1 0 .1 0 .2-.1h-.2s-.1-.1 0-.1h.1c.1 0 .1 0 .1-.1.2-.1.2-.2.3-.4l.1-.1v-.3c.1 0 .2.1.3 0-.2-.1-.2-.1-.2-.3v-.5c.1 0 .2 0 .3.1V56c.1-.7.1-.8 0-.9zm-5.2 2.4s0-.1 0 0c.1-.1.1-.1 0 0 .1 0 0 0 0 0zm1 1.2c.1.1.1.1.2.1-.1.1-.1.1-.2-.1zm.5-1.8s0-.1 0 0l.2-.1c0 .1.2.1.2.2-.1 0-.1.1-.2.1.1.1.2 0 .2.1v.2c.1.1.1.2.1.3-.2-.2-.2-.2-.5-.8zm2.7-3.6v.2c-.1-.1-.1-.1 0-.2zm.7 2.4c-.1 0-.1 0 0 0-.1-.3-.1-.4-.2-.6.1.1.1.2.2.2v.4zm.2.1c0-.1 0-.1 0 0 0-.1 0 0 0 0zm-11.8 5v-.4l-.1-.1c.1-.1.2-.2.2-.3s0-.2-.1-.3l-.1-.1c-.1-.4-.2-.7-.4-.9-.1-.1-.3-.3-.4-.5-.1-.2-.2-.3-.4-.4-.1-.1-.3-.2-.4-.2-.2-.1-.4-.1-.5-.1h-.5v-.3c-.3 0-.8.2-1 .3l-.6.3c-.1.1-.2.2-.2.3s-.1.2-.2.2H55v.2c-.1 0-.3 0-.3.2.1.1.1 0 .1 0h.1v.1c-.1.1.1 0 0 .1h-.1c-.1.1-.2.1-.2.2.1 0 .1 0 .1.1l-.1.1c-.1 0-.1.1-.1.1 0 .1 0 .1-.1.2s-.1.1 0 .3l-.2.2s.1.1.1.2c-.1.1-.1.2-.2.3 0 0 0 .1.1.1h.2c.1 0 .1 0 .1.1-.3 0-.3 0-.5.2.1 0 .2 0 .3.1s.1.1.1.2c.1.1.1.1.2.1l.1.1c0 .1-.1.1-.1.2-.1-.1-.1-.1-.2-.1.1.1.1.3.2.4 0 .2.2.2.2.3v.2s0 .1.1.1h-.2c-.1-.1-.1-.1-.2-.1 0 .2.1.2.2.3h.3c0-.1-.1-.1-.1-.2h.1c.1.1.3.1.4 0h.2c-.2.2-.3.2-.5.2h-.2c0 .1.1.1.2.1h.2c.1 0 .1-.1.2-.1 0 .1 0 .1.1.2h.1c0-.1 0-.2.1-.2h.1v.2c.1 0 .2-.1.2-.1.1 0 .1 0 .1.1s-.2.1-.1.2c.1 0 .1 0 .2-.1.1 0 .1-.1.2-.1h.3c.1 0 0 .1.1.1h.2c.2-.1.2-.1.4.1V63h.2c0-.1.1-.1.1-.2.1 0 .2 0 .2-.1 0 0 0-.1.1-.1.1-.1.1-.1.2 0 0-.1 0-.1.1-.2 0-.1.1-.1.2-.1h.1c0-.1 0-.2.1-.2s.2-.1.2-.2c.1-.1.2-.2.3-.2 0-.1 0-.1-.1-.1v-.1c.1 0 0-.1 0-.2.1 0 .2 0 .2-.1V61l.1-.1.4-.1zM54.6 62s.1 0 0 0c.1 0 .1 0 0 0zm.6-3.4c0-.1 0-.1 0 0 0-.1 0-.1 0 0 0-.1 0-.1 0 0 0-.1 0-.1 0 0zm1.1 3.3c-.1 0-.1 0 0 0zm.4.3s-.1 0 0 0c-.1 0 0-.1 0 0zm.2.2s-.1 0 0 0zm.2-.1c0-.1 0-.1 0 0 0-.1 0-.1 0 0zm.4.8s-.1 0 0 0c0-.1.1-.1 0 0zm.4-.1s-.1 0 0 0c-.1 0-.1.1 0 0-.2 0-.1 0 0 0-.1-.1 0 0 0 0zm.2-.1zm.2-.9s0-.1 0 0c.1-.1.1 0 0 0zm-.3-.9l-.3.3c-.2.3-.4.3-.7.4-.1 0-.2 0-.3.1-.1 0-.1.1-.2.2-.1 0-.1 0-.2-.1 0-.1 0-.1.1-.2h-.2v-.1c-.1 0-.1-.1-.2-.1l-.2-.2c0-.1-.1-.3-.1-.5v-.2c0-.1.1-.2 0-.4 0-.1 0-.1.1-.2.1-.2.2-.4.2-.6.1-.2.2-.3.3-.4.1-.1.2-.1.3-.1.1.1.3.1.4.1.2 0 .3.1.5.2.1 0 .1.1.2.1.2 0 .3.2.5.3.1.1.1.2.1.3.2.4.1.8-.3 1.1zm-27.4 2.8c-.1-.1-.2-.2-.1-.4 0 0 0-.1-.1-.1 0 0-.1 0-.1.1v.5s0 .1.1.1c-.1-.1 0-.1.2-.2z"/><path d="M71.8 56.4c.1-.1.1-.2.1-.3h-.2c-.1.1-.1.2-.1.3 0 0 .1.1.2 0zM54 61.2s0 .1 0 0c-.1.1-.1.2 0 .2h.1s0-.1-.1-.2c.1.1.1.1 0 0zm-3.2 2.3c.1.2.1.2.3.1-.1-.1-.2-.1-.3-.1zm-5.1.7v.3l.1-.1c0-.1 0-.2-.1-.2zm-.6.1c-.1.1-.1.1-.1.2s.1.1.2.1c0-.1-.1-.2-.1-.3zm25.2-5.9c0 .1 0 .1 0 0 .1.1.1.1 0 0 .2 0 .1 0 0 0zm-19.6 4.3v.2c.1-.1.1-.1 0-.2zm-5.5-1.2v.2h.1l-.1-.2zm23.2-2.2s0 .1 0 0c-.1.1 0 .1 0 .2.1 0 .1-.1 0-.2.1.1.1 0 0 0zm-.3-.1c-.1.2-.1.2.1.2 0-.1-.1-.2-.1-.2zm1.4-5.1c0 .2.1.1 0 0 .1 0 .1 0 0 0zm.1.2zm-.8 5c0 .1.1.1 0 0 .1 0 .1-.1 0 0zm-20.6 7.9c0-.1 0-.1 0 0-.1-.1-.1-.1-.2 0h.2zm1.1-4.2c0 .1 0 .1 0 0 .1.1.1.1 0 0 .1 0 .1 0 0 0zm-19 1.4c.1 0 .1 0 0 0zm24.5-1.5c-.1 0-.1-.1-.2-.1 0 .1.1.1.2.1zm17.9-9.3s.1 0 0 0c.1-.1.1-.1 0 0zm-17.5 9.6c.1.1.1.1 0 0 .1 0 .1-.1 0 0zM51 64c.1 0 0 0 0 0zm20.4-9.2s0-.1 0 0c0-.1-.1-.1 0 0zm-15.5 8.3s-.1 0 0 0c-.1-.1-.1 0-.2 0 .1.1.2.1.2 0zm-1.6-1.2s0 .1 0 0c0 .1 0 .1 0 0 0 .1.1.1.2.1-.1 0-.1-.1-.2-.1zm-10.3 1s.1.1 0 0zm25.7-4s0 .1 0 0c0 .1 0 0 0 0 .1 0 0 0 0 0zm.3-.2c0 .1.1 0 0 0 .1 0 .1 0 0 0zM30.8 65h-.2c.1 0 .1.1.2 0zm-.2 0c0-.1 0-.1 0 0-.1-.1-.1-.1 0 0-.1 0-.1 0 0 0-.1 0 0 0 0 0zm24.9-1.8s.1 0 0 0c.1 0 .1 0 0 0 .1 0 .1 0 0 0zm-1-1c0-.1 0-.1 0 0 0-.1-.1-.1 0 0-.1-.1-.1 0 0 0zm-3.6.1s-.1 0 0 0c-.1 0-.1 0 0 0 0 .1 0 0 0 0zm-7.1-.2c0 .1 0 .1 0 0 .1.1.1.1 0 0 .1.1 0 0 0 0zm1 2.1c0-.1-.1-.1 0 0-.1 0 0 0 0 0zm.5.3c0 .1.1 0 0 0 .1 0 .1 0 0 0zm.3 0s-.1 0 0 0c-.1 0-.1 0 0 0 .1.1.1 0 0 0zM73 54.7s0-.1 0 0c0-.1 0 0 0 0zM66.8 58s0-.1 0 0c-.1 0-.1 0 0 0-.1 0 0 0 0 0zm-18.4 9.3c0 .1 0 .1 0 0zM44 62.7c0 .1.1.1 0 0zm0 .2c0-.1 0-.1 0 0 0-.1 0-.1 0 0zM69.4 59c.1.1.1.1 0 0 .1 0 .1 0 0 0zm1.2-.8c.1 0 .1 0 0 0 .1-.1 0-.1 0 0zm-34.3.3c.1 0 .1 0 0 0 .1 0 .1 0 0 0 .1 0 .1 0 0 0zm35.3-3.9c0-.1-.1-.1 0 0-.1-.1-.1-.1 0 0-.1-.1-.1-.1 0 0zM48.2 67.7c.1-.1 0-.1 0 0 0-.1-.1-.1 0 0zm25.4-11.4c.1 0 .1 0 0 0 .1 0 .1 0 0 0zM55.9 63c0 .1 0 .1 0 0zm-10.6-1.1c0-.1 0 0 0 0zm.7 2.4zm4.9-1.3s-.1 0 0 0zm5 .4zm12.3-4.2c-.1 0-.1 0 0 0zm-14 2.5zm-4.9.1c0 .1 0 .1 0 0zm-8.5-1.7zm30.6-5.8zm-1.8 0c.1 0 .1 0 0 0zm3.7.5s.1 0 0 0zm-40 5.6c.1 0 .1-.1.2-.1-.1 0-.1 0-.2.1zm.1 0zm.6-1.7c.1 0 0-.1 0-.2v.2zm-1.2 2.1c.1 0 .1 0 0 0 .1 0 .1 0 0 0zm.5-.2c0-.1 0-.1 0 0 0-.1 0-.1 0 0zm-.1-.1c.1 0 .1 0 0 0zm-13.7 6.1c-.4.2-.8.5-1.3.4 0 0-.1.1-.2.1s-.1.1-.2.1c-.2 0-.4.1-.7.1-.3 0-.6 0-.8.2-.1.1-.3.1-.4.2-.7.2-1.4.2-2.1.3h-2.9c-.2 0-.4 0-.6-.1 0 0 0 .1.1.1.2 0 .3.1.5.1h2.2c.8 0 1.5 0 2.3-.1.4 0 .7-.1 1.1 0h.2l2.1-.3c.2 0 .4-.1.5-.2.2-.2.5-.2.8-.3 0 .1.1.1.1.2.2.2.2.3 0 .4-.1.1-.2.1-.2.3h.2c.5-.1 1-.4 1.5-.5 0 0 .1 0 .1-.1.1-.1.1-.1.1-.2 0-.2.1-.3.3-.4.1 0 .1-.1.2-.1v-.2l-.1.1c-.2 0-.4.2-.6.3l-.9.6c-.2-.2-.3-.4-.4-.6.1-.3.4-.1.5-.2l.5-.5h-.3c0-.1.1-.1.1-.2V66c-.3 0-.4.2-.7.3-.4-.1-.7.1-1 .3z"/><path d="M24.6 63.1c0-.1.1-.3-.1-.3-.4.4-.7.8-1.1 1.2-.1.1-.2.3-.3.3-.3.1-.4.3-.5.5-.1.1-.2.3-.4.4-.4.3-.7.5-1.1.8h.3c0 .1.1.2.1.4.4-.2.8-.4 1.1-.8l.9-.9c.5-.5.9-.9 1.3-1.5V63s-.1 0-.2.1zm-.4.4s0-.1 0 0c0-.1.1-.1.1-.2 0 .1 0 .2-.1.2zm3.7-5.8c0-.1 0-.2-.1-.2-.1-.2-.2-.2-.3 0-.1.1-.1.2-.2.4.2.2.3.4.4.7 0 .1.1.2.1.3s-.1.1-.2.2-.1.2-.2.3c0-.1 0 0 0 0 .1.2 0 .4-.1.6-.1.1-.1.2 0 .3.1-.1.3-.2.2-.4 0-.1 0-.2.1-.3 0-.1.1-.1.2-.1-.1.2-.1.3-.2.5 0 .1 0 .2.2.2 0-.1.1-.2.1-.3.2-.3.2-.6.1-.9-.1-.1 0-.3-.1-.4h.2c.1-.5-.1-.7-.2-.9zm0 0v.3c-.1-.1-.1-.1 0-.3zm-.7 3.5c-.4.4-.7.8-.9 1.2-.1 0-.1.2-.1.3 0 .2-.1.4-.2.5-.1.2-.2.3-.3.5l.1.1c.6-.7 1.2-1.5 1.7-2.3 0 0 .1-.1.1-.2v-.2c-.2 0-.3 0-.4.1zm-4.5 5.2c.2-.2.5-.4.7-.7 0 0 .1-.1.1-.2.1 0 .2.1.4.2.2-.1.4-.3.4-.5-.1-.1-.2-.3-.3-.4-.2.1-.3.2-.3.4 0 .1-.1.3-.2.3l-.1-.1c-.4.2-.7.5-.9.9 0 .1-.1.1-.2.2.1 0 .2-.1.4-.1zm4.6-12.9c0-.1 0-.2.1-.2s.1-.1.1-.1c0-.1 0-.3-.2-.3-.2.2-.2.2 0 .6zm-5.5 14.1c-.4 0-.4 0-.9.4.4-.1.7-.2.9-.4zm4.4-8.1c0 .3-.1.5-.1.7 0 .1 0 .2.1.2.2-.2.1-.5 0-.7.1-.1 0-.1 0-.2zm-10.5 9.1c.2-.1.5 0 .8-.2-.2-.1-.2-.1-.8.2z"/><path d="M27 58.4c.2.1.2 0 .3-.1 0-.1.1-.3 0-.4 0 0-.1 0-.1.1-.1.1-.1.2-.2.4zm-9.5 10.4c.2-.1.3-.1.5-.2-.2 0-.3 0-.5.2zm8.4-8.3c-.2.2-.2.2-.2.4.2 0 .2 0 .2-.4zm2.5-6.9v.3h.1v-.2c0-.1 0-.1-.1-.1zm-1.1-1.4V52v.2zM23 66.8l-.2.2c.1.1.2 0 .2-.2zm-12.1 2h-.2c0 .1.1.1.2 0zm14.5-7.5c.1 0 .1 0 0 0 .1-.1 0-.1 0 0z"/><path d="M18.1 68.9c-.5.1-1 .2-1.5.2l-2.1.3h.1c.9.1 1.7-.1 2.5-.3.4 0 .7-.1 1-.2.6 0 1.2-.2 1.7-.4.1 0 .1-.1.1-.2.2 0 .4.1.4-.2-.1.1-.3.2-.4.2-.5.3-1.2.5-1.8.6zm9.2-13.3s-.1-.1 0 0c-.1-.1-.1-.1 0 0-.1 0-.1 0 0 0zm1-.2s.1 0 0 0c.1 0 .1-.1.1-.2h-.1v.2zm-1.7 3.8c.1 0 .2-.1.2-.2-.1 0-.2.1-.2.2zm1.6-2.3c.1 0 .1 0 0 0 .1 0 .1 0 0 0 .1 0 .1 0 0 0zm-.1.5s0 .1 0 0zM10.3 68.7c.1.1.2.1.3.1-.1 0-.2-.1-.3-.1zm10.1-.6h.2-.2zm-10.3.6h.2-.2zm-.1-.8h.2-.2zm13-1.1s.1 0 0 0zm3.8-6.9h-.1.1zm-.2-.7s0 .1 0 0zm.8 0c0 .1 0 .1 0 0 0 .1 0 .1 0 0zm-.6-.3c0-.1.1-.1.1-.2-.1.1-.1.2-.1.2zm.1-.2c0 .1 0 0 0 0zm0-.1s0 .1 0 0c0 .1 0 .1 0 0zm-2.4-14.4s0 .1 0 0c0 .1 0 0 0 0z"/><path d="M36.9 51.4c.1-.5.5-.5.9-.5.6 0 1.2-.2 1.7-.2l.1-.1c0-.1-.1-.2-.1-.4.6-.3 1.3-.5 2-.9-.3-.1-.6-.3-.9-.4-.1.1-.3.1-.5 0l.1-.1H40v.2c-.2 0-.4 0-.6-.1-.3-.1-.6-.1-.9-.2-.4-.1-.8-.2-1.2-.2-.1 0-.1 0-.2-.1-.1 0-.2-.1-.2-.1-.1-.1-.1 0-.2 0l-.6-.3c-.2-.1-.5-.3-.7-.5l-.2-.2c-.2-.3-.4-.6-.5-.9v-.3l.1.1c.1.1.1.2.2.3 0 0 0 .1.1.2.2.2.3.4.5.5-.1-.3-.4-.5-.5-.7-.1-.3-.3-.6-.4-.8v.4c-.1-.1-.1-.2-.2-.3-.1-.2-.2-.5-.3-.7h-.1c0-.1-.1-.3-.1-.5 0-.1 0-.2.2-.3.1.2.1.5.1.7.3-.3.6-.5.6-.4 0 .2.1.3.2.4 0-.2-.1-.3-.1-.5-.1-.3 0-.4.3-.4.2 0 .5-.1.7-.1h.5c.1 0 .1-.1.1-.2l.1-.1c.1 0 .1-.1.2-.1 0 0 0 .1.1.1h.1c.1 0 .1-.1.1-.2 0-.3.2-.3.4-.5.5-.4 1.1-.8 1.6-1.2.3-.2.5-.4.8-.6.1 0 .1-.1.1-.1.2-.2.5-.4.7-.6l.5-.5.1-.1c.7-.8 1.4-1.4 1.7-2.5 0-.1.1-.1.1-.2h.2c.2-.1.2-.2.2-.5v-.2c-.1-.1-.2-.1-.3-.1 0 .1-.1.2-.1.3s-.1.1-.1.2c-.1.2-.1.3-.2.5 0 .1-.1.2-.3.1 0-.1-.1-.1 0-.1.1-.2.2-.5.3-.7.2-.3 0-.6.2-.8 0-.1.1-.2.3-.1 0 0 .1.1.2.1.2-.3.1-.6.1-.9v-.8c-.3-.4-.5-.9-.8-1.4-.1-.3-.3-.5-.4-.8 0 0 0-.1-.1-.1-.4-.6-1-.9-1.5-1.3.1-.1.1-.2.2-.3-.1-.1-.1-.2-.1-.2-.1-.1-.2-.2-.4-.3-.1-.1-.3-.1-.4-.1-.1 0-.1.2-.1.2-.3 0-.4-.4-.7-.3s-.2-.3-.5-.4c-.2 0-.5-.1-.8-.1s-.6 0-.8-.3l-.3.3c-.1-.1-.2-.3-.3-.2-.2.1-.3.1-.5 0-.1 0-.2-.1-.3 0-.3.2-.6.1-.9.2-.1 0-.2.1-.3.1-.6.6-1.4 1-2.2 1.3-.3.1-.5.3-.7.6s-.4.5-.6.7v-.5c-.3.4-.3.4-.2.7-.4.5-.8 1.1-1.2 1.6h-.1v.2h-.1v-.1c-.5.4-.9.9-1.1 1.5 0 .1-.1.3-.2.4-.5.5-.7 1.2-.8 1.9 0 0 .1 0 .1.1.1 0 .2.1.2.1s0-.1-.1-.1v-.1.2c-.1.1-.1.3-.3.4-.2.1-.3.3-.2.5 0 .1.1.2.1.3.1.4 0 .8 0 1.2-.1.5-.2 1-.2 1.6 0 .4-.2.6-.5.8 0 0-.1 0-.1.1-.5.3-1.1.6-1.6.9-.2.1-.3.2-.3.4 0 .1 0 .2-.1.3 0 .1-.1.1-.2.1h-.1l-.2-.2c-.1-.2-.3-.4-.5-.5-.3-.5-.7-1-1.1-1.5 0 0 0-.1-.1-.1 0-.1 0-.1-.2-.2l-.2-.2-.1-.1-.1-.1-.9-1.2c-.2-.4-.5-.8-.8-1.1-.3-.2-.5-.5-.8-.7-.5-.5-1-1-1.6-1.3-.3-.2-.6-.4-.8-.8-.2-.4-.6-.8-.9-1.2-.3-.3-.6-.7-1.1-.7-.4-.1-.6-.4-.7-.7 0-.4-.3-.6-.5-.8-.2-.3-.5-.2-.7-.2-.2-.2-.4-.5-.6-.7.1-.2.1-.3.2-.5-.4-.1-.6-.4-.8-.7 0-.1-.1-.2-.2-.3-.2-.3-.4-.6-.6-.8-.3-.3-.3-.8-.6-1.1.2-.5-.2-.6-.4-.9-.1-.1-.2-.3-.2-.4-.1-.3-.3-.6-.6-.8-.5-.4-.8-1-.9-1.6 0-.9-.3-1.7-.2-2.6-.2-.3 0-.6.2-.8.2-.3.5-.6.4-1-.1 0-.3-.1-.2-.2l.3-.6H9c.1 0 .2.1.3.1.5-.4.9-.7 1.4-1.1l.3.3c.2-.1.3-.1.5-.2.2-.3.2-.3.6-.2.3.2.1.2-.2.2 0 0 0 .1-.1.1-.4.3-.7.7-1 1.1-.2.2-.3.5-.3.7.1.1.2.1.3.2.2.1.3 0 .4-.1.9-1.1 2.1-1.7 3.4-2.1.9-.3 1.8-.4 2.7-.3.9.1 1.7.6 2.6.9.3.1.5.4.9.4.1 0 .2.1.3.2.1.1.3.2.5.3.1-.4.2-.7.3-1l.1-.1.6.3c0-.2-.1-.4-.1-.6 1 .3 1.8.8 2.7 1.1.2-.1.3-.2.4-.3 0-.4 0-.8-.3-1.1-.1-.1-.1-.2-.1-.3-.2-.4-.5-.8-.7-1.1-.5-.7-1.2-1.2-1.7-1.9l-.4-.4c-.5-.3-1-.7-1.2-1.2-.1-.2-.3-.3-.5-.5s-.5-.3-.7-.5c-.1-.1-.2-.2-.3-.2-.6-.3-1.3-.7-2-.8-.7-.2-1.4-.4-2.2-.5-.4-.1-.8-.1-1.2.1-.6.3-1.2.3-1.9.4-.3 0-.6.1-.9.2l-1.5.6c-.3.1-.6.3-1 .4-.4.2-.7.4-1 .6-.4.2-.7.4-1.1.7-.3.2-.8.2-1 .6-.7-.1-1.1.1-1.3.5-.7.5-1.2 1.3-1.8 1.9-.1.1-.2.2-.2.3 0 .2-.1.4-.1.6 0 0 .1.1.1.2v.2c-.3.4-.8.7-.8 1.3 0 .1-.1.2-.2.3-.1.1-.2.3-.3.4-.2.4-.5.7-.3 1.2 0 .1 0 .2-.1.3-.1.3-.2.6-.5.8-.4.4-.4.9-.4 1.4 0 .3 0 .6.3.7.1 0 .1.4 0 .4s-.1.2-.1.4c0 .3-.1.6 0 .9s0 .6.1.8c.3.8.5 1.7.7 2.5 0 .2.1.3.2.4.3.3.4.7.6 1.2.1-.3.2-.4.2-.5 0-.2.2-.4.2-.6 0 0 .1-.1.3-.1.1.4.3.8.2 1.2-.2.3-.2.4.1.6 0 .2 0 .5-.1.7.1.1.4.2.5.3.2.3.5.5.5.9.1 0 .2.1.5.2-.2-.2-.2-.4-.3-.5-.1-.1-.1-.2 0-.3.6.3.9.8 1.2 1.4l-.3.3c.2.3.4.5.6.8.2.4.4.6.6.8h.4c.1 0 .3.1.4.1 0 .1 0 .2.1.2.5.5 1 .9 1.4 1.5.1.1.2.2.2.4l.1.1c.4-.1.4-.1.6.2 0 .1-.1.2-.1.3l.3.3c.2.1.4.2.5.3.2.1.4.3.6.4.2.1.3.2.5.4.5.6 1.1.9 1.7 1.3.2.2.5.3.8.1l.3.3c.3.3.6.7 1 1 .3.2.6.4.8.7 0 .1.1.2.2.2.4.1.4.5.6.7s.4.5.6.7c.2.3.5.7.8.9.4.3.5.6.4 1-.1.1-.3.3-.5.4-.1.1-.3.2-.5.3s-.5.2-.7.4c-.5.5-1.1.8-1.7 1.2-.3.2-.6.3-.8.5-.4.3-.8.7-1.2 1-.2.2-.3.4-.5.5-.1.1-.2.2-.2.3-.3.9-1 1.3-1.6 1.8-.1.1-.2.1-.3.1 0 .1-.1.1-.1.2H10h.1c-.1-.2-.1-.3.1-.5.1-.1.3-.1.2-.4-.2.1-.3.2-.4.3-.2.2-.3.3-.6.4.1-.2.2-.5.1-.8-.3.2-.3.5-.4.7 0 .1.1.2.2.2-.1.5-.5.8-.8 1.1-.3.4-.5.7-.6 1v.1c.1 0 .3.1.2.3 0 .1-.1.2.1.2l.6-.6c.1-.1.2 0 .3 0 0-.1 0-.2-.1-.3h.1v.4c-.1.3-.2.7-.3 1-.1.2-.1.5-.2.6-.2.2-.5.4-.8.4v-.3c0-.2.1-.5.1-.7 0-.1 0-.3-.2-.3-.2.5-.5 1.1-.6 1.6s-.2.9-.5 1.3c-.2.5-.1 1-.2 1.5v.1c-.1.3-.1.6 0 .8 0 .1.1.2.1.2.3.4.3.8.3 1.3.3.1.6.2.8.3.1.3.2.5.3.8l.3.6c.1.3.3.5.6.7.2.2.4.3.6.5 1 .1 2 .1 3.1 0h.9c.4 0 .7 0 1.1-.2.1-.1.3-.1.5-.1.9-.2 1.9-.5 2.8-.8 1.2-.4 2.3-.9 3.2-1.9l.1-.1c.1 0 .1-.1.2-.1-.1.4-.4.6-.7.9.3 0 .6-.1.8-.4.5-.5.9-.9 1.2-1.5l.9-1.5c.1-.2.1-.3 0-.6.1-.1.3-.2.3-.4 0-.3.3-.4.3-.5v-.5c0-.2.1-.3.1-.5-.3.2-.5.4-.7.8-.1.2-.2.3-.3.5-.1 0-.2-.1-.3-.1.2-.4.3-.7.5-1-.1-.1-.2 0-.3 0-.1.1-.2.3-.2.5-.1.4-.4.7-.6 1 0 0-.1.1-.2.1 0-.2.1-.3.2-.5 0-.1.1-.2.1-.2-.2-.3.2-.4.1-.7-.1-.1 0-.3.1-.4.3-.5.5-1 .8-1.4.1.2.1.5.2.7 0 0 .1 0 .1-.1.1-.3.3-.7.3-1 0-.2.1-.2.2-.3 0-.2-.1-.3-.1-.5 0-.4 0-.7.1-1.1 0-.3 0-.5-.2-.8 0 0-.1 0-.1.1.1-.3.1-.3.1-.7 0-.1-.1-.2 0-.4.2-.5.2-1 .1-1.5-.1-.3-.1-.7-.2-1 0-.1 0-.2-.1-.3.1 0 .2-.1.3-.1 0 .1.1.3.2.4.1.1 0 .2 0 .3-.1.3-.1.5 0 .7s.1.4.1.6c.1.2 0 .5 0 .7-.1.3-.2.7-.2 1 .1-.1.2-.1.3-.2v.8l-.1.1c-.2.2-.2.3.1.4.1.3.1.6-.1.9-.1.1-.1.2-.1.3s-.1.1-.2.1c0 .2-.1.4 0 .6.1.4.1.7-.2 1 .1.1.1.2.2.3.1-.1.3-.2.3-.4.1-.3.4-.3.5-.5.2 0 .2-.1.2-.2 0-.2 0-.5.1-.8.1.2.1.4.1.5 0-.1.1-.2.1-.3v-.2c0-.1 0-.1.1-.2l.3-.9c.1-.3.3-.7 0-1 0 0-.1-.1 0-.1.2-.5 0-1.1.1-1.6.1.2.2.3.3.5.1.2.1.4.2.6.1-.1.2-.3.1-.4-.2-.5-.2-1-.2-1.4h.1v-.4l-.1-.1.1.1c.1-.2.1-.2 0-.5 0 .1-.1.2-.1.2v-.3s0-.1.1-.1c0 0-.1-.1-.1-.2 0 .1-.1.2-.1.3h-.1c0-.2-.1-.3-.2-.5 0-.2-.1-.3-.2-.4l-.3-.6c.6-.2 1.1-.4 1.2-.3 0 .1.1.2.1.3 0 .2.1.4.2.5.1.2.1.4.1.6 0 .2.1.3 0 .5-.1-.2-.1-.5-.2-.7l-.3-.6c-.1 0-.3-.1-.4 0 0 0 0 .1.1.1.2.1.3.3.4.4.2.3.2.6.3 1 .1.4.1.8.3 1.2.2.4.2.9.1 1.3s-.2.9-.1 1.3c-.1.2-.2.3-.2.5s-.2.3-.3.4c.3.3 0 .6.2.9.3-.3 0-.6.1-.8.1-.1.2-.1.2 0 .1.1.1.2.1.3s-.1.3 0 .4c.2-.1.3-.3.2-.5 0-.3 0-.6-.1-.9-.1-.3-.1-.6 0-1 .1-.3.2-.7.2-1 0-.1.1-.1.1-.2s.1-.2.1-.3c0-.4-.1-.8-.2-1.1 0-.1-.1-.2-.1-.3-.1-.6-.1-1.2-.2-1.8 0-.1 0-.3-.1-.4-.1-.1-.2-.3-.2-.4 0 0 .1 0 .1-.1.1 0 .1-.1.2-.1.2-.1.3-.2.5-.3h.1l.1.1v-.1c-.1-.1-.1-.2-.2-.3.2.2.4.2.5.5 0 0 0 .1.1.1.1.1.2.1.3.2.1-.1.1-.1.2 0 .1-.2-.1-.4-.2-.6.1.1.1.1.3.1.2.2.2.1.2 0V48c.1.1.1.2.2.3.1.2.3.4.4.6.1.1.1.2.2.2l.1.1.1.1c.2.2.4.4.5.6l.1.1c-.2-.2-.3-.5-.5-.7-.1-.1-.1-.2-.1-.3 0-.2 0-.3-.1-.4 0-.1-.1-.1-.1-.2-.1-.1-.1-.1-.2-.1s-.1-.1-.1-.2 0-.2-.1-.3c0-.1 0-.1.1-.1.1.1.1.3.2.3s.2.1.2.2c.2.2.3.5.5.7v-.3c.3.2.4.4.6.6 0-.1.1-.1.1-.1l.1.1c0 .1-.1 0-.1.1.1.2.2.4.5.5 0-.1-.1-.2-.1-.3.3.2.5.5.9.6l-.3-.3c.2 0 .4.2.5.3.1 0 .1.1.1.1 0 .2.2.2.3.2h.2c-.1-.1-.1-.2-.2-.3.1 0 .2 0 .2.1-.1-.1-.2-.1-.3-.3 0-.1-.2-.2-.3-.3s-.1-.1-.1-.2c.1 0 .3 0 .3.1.1.1.2.2.3.2s.2.1.2.2.1.1.1.1c.1.1.3.1.4.2.1 0 .1.1.2.1-.2 0-.4-.1-.5 0 0 .1.1.2.1.4.3.1.5.2.8.3-.2 0-.4-.1-.6-.2 0 .1-.1.1-.1.2.1.1.1.1.2.1s.3.1.4.1c.1 0 .2.1.2.1.1 0 .2.1.2.2.1 0 .2-.1.3-.1s.2.1.2-.1c-.1 0-.1 0-.2-.1h.2c-.1-.2-.4-.1-.6-.3.2-.1.3.1.5 0l-.1-.1c.2 0 .3 0 .5.1-.2.1 0 .3-.1.5h.2c.1-.1.2-.1.4-.1.1 0 .2.1.2.1h.5c-.1 0-.1 0 0 0zM41 38.7c0-.1 0-.1 0 0 0-.1 0-.1 0 0 .1-.3.3-.5.4-.7 0 .4-.1.4-.4.7 0-.1 0-.1 0 0 0-.1 0-.1 0 0zm-.5.4s.1.1 0 0c0 .1 0 .2-.1.2l-.1-.1c.1 0 .2 0 .2-.1zm-.5.6c.1 0 .1.1 0 0zm.2.6c0-.3.1-.4.3-.3l.1.1v.2c-.2.1-.3.1-.4 0v.3c0 .1-.1.1-.2.1-.2.1-.3.2-.5.2.1-.3.3-.6.7-.6zM13.3 18s.1 0 0 0c0 .1 0 .1 0 0-.1.1-.1 0-.1 0h.1zM.8 25.1s-.1-.1 0 0V25v.1c0-.1 0 0 0 0zM2.7 32s0 .1 0 0c-.2-.2-.1-.4-.1-.6.1.2.3.4.4.8-.1-.1-.2-.1-.3-.2zm.1-13.2c-.1.3-.2.6-.4.9 0 .1-.1.1-.2.3 0-.6.3-1 .6-1.4.1-.1.2 0 .3 0-.2 0-.2.1-.3.2zm-.2-.5l.4-.4v.7c-.1-.1-.2-.2-.4-.3zm4.2 18.4c-.2-.3-.6-.4-.6-.7 0-.2.1-.2.2-.1.2.2.5.4.8.7-.2.1-.3.1-.4.1zm4.6-5.3c-.4-.4-.4-.4-.6-.8.6.4.6.4.6.8zM7.5 58.8c0-.1-.1-.1-.1-.2 0 0 .1-.1.1 0 0 0 0 .1.1.1 0 0 0 .1-.1.1zm7.3-24.2l-.1-.1c.1 0 .1 0 .1.1 0-.1 0 0 0 0zm2.5 8.6l-.4-.4c-.1-.1-.2-.3-.3-.5-.1.1-.2.1-.3.2-.1-.1-.3-.2-.4-.4.1-.1.3.1.4-.2-.2-.2-.5-.3-.8-.3-.1-.1-.2-.2-.2-.4 0-.1 0-.1-.1-.3.2.1.3.2.4.2.1.1.2.1.2.2.3.2.5.3.8.5s.6.4 1 .6c0-.2 0-.3-.1-.3-.3-.2-.5-.5-.9-.5-.1 0-.1-.1 0-.2.1 0 .2 0 .2.1.1.1.2.1.3.2.1.1.3.2.4.2s.2 0 .2.1c.3.2.7.5 1.1.6.1 0 .2.1.3.1.3.2.5.4.7.6l.6.6c.2.2.3.5.6.5.1 0 .1.1.2.2.3.3.6.7.9 1.1-.4.3-.9.5-1.4.8l-.1-.1c0-.3-.2-.5-.4-.6-.1 0-.1-.1-.1-.2-.1-.2-.3-.5-.5-.7 0-.2-.2-.4-.4-.5-.2-.1-.3-.3-.5-.4-.1-.1-.3-.2-.4-.3-.1-.3-.5-.5-1-.5zm-5.5 16.9c0-.3 0-.5.1-.6 0-.1.1-.2.1-.4 0-.1.1-.3.1-.4.2.5-.1.9-.1 1.3 0 0-.1 0-.2.1zm3.1 3c.2-.2.5-.2.8-.2-.3.2-.5.2-.8.2zm5.3-6.4s.1 0 .2.1c-.2.7-.5 1.4-.9 2.1-.3.4-.5.9-.8 1.2-.2.2-.3.5-.4.8-.4.1-.9.3-1.2.7.1.1.2.2.4.2-.2.3-.4-.1-.6.1-.2.1-.4.1-.5.1-.4.1-.9.1-1.3.2-.5.2-.9.2-1.4 0-.1 0-.2-.1-.3-.1-.2 0-.4-.1-.6-.1-.1-.3-.1-.5-.2-.7-.1-.2-.3-.4-.4-.6 0-.1 0-.2.1-.2.3-.4.4-.9.6-1.3.1-.3.1-.5-.1-.8-.2.1-.3.2-.4.3.1-.1.2-.3.3-.4.4-.5.7-1.1 1.3-1.3.6-.7 1.4-1 2.2-1.5.4-.3.9-.6 1.4-.7.1 0 .2-.1.4-.2.3-.2.7-.4 1-.6.2-.2.5-.3.7-.4.3-.1.6-.1.9-.2 0 .1.1.2.1.3.1.5.1.9-.1 1.4-.5.5-.4 1-.4 1.6zm.4-2.5c.2.2.2.2.2.3v.5c-.1-.3-.1-.4-.1-.5s-.1-.2-.1-.3zm1.1 4l-.1.1s0-.1-.1-.1c0 .1-.1.1-.1.2.1 0 .1.1.2.1-.1.4-.4.7-.6 1l-.3-.3c.3-.7.6-1.5 1-2.2.1.4-.1.8-.2 1.1.1.1.2.1.2.1zm.9-4.6c-.1.1-.3.1-.3 0s-.1-.2-.1-.3c0-.4.1-.8.1-1.4.1.2.1.3.1.4 0 .1 0 .3.2.3.1.4.2.7 0 1zm.6-8.4l-.1-.1v.2c-.1.1-.3.2-.5.3-.1-.1-.2-.3-.2-.4l-.1-.1c-.2-.3-.4-.5-.6-.8s-.5-.7-.8-.9v-.1c.2-.2.3 0 .4.1.1-.1.2-.1.3-.1.1.1.2.2.3.2.1.1.3.1.4.2.1.2.1.4.2.6.1 0 .2.1.3.2.1.1.3.2.3.3v.2c-.1-.1-.2-.2-.3-.2 0 .1 0 .1.4.4zm1.6 12.2c0-.1 0-.1 0 0v-.2.2zm.9-7.6c0-.1.1-.1.1-.1 0 .1 0 .1-.1.1zm1-1.2h.1c0 .1.1.2.1.3 0 0-.1-.2-.2-.3zm1 6.8c0 .1 0 .2.1.2-.2 0-.1-.1-.1-.2zm.8-17c0 .2-.1.4-.1.7-.2 0-.3-.1-.4-.1.1.2.3.4 0 .7V39c.1-.3.3-.5.4-.8.1 0 .1.1.1.2zm.3-1.2s0-.1 0 0c0-.1 0 0 0 0zm.9-2.7c.2 0 .2-.1.2-.2.1-.2.2-.4.4-.5.2-.2.4-.4.7-.6h.1l-.3.3c-.1.1-.2.2-.2.3l-.1.1c0 .1-.1.2-.2.1l-.1.1c-.1.1-.2.3-.3.4 0 .1 0 .2-.1.2-.1-.1 0-.2.1-.2h-.2c0 .1 0 0 0 0zm.1 6c-.2-.6-.2-.6.1-1.2 0 .4.2.8-.1 1.2zm1.4-3.5c-.1-.2-.1-.4.2-.5-.1.2-.1.4-.2.5zm1.2-4.4c-.3.2-.5.4-.7.7h.1c-.1.1-.1.2-.3.2-.1 0-.3.1-.3.3v.1c0 .1 0 .2-.2.2 0 0-.1.1-.1.2 0 0 .1 0 .1.1s-.1.1-.1.2c0-.1 0-.1-.1-.2l-.3.6h.1c0 .1-.1.1-.1.2v-.1c-.1 0-.1.1-.1.2h.1s-.1.1-.1.2l.1.1c-.1.1-.2.1-.3.2 0 .1-.1.2-.2.3s-.1.2-.3.3c0-.1 0-.2.1-.3 0-.1.1-.1 0-.2v-.2c0-.1.1-.2.1-.2s.1 0 .1-.1c-.1-.2 0-.4.2-.6.1-.1.2-.2.2-.3s0-.1.1-.2c.3-.5.8-.9 1.2-1.3 0 0 0-.1.1-.1s.2-.1.2-.3c-.1.1-.3.1-.4.2.2-.1.3-.3.5-.4.2.1.3.1.4-.1.1-.1.1-.2.3-.2-.2.2-.2.4-.4.5zm.4 11.9c0 .1 0 0 0 0zm5.6-15c.1 0 .2-.1.3-.1v.1c-.1 0-.2.1-.3.1v-.1zm-1.6 0c.1.1.1.1 0 0 .1.1 0 .1 0 0 0 .1 0 .1 0 0zm-3.2 9.1c-.1 0-.1.1-.2.1h-.1s-.1 0-.1-.1c-.1-.1-.1-.2 0-.2.2-.7.6-1.4 1-2.1.1-.1.2-.2.4-.3l.1-.1.1-.1c.1 0 .1-.1.2-.1-.1-.1-.1-.1 0-.2s.2-.1.3 0c0-.3.2-.4.3-.6v-.1c.1-.2.2-.3.3-.4l.6-.9c0-.2.2-.2.4-.3 0 0 .1-.1.2 0 0 0 .1 0 .2-.1 0 .2-.2.3-.3.4-.1.1-.2.1-.2.1-.3.4-.5.7-.8 1.1v.1c.1 0 .2-.1.3-.2.1-.2.2-.4.3-.5.2-.3.4-.5.6-.7.1 0 .2-.1.2-.1s0 .1-.1.1h-.1s.1.1.1 0l.1-.1v.2c0 .1.1.1.2.1 0-.1.1-.2.1-.2 0-.1.2-.2.3-.2h.5c.2.3.4.5.5.9 0 .1.1.2.1.3-.3.4-.6.8-1 1.1-.2.2-.4.4-.7.6-.1.1-.2.1-.4.2-.2.2-.5.3-.7.5h.1c0 .1-.1.1-.1.2l-.1.1c-.1 0-.2 0-.2.1.1.1.1.1.1.2-.1 0-.1.1-.2.1v-.3h-.2c-.2 0-.3 0-.3.2l-.1.1c-.2 0-.4.1-.5.3h.2c-.1.1-.2.1-.3.2 0 0 0-.1.1-.1-.1 0-.1-.1 0-.2 0-.1 0-.1.1-.2-.4.2-.7.4-1.1.6-.1.4-.2.5-.2.5z"/><path d="M36 47.9l-.2-.2c0 .1 0 .1.2.2zm.5-10.7zm1.2-3.1c-.1.3-.1.3-.1.4.1-.2.2-.3.1-.4zm-2.1 13.4l-.2-.2c.1.2.2.2.2.2zm-14.9 17c-.1 0-.2 0-.2.1.1 0 .2 0 .2-.1zm15.8-27.2s-.1 0-.2.1c.2 0 .2-.1.2-.1zM20.7 64.4s0 .1 0 0c0 .1 0 .1 0 0zm-5.8 2.3c-.1 0-.2 0-.3.1.1 0 .2 0 .3-.1zm4.6-1.5c.3-.1.5-.2.7-.4v-.1c-.2.1-.5.2-.7.5zm1-.6c-.1 0-.2.1-.2.1.1 0 .1 0 .2-.1zm3.4-6.5c-.1 0-.1 0 0 0zm0-.1s0 .1 0 0c0 .1 0 .1 0 0zm10.5-12.7v-.2c-.1.1-.1.2 0 .2zm-7.5 4.3c-.2 0-.3-.2-.5-.1 0 0 0 .1.1.1s.1.1.2.1.2 0 .2-.1zm-6.6 15.1c-.1 0-.1 0 0 0-.1 0-.1 0 0 0-.1 0-.1 0 0 0-.1 0 0 0 0 0zm5.7-4.6c0-.1 0-.1 0 0v-.2.2zm3.6-10.8l-.1-.1.1.1zm3.1 1.8zm-2-1.1c.4.3.8.5 1.2.8h.1v-.2c.2.1.3.1.4.2l-.2-.2c-.1 0-.2-.1-.3-.1s-.1-.1-.2-.1v.2c-.1-.1-.3-.2-.4-.3l.1-.1c-.1-.1-.2-.2-.4-.3 0 .1 0 .2.1.3-.2-.1-.3-.1-.4-.2zm-.4.3c.1.1.2.1.3.2.2.1.5.3.7.5 0 0 .1 0 .1-.1-.3-.3-.7-.5-1.1-.6 0-.1 0-.1 0 0zm3.9-5.3c0-.1-.1-.1 0 0-.1-.1 0 0 0 0zm-1.6 6c-.1-.1-.3-.1-.4-.2.2.3.2.3.4.2zm2.9-13.4c-.1.1-.1.1 0 0-.1.1-.1.1 0 0-.1.1 0 .1 0 0zM9 20.3s0 .1 0 0zm12.4 25s-.1-.1 0 0h-.1.1zM19 43.6c.1.1.2.2.4.3 0 0 .1 0 .1.1 0 0-.1 0-.1-.1-.1.1 0 .2.1.2.1.1.2 0 .2-.1l.1.1V44c.1.1.2.2.4.3.1 0 .1.1.2 0-.5-.5-.8-.8-1.2-1-.2-.1-.4-.1-.6-.1.1.1.2.3.4.4zm8.2 12.9c0 .1 0 .2.1.4v-.2c-.1-.1-.1-.1-.1-.2zm3-6.6c.1.1 0 0 0 0zm.1-.4c0 .1 0 .1 0 0 0 .1 0 .1 0 0 0 .1 0 0 0 0zM9.5 23.2c-.2.1-.2.3-.2.6s.1.5.1.7c.2.1.3 0 .3-.2 0-.4.1-.8.2-1.1-.1-.1-.2-.1-.4 0zm4.9 8.9c-.3-.3-.3-.3-.8-.5.5.5.9.9 1.4 1.3.1.1.2 0 .4 0-.4-.2-.7-.5-1-.8zM9.3 20.7c-.1.2-.2.3-.3.5 0 .1 0 .2.1.3.3-.3.4-.5.2-.8zm17.6 34.4c-.1.1-.2.3-.4.5.3 0 .5 0 .7-.1v-.3c-.1-.1-.2-.1-.3-.1zM10.4 21.8c-.3.2-.4.6-.5.8.4-.1.5-.4.5-.8zm-.1 31.3h-.5c.1.1.3.2.5 0zM35.6 52s-.1 0 0 0l-.1.2c.1 0 .1-.1.2-.1l-.1-.1zM16.7 33.9c0-.1 0-.2-.1-.2 0-.1-.1-.1-.2-.2 0 .3.1.4.3.4zm-10 24s-.1 0-.1.1v.1c0-.1 0-.1.1-.2zm10.7-22.5c.1-.1.1-.1 0 0v-.2l-.1.1c.1 0 .1 0 .1.1zm-1.2-1.3s.1-.1 0 0c0-.1 0-.2-.1-.3 0 .1-.1.1 0 .2 0 0 0 .1.1.1zm-4.1-3.7s-.1 0 0 0c-.1 0-.1 0-.2.1.1-.1.1-.1.2-.1-.1 0 0 0 0 0zm12.3 31.2h-.1s0 .1.1 0l.1.1s0-.1-.1-.1zm-3.7-22.8c-.1.1-.1.2-.1.3h.3c-.1-.1-.2-.2-.2-.3zm-5.3-5.6v-.3c-.1.2-.1.2 0 .3zm-4.2-4.1h.1V29h-.1v.1zm15.4 30.5s0-.1 0 0c0-.1-.1-.1-.1-.1l-.2.2c.1-.1.2-.1.3-.1zm.6-4.4c0-.1 0-.1 0 0zM10.9 21.1s.1-.1 0-.1c0 0 0-.1-.1-.1.1.1.1.1.1.2zM9 20.4c0-.1.1-.1 0 0 .1-.1 0-.1 0 0 0-.1 0 0 0 0zm24 9.7l-.1-.1.1.1zm9.9 8.3c0 .1-.1.1 0 0h-.2c0 .1 0 .2.1.2 0-.1 0-.1-.1-.2 0 .1.1.1.2 0-.1.1 0 .1 0 0zM11.8 52c-.1 0-.1 0 0 0-.1 0-.1 0 0 0zm-8-18c-.1 0-.1-.1 0 0zm2.4 25.3h.1-.1zm6.9-1.6c0 .1 0 .1 0 0 0 .1 0 .1 0 0 .1.1.1 0 0 0zm48.2-13c-.1-.4-.1-.7-.2-1.1-.1-2.2.9-3.9 2.3-5.3-.1-1.1.1-2.3.3-3.4-.4-.4-.7-.9-.9-1.4-.1 0-.2.1-.3.1-.1.1-.1.3-.2.4.1-.1.2-.1.2-.2-.1.2-.2.3-.2.5-.1.2-.2.2-.3.2v-.2c-.1.1-.2.3-.3.4v.2c.1 0 .1-.1.2-.1l.2-.2c0 .1 0 .1-.1.2 0 .1-.1.1-.1.3.1 0 .1-.1.2-.1l-.3.6v-.2c0 .1-.1.1-.1.2 0 0 0-.1-.1-.1 0-.1.1-.2.1-.3s0-.1.1-.2c-.2.2-.3.4-.3.6h.2c-.1.2-.2.4-.4.6.1 0 .1.1 0 .2-.1.3-.3.5-.5.8 0 0 0-.1-.1-.1 0 .2-.2.2-.2.5 0 .2-.1.3-.2.5v-.3c-.2.3-.3.5-.2.7 0-.1.1-.2.1-.2 0 .1 0 .2-.1.2-.1.2-.1.4-.2.6 0 .1-.1.3-.1.4v.1c-.1-.1-.1 0-.1.1-.1.3-.1.6-.2.9-.1.4-.1.7-.1 1.1 0 .3-.1.5-.1.8v.9c0 .2 0 .5.1.7v-1.2c0-.5.1-1.1.2-1.6s.2-1 .4-1.5.4-1 .5-1.6c0-.1.1-.2.2-.2-.1.2-.1.4-.2.6-.2.4-.3.9-.4 1.3 0 .2-.1.4-.2.5 0 .2 0 .4-.1.6v.1c.1-.2.1-.4.1-.6 0-.1.1-.1.1-.1 0 .1-.1.2-.1.3-.1.3-.1.6-.2 1 0 0 0 .1-.1.2 0-.1-.1-.2-.1-.3 0 .3 0 .5-.1.8 0-.1 0-.1.1-.2h.1c0 .1.1.2.1.2v.3c0 .1-.1.2-.1.3 0 .2 0 .4.1.6 0 .3.2.6.2 1h-.1c-.1 0-.1-.2-.2-.2v.1c.1.2.1.3.1.5 0 0 0 .1.1.2l.1-.1c.1.2.1.2.1.4.1 0 .2 0 .2.2-.2.1-.1.2 0 .3v.1l.1.1c0 .1.1.1.2.2.2.1.3.3.5.5h.6c-.2-.8-.4-1.5-.3-2.2zm-1.1-.1v-.3c0 .1.1.2 0 .3zm.1-4.9c0 .2-.1.4-.1.7-.2-.1-.1-.3 0-.5 0-.1.1-.1.1-.2 0-.2 0-.3.1-.4 0 0 0 .2-.1.4zm.8-2.7s-.1 0 0 0c.1-.3.2-.5.3-.7h.1c-.2.2-.3.5-.4.7z"/><path d="M62.3 34.6c-.1.1-.1.2-.2.3 0-.2.1-.2.2-.3zM60 44.5v.2c-.1-.1-.1-.1 0-.2zm34.2-18.2c.3.5.2 1.1-.3 1.5-.5.3-1.2.2-1.5-.3s-.2-1.1.3-1.5c.5-.3 1.2-.2 1.5.3zm-1.6 1.1c.3.4.8.5 1.1.2.4-.3.5-.8.2-1.1-.3-.4-.8-.5-1.1-.2-.3.2-.4.7-.2 1.1zm.9 0l-.2.1-.6-.9.3-.3c.2-.1.3-.1.3-.1.1 0 .2 0 .2.1.1.1 0 .2 0 .3.1 0 .2 0 .3.1l.2.2-.2.1-.2-.2c-.1-.1-.2-.1-.3 0l-.1.3.3.3zm-.3-.4c.2-.1.3-.2.2-.3-.1-.1-.1-.1-.3 0-.1 0-.1.1-.1.1l.2.2z"/></svg>