<svg xmlns="http://www.w3.org/2000/svg" id="Layer_1" data-name="Layer 1" viewBox="0 0 362 89"><defs><style>.cls-1{fill-rule:evenodd}.cls-1,.cls-2{fill:#fff;stroke-width:0}</style></defs><path d="M135.59 17h-9.83v46.76c0 4.42-2.13 6.06-5.56 6.06s-5.56-1.65-5.56-6.06V17h-9.46v47.02c0 9.53 5.84 14.46 15.11 14.46s15.3-4.94 15.3-14.46V17ZM177.57 17h-9.27v36.11h-.19L156.52 17h-10.94v60.61h9.27V37.43h.18l12.89 40.18h9.64V17ZM197.97 17h-9.83v60.61h9.83V17ZM235.03 17h-30.79v8.66h10.48v51.96h9.83V25.66h10.48V17ZM268.92 17h-27.63v60.61h27.63v-8.49h-17.8V51.11h14.37v-8.49h-14.37V25.47h17.8v-8.49ZM324.75 17h-9.83v46.76c0 4.42-2.13 6.06-5.56 6.06s-5.56-1.65-5.56-6.06V17h-9.46v47.02c0 9.53 5.84 14.46 15.11 14.46s15.3-4.94 15.3-14.46V17ZM346.24 16.13c-9.37 0-14.65 4.94-14.65 13.6v1.3c0 7.1 3.06 12.12 12.05 19.22 6.58 5.2 8.53 8.23 8.53 12.04v1.99c0 3.81-1.86 5.72-5.56 5.72s-5.56-1.9-5.56-5.72v-4.33l-9.46.87v4.07c0 8.66 5.47 13.6 15.21 13.6s15.21-4.94 15.21-13.6v-3.03c0-7.27-3.34-12.3-12.33-19.4-6.58-5.2-8.25-8.23-8.25-11.78v-.78c0-3.46 1.76-5.28 5.01-5.28s5.01 1.82 5.01 5.28v2.25l9.46-.87v-1.56c0-8.66-5.29-13.6-14.65-13.6Z" class="cls-2"/><path d="M47.88 84.95c.99 0 1.56-.31 2.28-.83 2.83-2.02 3.99-4.85 3.99-8.52V20.23C45.3 29.65 39.93 41.9 39.93 55.31v20.3c0 1.61-.35 3.14-.94 4.57 1.75 2.85 5 4.78 8.89 4.78" class="cls-1"/><path d="M59.56 75.87V22.73c0-9.72 5.67-18.19 14.08-22.73v64.93h-.1C72.35 78.4 60.24 89 45.49 89c7.78 0 14.08-5.88 14.08-13.13M20.18 87.57c-3.85-2.35-6.41-6.46-6.41-11.16V22.9C13.77 13.11 8.23 4.57 0 0v65.39h.1c1 11.67 9.91 21.17 21.56 23.61-.52-.45-1.02-.93-1.48-1.43M22.99 88.45c1.67.39 3.38.55 5.16.55-2.39 0-4.61-.79-6.5-2.02.41.49.88 1.04 1.34 1.48Z" class="cls-1"/><path d="M33.57 75.9V55.5c0-13.48-5.31-25.8-14.08-35.27V75.9c0 7.23 6.31 13.1 14.08 13.1h14.08c-7.78 0-14.08-5.86-14.08-13.1M30.14 22.25l2.55-6.95L26 11h8.28l2.55-6.95L39.39 11h8.27l-6.69 4.3 2.56 6.95-6.69-4.3-6.69 4.3Z" class="cls-1"/></svg>